shantellsans-wght_ital_INFM.glyphspackage
{
color = 4;
glyphname = quotedbl;
kernLeft = KO_quotedbl;
kernRight = KO_quotedbl;
layers = (
{
layerId = "DC44E50C-9AA1-421C-802C-D4D023281425";
shapes = (
{
closed = 1;
nodes = (
(313,425,o),
(325,435,o),
(329,451,cs),
(347,518,o),
(358,605,o),
(346,689,cs),
(344,706,o),
(329,717,o),
(313,717,cs),
(290,717,o),
(278,698,o),
(280,677,cs),
(287.326,603.739,o),
(276,530,o),
(263,471,cs),
(256,439,o),
(275.727,425,o),
(298,425,cs)
);
},
{
closed = 1;
nodes = (
(106,425,o),
(114,435,o),
(119,451,cs),
(141,516,o),
(157,610,o),
(140,690,cs),
(137,706,o),
(122,717,o),
(106,717,cs),
(83,717,o),
(68,698,o),
(73,677,cs),
(88,607,o),
(73,534,o),
(58,480,cs),
(47,443,o),
(70,425,o),
(91,425,cs)
);
}
);
vertWidth = 0;
width = 419;
},
{
layerId = "FA16BA0A-39E2-4955-BC33-721AB190E0D3";
shapes = (
{
closed = 1;
nodes = (
(435,347,o),
(461,368,o),
(475,407,cs),
(503.687,488.115,o),
(512.837,585.767,o),
(499,651,cs),
(490.626,687.638,o),
(459,715,o),
(404,715,cs),
(350,715,o),
(329,678,o),
(331,621,cs),
(333,568,o),
(323,505,o),
(312,445,cs),
(302,389,o),
(341,347,o),
(397,347,cs)
);
},
{
closed = 1;
nodes = (
(169.462,347,o),
(196.937,367.826,o),
(211,407,cs),
(240,488,o),
(249,582,o),
(235,647,cs),
(226.989,684.053,o),
(193.737,715,o),
(137,715,cs),
(84,715,o),
(58,677,o),
(64,621,cs),
(70,569,o),
(61,505,o),
(46,461,cs),
(31,416,o),
(73,347,o),
(130,347,cs)
);
}
);
vertWidth = 0;
width = 548;
},
{
layerId = "365BB766-143C-4A52-A3A9-25E29A0F4411";
shapes = (
{
closed = 1;
nodes = (
(313,425,o),
(325,435,o),
(329,451,cs),
(347,518,o),
(358,605,o),
(346,689,cs),
(344,706,o),
(329,717,o),
(313,717,cs),
(290,717,o),
(278,698,o),
(280,677,cs),
(287.326,603.739,o),
(276,530,o),
(263,471,cs),
(256,439,o),
(275.727,425,o),
(298,425,cs)
);
},
{
closed = 1;
nodes = (
(106,425,o),
(114,435,o),
(119,451,cs),
(141,516,o),
(157,610,o),
(140,690,cs),
(137,706,o),
(122,717,o),
(106,717,cs),
(83,717,o),
(68,698,o),
(73,677,cs),
(88,607,o),
(73,534,o),
(58,480,cs),
(47,443,o),
(70,425,o),
(91,425,cs)
);
}
);
vertWidth = 0;
width = 419;
},
{
layerId = "5DCC2EB0-DF11-4824-93BF-E616AA6EE2C6";
shapes = (
{
closed = 1;
nodes = (
(435,347,o),
(461,368,o),
(475,407,cs),
(504,489,o),
(513,588,o),
(499,654,cs),
(491,689,o),
(454,715,o),
(414,715,cs),
(364,715,o),
(329,669,o),
(331,621,cs),
(333.05,567.71,o),
(323,505,o),
(312,445,cs),
(302,389,o),
(341,347,o),
(397,347,cs)
);
},
{
closed = 1;
nodes = (
(168,347,o),
(194,368,o),
(208,407,cs),
(237,489,o),
(246,588,o),
(232,654,cs),
(224,689,o),
(187,715,o),
(147,715,cs),
(97,715,o),
(58,669,o),
(64,621,cs),
(70,569,o),
(61,505,o),
(46,461,cs),
(31,416,o),
(73,347,o),
(130,347,cs)
);
}
);
vertWidth = 0;
width = 548;
},
{
layerId = master01;
shapes = (
{
closed = 1;
nodes = (
(350,425,o),
(366,435,o),
(373,451,cs),
(405,518,o),
(433,605,o),
(438,689,cs),
(439,706,o),
(425,717,o),
(407.186,717,cs),
(384.186,717,o),
(369.186,698,o),
(366.186,677,cs),
(359.186,604,o),
(333.186,530,o),
(308.186,471,cs),
(295.186,439,o),
(312.186,425,o),
(334.186,425,cs)
);
},
{
closed = 1;
nodes = (
(144,425,o),
(155,435,o),
(163,451,cs),
(198,516,o),
(233,610,o),
(232,690,cs),
(232,706,o),
(218,717,o),
(200.186,717,cs),
(177.186,717,o),
(159.186,698,o),
(159.186,677,cs),
(160.186,607,o),
(131.186,534,o),
(105.186,480,cs),
(87.186,443,o),
(106.186,425,o),
(127.186,425,cs)
);
}
);
vertWidth = 0;
width = 419;
},
{
layerId = "FAD04859-55EE-48D6-A0AA-73DE2A79512F";
shapes = (
{
closed = 1;
nodes = (
(452.615,347,o),
(483.615,368,o),
(504.615,407,cs),
(549.615,488,o),
(578.615,586,o),
(577.615,651,cs),
(576.615,688,o),
(550.615,715,o),
(495.615,715,cs),
(441.615,715,o),
(413.615,678,o),
(403.615,621,cs),
(395.615,568,o),
(372.615,505,o),
(349.615,445,cs),
(328.615,389,o),
(358.615,347,o),
(414.615,347,cs)
);
},
{
closed = 1;
nodes = (
(187.614,347,o),
(219.614,368,o),
(240.614,407,cs),
(286.615,488,o),
(313.615,582,o),
(312.615,647,cs),
(312.615,684,o),
(285.615,715,o),
(228.614,715,cs),
(175.614,715,o),
(141.614,677,o),
(136.614,621,cs),
(132.614,569,o),
(110.615,505,o),
(86.615,461,cs),
(62.614,416,o),
(90.615,347,o),
(147.614,347,cs)
);
}
);
vertWidth = 0;
width = 548;
},
{
layerId = "0998268F-450B-429A-9175-FFA5E463F4E3";
shapes = (
{
closed = 1;
nodes = (
(350,425,o),
(366,435,o),
(373,451,cs),
(405,518,o),
(433,605,o),
(438,689,cs),
(439,706,o),
(425,717,o),
(407.186,717,cs),
(384.186,717,o),
(369.186,698,o),
(366.186,677,cs),
(359.186,604,o),
(333.186,530,o),
(308.186,471,cs),
(295.186,439,o),
(312.186,425,o),
(334.186,425,cs)
);
},
{
closed = 1;
nodes = (
(144,425,o),
(155,435,o),
(163,451,cs),
(198,516,o),
(233,610,o),
(232,690,cs),
(232,706,o),
(218,717,o),
(200.186,717,cs),
(177.186,717,o),
(159.186,698,o),
(159.186,677,cs),
(160.186,607,o),
(131.186,534,o),
(105.186,480,cs),
(87.186,443,o),
(106.186,425,o),
(127.186,425,cs)
);
}
);
vertWidth = 0;
width = 419;
},
{
layerId = "60E1EE18-36F5-475C-BAEC-6556E4A9959C";
shapes = (
{
closed = 1;
nodes = (
(452.615,347,o),
(483.615,368,o),
(504.615,407,cs),
(549.615,488,o),
(578.615,586,o),
(577.615,651,cs),
(576.615,688,o),
(550.615,715,o),
(495.615,715,cs),
(441.615,715,o),
(413.615,678,o),
(403.615,621,cs),
(395.615,568,o),
(372.615,505,o),
(349.615,445,cs),
(328.615,389,o),
(358.615,347,o),
(414.615,347,cs)
);
},
{
closed = 1;
nodes = (
(187.614,347,o),
(219.614,368,o),
(240.614,407,cs),
(286.615,488,o),
(313.615,582,o),
(312.615,647,cs),
(312.615,684,o),
(285.615,715,o),
(228.614,715,cs),
(175.614,715,o),
(141.614,677,o),
(136.614,621,cs),
(132.614,569,o),
(110.615,505,o),
(86.615,461,cs),
(62.614,416,o),
(90.615,347,o),
(147.614,347,cs)
);
}
);
vertWidth = 0;
width = 548;
}
);
unicode = 34;
userData = {
KernOnSpecialSpacing = {
L = quotes;
R = quotes;
};
};
}
{
color = 4;
glyphname = numbersign;
layers = (
{
background = {
shapes = (
{
closed = 0;
nodes = (
(402,778,l),
(404,625,o),
(201,135,o),
(195,-61,c)
);
},
{
closed = 0;
nodes = (
(752,725,l),
(762,572,o),
(555,183,o),
(545,-114,c)
);
},
{
closed = 0;
nodes = (
(190,524,l),
(417,493,o),
(618,482,o),
(857,489,c)
);
},
{
closed = 0;
nodes = (
(80,181,l),
(304,170,o),
(601,212,o),
(837,219,c)
);
}
);
};
layerId = "DC44E50C-9AA1-421C-802C-D4D023281425";
shapes = (
{
closed = 1;
nodes = (
(226,-96,o),
(241,-82,o),
(241,-67,cs),
(241,143,o),
(448,611,o),
(448,770,cs),
(448,793,o),
(430,812,o),
(409,812,cs),
(390,812,o),
(380,798,o),
(380,782,cs),
(377,620,o),
(173,160,o),
(173,-49,cs),
(173,-78,o),
(190,-94,o),
(211,-95,cs)
);
},
{
closed = 1;
nodes = (
(307,171,o),
(600,187,o),
(829,187,cs),
(862,187,o),
(881,206,o),
(881,225,cs),
(881,245,o),
(867,253,o),
(851,253,cs),
(612,253,o),
(331,240,o),
(79,240,cs),
(60,240,o),
(47,231,o),
(46,213,cs),
(45,194,o),
(60,171,o),
(92,171,cs)
);
},
{
closed = 1;
nodes = (
(564,-149,o),
(579,-135,o),
(579,-120,cs),
(579,178,o),
(786,559,o),
(786,710,cs),
(786,743,o),
(765,760,o),
(745,759,cs),
(726,758,o),
(718,743,o),
(718,727,cs),
(718,563,o),
(511,179,o),
(511,-102,cs),
(511,-131,o),
(528,-147,o),
(549,-148,cs)
);
},
{
closed = 1;
nodes = (
(872,457,o),
(892,474,o),
(891,498,cs),
(890,516,o),
(877,522,o),
(855,522,cs),
(321,522,o),
(222,532,o),
(151,532,cs),
(130,532,o),
(116,522,o),
(116,503,cs),
(116,484,o),
(127,467,o),
(166,465,cs),
(390,452,o),
(601,457,o),
(839,457,cs)
);
}
);
userData = {
com.typemytype.robofont.Image.Brightness = 0;
com.typemytype.robofont.Image.Contrast = 1;
com.typemytype.robofont.Image.Saturation = 1;
com.typemytype.robofont.Image.Sharpness = 0.4;
};
vertWidth = 0;
width = 937;
},
{
layerId = "FA16BA0A-39E2-4955-BC33-721AB190E0D3";
shapes = (
{
closed = 1;
nodes = (
(287,-139,o),
(317,-106,o),
(317,-50,cs),
(317,130,o),
(524,547,o),
(524,710,cs),
(524,781,o),
(484,821,o),
(418,820,cs),
(370,819,o),
(343,788,o),
(343,722,cs),
(343,566,o),
(135,147,o),
(135,-21,cs),
(135,-98,o),
(179,-137,o),
(233,-138,cs)
);
},
{
closed = 1;
nodes = (
(336,86,o),
(618,104,o),
(813,109,cs),
(907,113,o),
(946,164,o),
(944,215,cs),
(943,261,o),
(921,287,o),
(858,287,cs),
(624,287,o),
(347,282,o),
(113,282,cs),
(63,282,o),
(22,247,o),
(20,204,cs),
(17,145,o),
(51,86,o),
(165,86,cs)
);
},
{
closed = 1;
nodes = (
(631,-189,o),
(667,-158,o),
(667,-101,cs),
(667,171,o),
(869,463,o),
(869,646,cs),
(869,738,o),
(831,769,o),
(767,769,cs),
(709,769,o),
(687,737,o),
(687,683,cs),
(687,481,o),
(486,181,o),
(481,-85,cs),
(480,-155,o),
(519,-187,o),
(583,-188,cs)
);
},
{
closed = 1;
nodes = (
(921,398,o),
(960,444,o),
(959,491,cs),
(958,535,o),
(932,559,o),
(885,559,cs),
(307,559,o),
(261,573,o),
(165,573,cs),
(103,573,o),
(78,541,o),
(78,496,cs),
(78,451,o),
(102,397,o),
(218,393,cs),
(405,386,o),
(610,398,o),
(855,398,cs)
);
}
);
userData = {
com.typemytype.robofont.Image.Sharpness = 0.4;
};
vertWidth = 0;
width = 1004;
},
{
background = {
shapes = (
{
closed = 0;
nodes = (
(402,778,l),
(404,625,o),
(201,135,o),
(195,-61,c)
);
},
{
closed = 0;
nodes = (
(752,725,l),
(762,572,o),
(555,183,o),
(545,-114,c)
);
},
{
closed = 0;
nodes = (
(190,524,l),
(417,493,o),
(618,482,o),
(857,489,c)
);
},
{
closed = 0;
nodes = (
(80,181,l),
(304,170,o),
(601,212,o),
(837,219,c)
);
}
);
};
layerId = "365BB766-143C-4A52-A3A9-25E29A0F4411";
shapes = (
{
closed = 1;
nodes = (
(226,-96,o),
(241,-82,o),
(241,-67,cs),
(241,143,o),
(448,611,o),
(448,770,cs),
(448,793,o),
(430,812,o),
(409,812,cs),
(390,812,o),
(380,798,o),
(380,782,cs),
(377,620,o),
(173,160,o),
(173,-49,cs),
(173,-78,o),
(190,-94,o),
(211,-95,cs)
);
},
{
closed = 1;
nodes = (
(307,126,o),
(600,167,o),
(829,167,cs),
(862,167,o),
(881,186,o),
(881,205,cs),
(881,225,o),
(867,233,o),
(851,233,cs),
(612,233,o),
(331,195,o),
(79,195,cs),
(60,195,o),
(47,186,o),
(46,168,cs),
(45,149,o),
(60,126,o),
(92,126,cs)
);
},
{
closed = 1;
nodes = (
(564,-149,o),
(579,-135,o),
(579,-120,cs),
(579,178,o),
(786,559,o),
(786,710,cs),
(786,743,o),
(765,760,o),
(745,759,cs),
(726,758,o),
(718,743,o),
(718,727,cs),
(718,563,o),
(511,179,o),
(511,-102,cs),
(511,-131,o),
(528,-147,o),
(549,-148,cs)
);
},
{
closed = 1;
nodes = (
(872,477,o),
(892,494,o),
(891,518,cs),
(890,536,o),
(877,542,o),
(855,542,cs),
(351,542,o),
(258,578,o),
(191,578,cs),
(170,578,o),
(156,568,o),
(156,549,cs),
(156,530,o),
(167,513,o),
(206,508,cs),
(416,481,o),
(615,477,o),
(839,477,cs)
);
}
);
userData = {
com.typemytype.robofont.Image.Brightness = 0;
com.typemytype.robofont.Image.Contrast = 1;
com.typemytype.robofont.Image.Saturation = 1;
com.typemytype.robofont.Image.Sharpness = 0.4;
};
vertWidth = 0;
width = 937;
},
{
layerId = "5DCC2EB0-DF11-4824-93BF-E616AA6EE2C6";
shapes = (
{
closed = 1;
nodes = (
(303,-139,o),
(332,-102,o),
(332,-50,cs),
(332,130,o),
(539,547,o),
(539,689,cs),
(539,775,o),
(503,821,o),
(433,820,cs),
(385,819,o),
(358,788,o),
(358,722,cs),
(358,566,o),
(150,147,o),
(150,-21,cs),
(150,-98,o),
(194,-137,o),
(248,-138,cs)
);
},
{
closed = 1;
nodes = (
(353,38,o),
(637,76,o),
(834,81,cs),
(941,85,o),
(986,142,o),
(984,198,cs),
(983,236,o),
(962,257,o),
(903,257,cs),
(660,257,o),
(371,234,o),
(128,234,cs),
(70,234,o),
(37,208,o),
(35,156,cs),
(32,97,o),
(66,38,o),
(180,38,cs)
);
},
{
closed = 1;
nodes = (
(679,-189,o),
(712,-158,o),
(712,-101,cs),
(712,171,o),
(914,471,o),
(914,650,cs),
(914,733,o),
(869,769,o),
(802,769,cs),
(757,769,o),
(736,739,o),
(736,688,cs),
(736,525,o),
(535,183,o),
(531,-39,cs),
(529,-142,o),
(570,-187,o),
(634,-188,cs)
);
},
{
closed = 1;
nodes = (
(956,408,o),
(995,454,o),
(994,501,cs),
(993,545,o),
(967,569,o),
(920,569,cs),
(374,569,o),
(331,623,o),
(240,623,cs),
(178,623,o),
(153,591,o),
(153,546,cs),
(153,501,o),
(177,447,o),
(290,435,cs),
(459,415,o),
(660,408,o),
(890,408,cs)
);
}
);
userData = {
com.typemytype.robofont.Image.Sharpness = 0.4;
};
vertWidth = 0;
width = 1029;
},
{
background = {
shapes = (
{
closed = 1;
nodes = (
(142,-96,o),
(160,-82,o),
(163,-67,cs),
(205,143,o),
(505,611,o),
(537,770,cs),
(542,793,o),
(527,812,o),
(506,812,cs),
(487,812,o),
(475,798,o),
(471,782,cs),
(436,620,o),
(140,160,o),
(98,-49,cs),
(92,-78,o),
(106,-94,o),
(127,-95,cs)
);
},
{
closed = 1;
nodes = (
(271,146,o),
(572,187,o),
(801,187,cs),
(834,187,o),
(857,206,o),
(861,225,cs),
(865,245,o),
(853,253,o),
(837,253,cs),
(598,253,o),
(309,215,o),
(57,215,cs),
(38,215,o),
(23,206,o),
(19,188,cs),
(14,169,o),
(24,146,o),
(56,146,cs)
);
},
{
closed = 1;
nodes = (
(469,-149,o),
(487,-135,o),
(490,-120,cs),
(550,178,o),
(833,559,o),
(863,710,cs),
(870,743,o),
(852,760,o),
(832,759,cs),
(813,758,o),
(802,743,o),
(798,727,cs),
(766,563,o),
(482,179,o),
(426,-102,cs),
(420,-131,o),
(434,-147,o),
(454,-148,cs)
);
},
{
closed = 1;
nodes = (
(898,457,o),
(922,474,o),
(926,498,cs),
(928,516,o),
(916,522,o),
(894,522,cs),
(390,522,o),
(305,558,o),
(238,558,cs),
(217,558,o),
(201,548,o),
(197,529,cs),
(193,510,o),
(201,493,o),
(239,488,cs),
(443,461,o),
(641,457,o),
(865,457,cs)
);
}
);
};
layerId = master01;
shapes = (
{
closed = 1;
nodes = (
(200,-96,o),
(215,-82,o),
(215,-67,cs),
(215,143,o),
(492,611,o),
(492,770,cs),
(492,800,o),
(478,812,o),
(453,812,cs),
(434,812,o),
(424,798,o),
(424,778,cs),
(421,620,o),
(147,160,o),
(147,-49,cs),
(147,-78,o),
(164,-94,o),
(185,-95,cs)
);
},
{
closed = 1;
nodes = (
(299,171,o),
(576,187,o),
(793,187,cs),
(826,187,o),
(845,206,o),
(845,225,cs),
(845,245,o),
(831,253,o),
(815,253,cs),
(588,253,o),
(322,240,o),
(83,240,cs),
(64,240,o),
(51,231,o),
(50,213,cs),
(49,194,o),
(64,171,o),
(96,171,cs)
);
},
{
closed = 1;
nodes = (
(538,-149,o),
(553,-135,o),
(553,-120,cs),
(553,178,o),
(830,559,o),
(830,710,cs),
(830,748,o),
(815,760,o),
(791,759,cs),
(771,758,o),
(762,743,o),
(762,721,cs),
(762,563,o),
(485,179,o),
(485,-102,cs),
(485,-131,o),
(502,-147,o),
(523,-148,cs)
);
},
{
closed = 1;
nodes = (
(896,457,o),
(916,474,o),
(915,498,cs),
(914,516,o),
(901,522,o),
(879,522,cs),
(367,522,o),
(273,532,o),
(205,532,cs),
(184,532,o),
(170,522,o),
(170,503,cs),
(170,484,o),
(181,467,o),
(220,466,cs),
(436,457,o),
(635,457,o),
(863,457,cs)
);
}
);
vertWidth = 0;
width = 921;
},
{
background = {
shapes = (
{
closed = 1;
nodes = (
(196.1,-139,o),
(246.1,-100,o),
(256.1,-50,cs),
(292.1,130,o),
(582.1,547,o),
(615.1,710,cs),
(627.1,770,o),
(588.1,821,o),
(531.1,820,cs),
(483.1,819,o),
(450.1,788,o),
(436.1,722,cs),
(405.1,566,o),
(113.1,147,o),
(80.1,-21,cs),
(64.1,-98,o),
(101.1,-137,o),
(154.1,-138,cs)
);
},
{
closed = 1;
nodes = (
(300.1,58,o),
(596.1,110,o),
(795.1,115,cs),
(900.1,119,o),
(955.1,174,o),
(964.1,228,cs),
(970.1,266,o),
(953.1,287,o),
(894.1,287,cs),
(651.1,287,o),
(356.1,254,o),
(113.1,254,cs),
(63.1,254,o),
(15.1,219,o),
(4.1,176,cs),
(-10.9,117,o),
(12.1,58,o),
(126.1,58,cs)
);
},
{
closed = 1;
nodes = (
(545.1,-189,o),
(584.1,-158,o),
(596.1,-101,cs),
(650.1,171,o),
(922.1,520,o),
(951.1,665,cs),
(964.1,728,o),
(916.1,769,o),
(860.1,769,cs),
(815.1,769,o),
(788.1,739,o),
(778.1,688,cs),
(745.1,525,o),
(476.1,183,o),
(417.1,-85,cs),
(405.1,-142,o),
(437.1,-187,o),
(500.1,-188,cs)
);
},
{
closed = 1;
nodes = (
(970.1,398,o),
(1018.1,444,o),
(1026.1,491,cs),
(1034.1,535,o),
(1013.1,559,o),
(966.1,559,cs),
(420.1,559,o),
(388.1,613,o),
(297.1,613,cs),
(235.1,613,o),
(203.1,581,o),
(194.1,536,cs),
(185.1,491,o),
(198.1,437,o),
(309.1,425,cs),
(474.1,405,o),
(674.1,398,o),
(904.1,398,cs)
);
}
);
};
layerId = "FAD04859-55EE-48D6-A0AA-73DE2A79512F";
shapes = (
{
closed = 1;
nodes = (
(246,-139,o),
(283,-106,o),
(294,-50,cs),
(330,129,o),
(560,548,o),
(593,710,cs),
(607,781,o),
(575,821,o),
(509,820,cs),
(461,819,o),
(427,788,o),
(414,722,cs),
(383,567,o),
(151,146,o),
(118,-21,cs),
(102,-98,o),
(138,-137,o),
(192,-138,cs)
);
},
{
closed = 1;
nodes = (
(326,86,o),
(608,104,o),
(803,109,cs),
(897,113,o),
(936,164,o),
(934,215,cs),
(933,261,o),
(911,287,o),
(848,287,cs),
(614,287,o),
(337,282,o),
(103,282,cs),
(53,282,o),
(12,247,o),
(10,204,cs),
(7,145,o),
(41,86,o),
(155,86,cs)
);
},
{
closed = 1;
nodes = (
(580,-189,o),
(622,-158,o),
(634,-101,cs),
(688,169,o),
(889,464,o),
(925,646,cs),
(943,738,o),
(912,769,o),
(848,769,cs),
(790,769,o),
(761,737,o),
(750,683,cs),
(710,482,o),
(509,179,o),
(451,-85,cs),
(436,-155,o),
(468,-187,o),
(532,-188,cs)
);
},
{
closed = 1;
nodes = (
(971,398,o),
(1010,444,o),
(1009,491,cs),
(1008,535,o),
(982,559,o),
(935,559,cs),
(357,559,o),
(311,573,o),
(215,573,cs),
(153,573,o),
(128,541,o),
(128,496,cs),
(128,451,o),
(152,397,o),
(268,393,cs),
(455,386,o),
(660,398,o),
(905,398,cs)
);
}
);
vertWidth = 0;
width = 1004;
},
{
layerId = "0998268F-450B-429A-9175-FFA5E463F4E3";
shapes = (
{
closed = 1;
nodes = (
(160,-96,o),
(180,-82,o),
(183,-67,cs),
(225,143,o),
(525,611,o),
(557,770,cs),
(562,793,o),
(546,812,o),
(522.219,812,cs),
(503.219,812,o),
(491.219,798,o),
(487.219,782,cs),
(452.219,620,o),
(156.219,160,o),
(114.219,-49,cs),
(108.219,-78,o),
(122.219,-94,o),
(143.219,-95,cs)
);
},
{
closed = 1;
nodes = (
(287,126,o),
(588,167,o),
(817,167,cs),
(850,167,o),
(873,186,o),
(877,205,cs),
(881,225,o),
(869,233,o),
(853,233,cs),
(614,233,o),
(325,195,o),
(73,195,cs),
(54,195,o),
(39,186,o),
(35,168,cs),
(30,149,o),
(40,126,o),
(72,126,cs)
);
},
{
closed = 1;
nodes = (
(487,-149,o),
(507,-135,o),
(510,-120,cs),
(570,178,o),
(853,559,o),
(883,710,cs),
(890,743,o),
(871,760,o),
(848.219,759,cs),
(829.219,758,o),
(818.219,743,o),
(814.219,727,cs),
(782.219,563,o),
(498.219,179,o),
(442.219,-102,cs),
(436.219,-131,o),
(450.219,-147,o),
(470.219,-148,cs)
);
},
{
closed = 1;
nodes = (
(914,477,o),
(938,494,o),
(942,518,cs),
(944,536,o),
(932,542,o),
(910,542,cs),
(406,542,o),
(321,578,o),
(254,578,cs),
(233,578,o),
(217,568,o),
(213,549,cs),
(209,530,o),
(217,513,o),
(255,508,cs),
(459,481,o),
(657,477,o),
(881,477,cs)
);
}
);
vertWidth = 0;
width = 937;
},
{
layerId = "60E1EE18-36F5-475C-BAEC-6556E4A9959C";
shapes = (
{
closed = 1;
nodes = (
(239,-139,o),
(279,-108,o),
(292,-43,cs),
(325,121,o),
(572,548,o),
(605,710,cs),
(617,770,o),
(575,821,o),
(511,820,cs),
(463,819,o),
(430,788,o),
(416,722,cs),
(385,567,o),
(133,146,o),
(100,-21,cs),
(84,-98,o),
(121,-137,o),
(188,-138,cs)
);
},
{
closed = 1;
nodes = (
(298,48,o),
(594,80,o),
(793,85,cs),
(915,90,o),
(955,134,o),
(962,178,cs),
(971,234,o),
(949,266,o),
(883,266,cs),
(643,266,o),
(351,244,o),
(111,244,cs),
(61,244,o),
(13,209,o),
(2,166,cs),
(-13,107,o),
(10,48,o),
(124,48,cs)
);
},
{
closed = 1;
nodes = (
(570,-189,o),
(614,-158,o),
(626,-101,cs),
(680,170,o),
(912,521,o),
(941,665,cs),
(954,728,o),
(910,769,o),
(858,769,cs),
(801,769,o),
(764,741,o),
(754,691,cs),
(721,528,o),
(496,182,o),
(437,-85,cs),
(425,-142,o),
(457,-187,o),
(520,-188,cs)
);
},
{
closed = 1;
nodes = (
(970,428,o),
(1018,474,o),
(1026,521,cs),
(1034,565,o),
(1013,589,o),
(966,589,cs),
(420,589,o),
(388,643,o),
(297,643,cs),
(235,643,o),
(203,611,o),
(194,566,cs),
(185,521,o),
(198,467,o),
(309,455,cs),
(474,435,o),
(674,428,o),
(883,428,cs)
);
}
);
vertWidth = 0;
width = 1004;
},
{
associatedMasterId = "FA16BA0A-39E2-4955-BC33-721AB190E0D3";
layerId = "934284C9-D641-487B-AD85-47FD6759B04E";
name = "another one";
shapes = (
{
closed = 1;
nodes = (
(477,567,o),
(270,130,o),
(270,-50,cs),
(270,-90,o),
(237,-123,o),
(202,-122,cs),
(156,-121,o),
(120,-85,o),
(120,-21,cs),
(120,147,o),
(328,566,o),
(328,722,cs),
(328,774,o),
(347,803,o),
(387,804,cs),
(436,805,o),
(477,761,o),
(477,710,cs)
);
},
{
closed = 1;
nodes = (
(831,529,o),
(620,171,o),
(620,-101,cs),
(620,-146,o),
(595,-173,o),
(558,-172,cs),
(504,-171,o),
(469,-133,o),
(470,-85,cs),
(475,183,o),
(683,524,o),
(677,677,cs),
(675,721,o),
(692,751,o),
(727,753,cs),
(775,756,o),
(819,719,o),
(822,673,cs)
);
},
{
closed = 1;
nodes = (
(283,597,o),
(325,543,o),
(860,543,cs),
(897,543,o),
(931,516,o),
(932,481,cs),
(933,446,o),
(900,414,o),
(859,414,cs),
(615,414,o),
(414,418,o),
(245,435,cs),
(146,444,o),
(123,496,o),
(123,536,cs),
(123,573,o),
(145,597,o),
(194,597,cs)
);
},
{
closed = 1;
nodes = (
(319,238,o),
(600,273,o),
(837,273,cs),
(881,273,o),
(901,260,o),
(902,229,cs),
(904,181,o),
(860,136,o),
(771,133,cs),
(580,128,o),
(303,74,o),
(134,74,cs),
(37,74,o),
(2,123,o),
(5,175,cs),
(7,211,o),
(42,238,o),
(82,238,cs)
);
}
);
vertWidth = 0;
width = 1004;
},
{
associatedMasterId = "5DCC2EB0-DF11-4824-93BF-E616AA6EE2C6";
layerId = "643601BD-4FE2-4CC7-8F21-8115BEF2FECE";
name = "another one";
shapes = (
{
closed = 1;
nodes = (
(477,567,o),
(270,130,o),
(270,-50,cs),
(270,-90,o),
(237,-123,o),
(202,-122,cs),
(156,-121,o),
(120,-85,o),
(120,-21,cs),
(120,147,o),
(328,566,o),
(328,722,cs),
(328,774,o),
(347,803,o),
(387,804,cs),
(436,805,o),
(477,761,o),
(477,710,cs)
);
},
{
closed = 1;
nodes = (
(831,529,o),
(620,171,o),
(620,-101,cs),
(620,-146,o),
(595,-173,o),
(558,-172,cs),
(504,-171,o),
(469,-133,o),
(470,-85,cs),
(475,183,o),
(683,524,o),
(677,677,cs),
(675,721,o),
(692,751,o),
(727,753,cs),
(775,756,o),
(819,719,o),
(822,673,cs)
);
},
{
closed = 1;
nodes = (
(283,597,o),
(325,543,o),
(860,543,cs),
(897,543,o),
(931,516,o),
(932,481,cs),
(933,446,o),
(900,414,o),
(859,414,cs),
(615,414,o),
(414,418,o),
(245,435,cs),
(146,444,o),
(123,496,o),
(123,536,cs),
(123,573,o),
(145,597,o),
(194,597,cs)
);
},
{
closed = 1;
nodes = (
(319,238,o),
(600,273,o),
(837,273,cs),
(881,273,o),
(901,260,o),
(902,229,cs),
(904,181,o),
(860,136,o),
(771,133,cs),
(580,128,o),
(303,74,o),
(134,74,cs),
(37,74,o),
(2,123,o),
(5,175,cs),
(7,211,o),
(42,238,o),
(82,238,cs)
);
}
);
vertWidth = 0;
width = 1029;
}
);
unicode = 35;
userData = {
KernOnSpecialSpacing = {
L = NoKerning;
R = NoKerning;
};
};
}
{
color = 4;
glyphname = percent;
layers = (
{
layerId = "DC44E50C-9AA1-421C-802C-D4D023281425";
shapes = (
{
closed = 1;
nodes = (
(183,-21,o),
(195,-13,o),
(207,5,cs),
(353.263,226.784,o),
(514.546,423.718,o),
(761,639,cs),
(797,671,o),
(796,717,o),
(758,717,cs),
(738,717,o),
(726,711,o),
(705,691,cs),
(470.155,483.44,o),
(306.873,280.158,o),
(149,40,cs),
(131,11,o),
(140,-21,o),
(172,-21,cs)
);
},
{
closed = 1;
nodes = (
(344,403,o),
(411,463.481,o),
(411,545,cs),
(411,639.293,o),
(348,712,o),
(248,712,cs),
(234,712,o),
(212,705,o),
(212,679,cs),
(212,659,o),
(231,649,o),
(254,649,cs),
(302,649,o),
(340,600.488,o),
(340,547,cs),
(340,494.871,o),
(307,466,o),
(239,466,cs),
(171,466,o),
(136,497,o),
(136,553,cs),
(136,601,o),
(153.114,636.679,o),
(212,658,cs),
(238,667,o),
(247,675,o),
(247,689,cs),
(247,709,o),
(239,719,o),
(217,719,cs),
(136,719,o),
(65,640.195,o),
(65,555,cs),
(65,463.049,o),
(124,403,o),
(247,403,cs)
);
},
{
closed = 1;
nodes = (
(733,-11,o),
(806,64,o),
(806,161,cs),
(806,248,o),
(736,328,o),
(633,328,cs),
(615,328,o),
(597,321,o),
(597,297,cs),
(597,280,o),
(611,265,o),
(639,265,cs),
(696,265,o),
(735,217,o),
(735,163,cs),
(735,95,o),
(694,52,o),
(624,52,cs),
(564,52,o),
(521,87,o),
(521,142,cs),
(521,187.098,o),
(539,224,o),
(597,234,cs),
(623,238,o),
(632,251,o),
(632,265,cs),
(632,285,o),
(624,295,o),
(602,295,cs),
(515,295,o),
(450,226,o),
(450,151,cs),
(450,53,o),
(516,-11,o),
(632,-11,cs)
);
}
);
vertWidth = 0;
width = 906;
},
{
layerId = "FA16BA0A-39E2-4955-BC33-721AB190E0D3";
shapes = (
{
closed = 1;
nodes = (
(336,-21,o),
(363,-1,o),
(385,37,cs),
(503,243,o),
(622,384,o),
(775,523,cs),
(867,606,o),
(837,715,o),
(767,715,cs),
(738,715,o),
(706,702,o),
(668,666,cs),
(536,543,o),
(359,331,o),
(233,119,cs),
(195,57,o),
(243,-21,o),
(304,-21,cs)
);
},
{
closed = 1;
nodes = (
(358,347,o),
(441,428,o),
(441,536,cs),
(441,642,o),
(370,708,o),
(246,708,cs),
(192,708,o),
(160,675,o),
(160,628,cs),
(160,575,o),
(201,556,o),
(247,556,cs),
(261,556,o),
(270,547,o),
(270,534,cs),
(270,517,o),
(259,504,o),
(244,504,cs),
(226,504,o),
(214,514,o),
(214,529,cs),
(214,538,o),
(221,553,o),
(243,567,cs),
(267,581,o),
(283,611,o),
(283,638,cs),
(283,679,o),
(251,716,o),
(215,716,cs),
(113,716,o),
(37,634,o),
(37,536,cs),
(37,426,o),
(126,347,o),
(249,347,cs)
);
},
{
closed = 1;
nodes = (
(885,-13,o),
(961,65,o),
(961,179,cs),
(961,295,o),
(885,368,o),
(753,368,cs),
(698,368,o),
(665,341,o),
(665,293,cs),
(665,234,o),
(694,216,o),
(734,216,cs),
(768,216,o),
(790,199,o),
(790,173,cs),
(790,157,o),
(778,144,o),
(761,144,cs),
(742,144,o),
(731,156,o),
(731,169,cs),
(731,188,o),
(743,202,o),
(776,208,cs),
(793,211,o),
(800,238,o),
(800,278,cs),
(800,315,o),
(773,336,o),
(732,336,cs),
(640,336,o),
(554,262,o),
(554,161,cs),
(554,66,o),
(623,-13,o),
(766,-13,cs)
);
}
);
vertWidth = 0;
width = 995;
},
{
layerId = "365BB766-143C-4A52-A3A9-25E29A0F4411";
shapes = (
{
closed = 1;
nodes = (
(183,-21,o),
(195,-13,o),
(207,5,cs),
(353.263,226.784,o),
(514.546,423.718,o),
(761,639,cs),
(797,671,o),
(796,717,o),
(758,717,cs),
(738,717,o),
(726,711,o),
(705,691,cs),
(470.155,483.44,o),
(306.873,280.158,o),
(149,40,cs),
(131,11,o),
(140,-21,o),
(172,-21,cs)
);
},
{
closed = 1;
nodes = (
(344,403,o),
(411,463.481,o),
(411,545,cs),
(411,639.293,o),
(348,712,o),
(248,712,cs),
(234,712,o),
(212,705,o),
(212,679,cs),
(212,659,o),
(231,649,o),
(254,649,cs),
(302,649,o),
(340,600.488,o),
(340,547,cs),
(340,494.871,o),
(307,466,o),
(239,466,cs),
(171,466,o),
(136,497,o),
(136,553,cs),
(136,601,o),
(153.114,636.679,o),
(212,658,cs),
(238,667,o),
(247,675,o),
(247,689,cs),
(247,709,o),
(239,719,o),
(217,719,cs),
(136,719,o),
(65,640.195,o),
(65,555,cs),
(65,463.049,o),
(124,403,o),
(247,403,cs)
);
},
{
closed = 1;
nodes = (
(733,-11,o),
(806,64,o),
(806,161,cs),
(806,248,o),
(736,328,o),
(633,328,cs),
(615,328,o),
(597,321,o),
(597,297,cs),
(597,280,o),
(611,265,o),
(639,265,cs),
(696,265,o),
(735,217,o),
(735,163,cs),
(735,95,o),
(694,52,o),
(624,52,cs),
(564,52,o),
(521,87,o),
(521,142,cs),
(521,187.098,o),
(539,224,o),
(597,234,cs),
(623,238,o),
(632,251,o),
(632,265,cs),
(632,285,o),
(624,295,o),
(602,295,cs),
(515,295,o),
(450,226,o),
(450,151,cs),
(450,53,o),
(516,-11,o),
(632,-11,cs)
);
}
);
vertWidth = 0;
width = 906;
},
{
layerId = "5DCC2EB0-DF11-4824-93BF-E616AA6EE2C6";
shapes = (
{
closed = 1;
nodes = (
(336,-21,o),
(363,-1,o),
(385,37,cs),
(503,243,o),
(622,384,o),
(775,523,cs),
(867,606,o),
(837,715,o),
(767,715,cs),
(738,715,o),
(706,702,o),
(668,666,cs),
(536,543,o),
(359,331,o),
(233,119,cs),
(195,57,o),
(243,-21,o),
(304,-21,cs)
);
},
{
closed = 1;
nodes = (
(358,347,o),
(441,428,o),
(441,536,cs),
(441,642,o),
(370,708,o),
(246,708,cs),
(192,708,o),
(160,675,o),
(160,628,cs),
(160,575,o),
(201,556,o),
(247,556,cs),
(261,556,o),
(270,547,o),
(270,534,cs),
(270,517,o),
(259,504,o),
(244,504,cs),
(226,504,o),
(214,514,o),
(214,529,cs),
(214,538,o),
(221,553,o),
(243,567,cs),
(267,581,o),
(283,611,o),
(283,638,cs),
(283,679,o),
(251,716,o),
(215,716,cs),
(113,716,o),
(37,634,o),
(37,536,cs),
(37,426,o),
(126,347,o),
(249,347,cs)
);
},
{
closed = 1;
nodes = (
(885,-13,o),
(961,65,o),
(961,179,cs),
(961,295,o),
(885,368,o),
(753,368,cs),
(698,368,o),
(665,341,o),
(665,293,cs),
(665,234,o),
(694,216,o),
(734,216,cs),
(768,216,o),
(790,199,o),
(790,173,cs),
(790,157,o),
(778,144,o),
(761,144,cs),
(742,144,o),
(731,156,o),
(731,169,cs),
(731,188,o),
(743,202,o),
(776,208,cs),
(793,211,o),
(800,238,o),
(800,278,cs),
(800,315,o),
(773,336,o),
(732,336,cs),
(640,336,o),
(554,262,o),
(554,161,cs),
(554,66,o),
(623,-13,o),
(766,-13,cs)
);
}
);
vertWidth = 0;
width = 995;
},
{
layerId = master01;
shapes = (
{
closed = 1;
nodes = (
(133,-21,o),
(150,-15,o),
(168,5,cs),
(359,227,o),
(559,424,o),
(849,639,cs),
(886,668,o),
(890.829,717,o),
(852.829,717,cs),
(832.829,717,o),
(819.829,711,o),
(794.829,691,cs),
(518.829,483,o),
(314.829,280,o),
(108.829,40,cs),
(84.829,11,o),
(87.829,-21,o),
(119.829,-21,cs)
);
},
{
closed = 1;
nodes = (
(378,403,o),
(454,455,o),
(470,539,cs),
(489,631,o),
(441.829,712,o),
(341.829,712,cs),
(327.829,712,o),
(304.829,705,o),
(299.829,679,cs),
(295.829,659,o),
(312.829,649,o),
(335.829,649,cs),
(383.829,649,o),
(411,602,o),
(401,551,cs),
(390,497,o),
(351.829,466,o),
(283.829,466,cs),
(214,466,o),
(187,506,o),
(199,561,cs),
(207,605,o),
(232,637,o),
(295.829,658,cs),
(322.829,667,o),
(333.829,675,o),
(336.829,689,cs),
(340.829,709,o),
(334.829,719,o),
(312.829,719,cs),
(231.829,719,o),
(146,654,o),
(130,573,cs),
(111,477,o),
(157,403,o),
(282,403,cs)
);
},
{
closed = 1;
nodes = (
(686,-11,o),
(770,51,o),
(788,144,cs),
(807,234,o),
(753.829,328,o),
(650.829,328,cs),
(632.829,328,o),
(612.829,321,o),
(607.829,297,cs),
(604.829,280,o),
(615.829,265,o),
(643.829,265,cs),
(700.829,265,o),
(730,214,o),
(720,156,cs),
(707,92,o),
(658,52,o),
(590,52,cs),
(527,52,o),
(489,88,o),
(501,145,cs),
(510,189,o),
(536,224,o),
(595.829,234,cs),
(622.829,238,o),
(633.829,251,o),
(636.829,265,cs),
(640.829,285,o),
(634.829,295,o),
(612.829,295,cs),
(525.829,295,o),
(449,237,o),
(434,164,cs),
(415,64,o),
(468,-11,o),
(589,-11,cs)
);
}
);
vertWidth = 0;
width = 906;
},
{
layerId = "FAD04859-55EE-48D6-A0AA-73DE2A79512F";
shapes = (
{
closed = 1;
nodes = (
(280.894,-21,o),
(311.894,-1,o),
(340.894,37,cs),
(500.894,243,o),
(647.894,384,o),
(828.894,523,cs),
(936.894,606,o),
(928.894,715,o),
(858.894,715,cs),
(829.894,715,o),
(794.894,702,o),
(749.894,666,cs),
(593.894,543,o),
(373.894,331,o),
(205.894,119,cs),
(154.894,57,o),
(187.894,-21,o),
(248.894,-21,cs)
);
},
{
closed = 1;
nodes = (
(379.365,347,o),
(474.183,419.226,o),
(493,516,cs),
(516.386,634.042,o),
(455.65,708,o),
(327,708,cs),
(278.238,708,o),
(243.865,674.846,o),
(234.894,628,cs),
(223.894,575,o),
(260.894,556,o),
(306.894,556,cs),
(320.894,556,o),
(327.894,547,o),
(325.894,534,cs),
(321.894,517,o),
(308.894,504,o),
(293.894,504,cs),
(275.894,504,o),
(265.894,514,o),
(268.894,529,cs),
(270.894,538,o),
(280.894,553,o),
(304.894,567,cs),
(331.894,581,o),
(353.894,611,o),
(359.894,638,cs),
(367.954,679.306,o),
(339.72,716,o),
(297,716,cs),
(200.72,716,o),
(113.893,638.574,o),
(95,546,cs),
(71.837,430.183,o),
(148.345,347,o),
(277,347,cs)
);
},
{
closed = 1;
nodes = (
(832.863,-13,o),
(920.504,52.37,o),
(940,149,cs),
(966.541,282.86,o),
(901.106,368,o),
(766,368,cs),
(716.283,368,o),
(681.866,340.851,o),
(672.894,293,cs),
(660.894,234,o),
(685.894,216,o),
(725.894,216,cs),
(759.894,216,o),
(778.894,199,o),
(773.894,173,cs),
(769.894,157,o),
(755.894,144,o),
(738.894,144,cs),
(719.894,144,o),
(710.894,156,o),
(713.894,169,cs),
(717.894,188,o),
(731.894,202,o),
(766.894,208,cs),
(783.894,211,o),
(796.894,238,o),
(804.894,278,cs),
(811.939,315.24,o),
(786.117,336,o),
(738,336,cs),
(655.07,336,o),
(562.746,274.567,o),
(546,190,cs),
(523.948,79.739,o),
(579.808,-13,o),
(722,-13,cs)
);
}
);
vertWidth = 0;
width = 995;
},
{
layerId = "0998268F-450B-429A-9175-FFA5E463F4E3";
shapes = (
{
closed = 1;
nodes = (
(133,-21,o),
(150,-15,o),
(168,5,cs),
(359,227,o),
(559,424,o),
(849,639,cs),
(886,668,o),
(890.829,717,o),
(852.829,717,cs),
(832.829,717,o),
(819.829,711,o),
(794.829,691,cs),
(518.829,483,o),
(314.829,280,o),
(108.829,40,cs),
(84.829,11,o),
(87.829,-21,o),
(119.829,-21,cs)
);
},
{
closed = 1;
nodes = (
(378,403,o),
(454,455,o),
(470,539,cs),
(489,631,o),
(441.829,712,o),
(341.829,712,cs),
(327.829,712,o),
(304.829,705,o),
(299.829,679,cs),
(295.829,659,o),
(312.829,649,o),
(335.829,649,cs),
(383.829,649,o),
(411,602,o),
(401,551,cs),
(390,497,o),
(351.829,466,o),
(283.829,466,cs),
(214,466,o),
(187,506,o),
(199,561,cs),
(207,605,o),
(232,637,o),
(295.829,658,cs),
(322.829,667,o),
(333.829,675,o),
(336.829,689,cs),
(340.829,709,o),
(334.829,719,o),
(312.829,719,cs),
(231.829,719,o),
(146,654,o),
(130,573,cs),
(111,477,o),
(157,403,o),
(282,403,cs)
);
},
{
closed = 1;
nodes = (
(686,-11,o),
(770,51,o),
(788,144,cs),
(807,234,o),
(753.829,328,o),
(650.829,328,cs),
(632.829,328,o),
(612.829,321,o),
(607.829,297,cs),
(604.829,280,o),
(615.829,265,o),
(643.829,265,cs),
(700.829,265,o),
(730,214,o),
(720,156,cs),
(707,92,o),
(658,52,o),
(590,52,cs),
(527,52,o),
(489,88,o),
(501,145,cs),
(510,189,o),
(536,224,o),
(595.829,234,cs),
(622.829,238,o),
(633.829,251,o),
(636.829,265,cs),
(640.829,285,o),
(634.829,295,o),
(612.829,295,cs),
(525.829,295,o),
(449,237,o),
(434,164,cs),
(415,64,o),
(468,-11,o),
(589,-11,cs)
);
}
);
vertWidth = 0;
width = 906;
},
{
layerId = "60E1EE18-36F5-475C-BAEC-6556E4A9959C";
shapes = (
{
closed = 1;
nodes = (
(280.894,-21,o),
(311.894,-1,o),
(340.894,37,cs),
(500.894,243,o),
(647.894,384,o),
(828.894,523,cs),
(936.894,606,o),
(928.894,715,o),
(858.894,715,cs),
(829.894,715,o),
(794.894,702,o),
(749.894,666,cs),
(593.894,543,o),
(373.894,331,o),
(205.894,119,cs),
(154.894,57,o),
(187.894,-21,o),
(248.894,-21,cs)
);
},
{
closed = 1;
nodes = (
(379.365,347,o),
(474.183,419.226,o),
(493,516,cs),
(516.386,634.042,o),
(455.65,708,o),
(327,708,cs),
(278.238,708,o),
(243.865,674.846,o),
(234.894,628,cs),
(223.894,575,o),
(260.894,556,o),
(306.894,556,cs),
(320.894,556,o),
(327.894,547,o),
(325.894,534,cs),
(321.894,517,o),
(308.894,504,o),
(293.894,504,cs),
(275.894,504,o),
(265.894,514,o),
(268.894,529,cs),
(270.894,538,o),
(280.894,553,o),
(304.894,567,cs),
(331.894,581,o),
(353.894,611,o),
(359.894,638,cs),
(367.954,679.306,o),
(339.72,716,o),
(297,716,cs),
(200.72,716,o),
(113.893,638.574,o),
(95,546,cs),
(71.837,430.183,o),
(148.345,347,o),
(277,347,cs)
);
},
{
closed = 1;
nodes = (
(832.863,-13,o),
(920.504,52.37,o),
(940,149,cs),
(966.541,282.86,o),
(901.106,368,o),
(766,368,cs),
(716.283,368,o),
(681.866,340.851,o),
(672.894,293,cs),
(660.894,234,o),
(685.894,216,o),
(725.894,216,cs),
(759.894,216,o),
(778.894,199,o),
(773.894,173,cs),
(769.894,157,o),
(755.894,144,o),
(738.894,144,cs),
(719.894,144,o),
(710.894,156,o),
(713.894,169,cs),
(717.894,188,o),
(731.894,202,o),
(766.894,208,cs),
(783.894,211,o),
(796.894,238,o),
(804.894,278,cs),
(811.939,315.24,o),
(786.117,336,o),
(738,336,cs),
(655.07,336,o),
(562.746,274.567,o),
(546,190,cs),
(523.948,79.739,o),
(579.808,-13,o),
(722,-13,cs)
);
}
);
vertWidth = 0;
width = 995;
},
{
associatedMasterId = "DC44E50C-9AA1-421C-802C-D4D023281425";
layerId = "22BE8BB2-9066-4EC8-8965-8BB957D93076";
name = background;
shapes = (
{
closed = 1;
nodes = (
(158,1168,o),
(266,1278,o),
(266,1432,cs),
(266,1585,o),
(158,1696,o),
(0,1696,cs),
(-157,1696,o),
(-266,1585,o),
(-266,1432,cs),
(-266,1278,o),
(-157,1168,o),
(0,1168,cs)
);
},
{
closed = 1;
nodes = (
(-72,1312,o),
(-116,1363,o),
(-116,1432,cs),
(-116,1500,o),
(-72,1552,o),
(0,1552,cs),
(72,1552,o),
(116,1500,o),
(116,1432,cs),
(116,1363,o),
(72,1312,o),
(0,1312,cs)
);
}
);
vertWidth = 0;
width = 906;
}
);
unicode = 37;
userData = {
KernOnSpecialSpacing = {
L = NoKerning;
R = NoKerning;
};
};
}
{
color = 4;
glyphname = quotesingle;
kernLeft = KO_seven;
kernRight = KO_quotedbl;
layers = (
{
background = {
shapes = (
{
closed = 0;
nodes = (
(149,115,l),
(145,47,o),
(120,-25,o),
(95,-67,cs)
);
}
);
};
layerId = "DC44E50C-9AA1-421C-802C-D4D023281425";
shapes = (
{
closed = 1;
nodes = (
(133.077,425,o),
(141,435,o),
(146,451,cs),
(168,516,o),
(184,610,o),
(167,690,cs),
(164,706,o),
(149,717,o),
(133,717,cs),
(110,717,o),
(95.294,698.176,o),
(100,677,cs),
(115,607,o),
(100,534,o),
(85,480,cs),
(74.05,443.167,o),
(97.257,425,o),
(118,425,cs)
);
}
);
vertWidth = 0;
width = 259;
},
{
layerId = "FA16BA0A-39E2-4955-BC33-721AB190E0D3";
shapes = (
{
closed = 1;
nodes = (
(168,347,o),
(194,368,o),
(208,407,cs),
(237,489,o),
(246,584,o),
(232,650,cs),
(223,685,o),
(193,715,o),
(141,715,cs),
(89,715,o),
(56,678,o),
(64,625,cs),
(73,570,o),
(61,507,o),
(46,461,cs),
(32,415,o),
(73,347,o),
(130,347,cs)
);
}
);
vertWidth = 0;
width = 281;
},
{
background = {
shapes = (
{
closed = 0;
nodes = (
(149,115,l),
(145,47,o),
(120,-25,o),
(95,-67,cs)
);
}
);
};
layerId = "365BB766-143C-4A52-A3A9-25E29A0F4411";
shapes = (
{
closed = 1;
nodes = (
(133.077,425,o),
(141,435,o),
(146,451,cs),
(168,516,o),
(184,610,o),
(167,690,cs),
(164,706,o),
(149,717,o),
(133,717,cs),
(110,717,o),
(95.294,698.176,o),
(100,677,cs),
(115,607,o),
(100,534,o),
(85,480,cs),
(74.05,443.167,o),
(97.257,425,o),
(118,425,cs)
);
}
);
vertWidth = 0;
width = 259;
},
{
layerId = "5DCC2EB0-DF11-4824-93BF-E616AA6EE2C6";
shapes = (
{
closed = 1;
nodes = (
(168,347,o),
(194,368,o),
(208,407,cs),
(237,489,o),
(246,588,o),
(232,654,cs),
(223,689,o),
(187,715,o),
(147,715,cs),
(97,715,o),
(56,669,o),
(64,621,cs),
(73,570,o),
(61,507,o),
(46,461,cs),
(32,415,o),
(73,347,o),
(130,347,cs)
);
}
);
vertWidth = 0;
width = 281;
},
{
layerId = master01;
shapes = (
{
closed = 1;
nodes = (
(171,425,o),
(183,435,o),
(191,451,cs),
(226,516,o),
(261,610,o),
(260,690,cs),
(260,706,o),
(245,717,o),
(227.186,717,cs),
(204.186,717,o),
(186.186,698,o),
(186.186,677,cs),
(187.186,607,o),
(158.186,534,o),
(132.186,480,cs),
(114.186,443,o),
(133.186,425,o),
(154.186,425,cs)
);
}
);
vertWidth = 0;
width = 259;
},
{
layerId = "FAD04859-55EE-48D6-A0AA-73DE2A79512F";
shapes = (
{
closed = 1;
nodes = (
(185.197,347,o),
(216.197,368,o),
(237.197,407,cs),
(283.197,489,o),
(311.197,584,o),
(310.197,650,cs),
(308.197,685,o),
(284.197,715,o),
(232.197,715,cs),
(180.197,715,o),
(140.197,678,o),
(137.197,625,cs),
(135.197,570,o),
(110.197,507,o),
(86.197,461,cs),
(63.197,415,o),
(90.197,347,o),
(147.197,347,cs)
);
}
);
vertWidth = 0;
width = 281;
},
{
layerId = "0998268F-450B-429A-9175-FFA5E463F4E3";
shapes = (
{
closed = 1;
nodes = (
(171,425,o),
(183,435,o),
(191,451,cs),
(226,516,o),
(261,610,o),
(260,690,cs),
(260,706,o),
(245,717,o),
(227.186,717,cs),
(204.186,717,o),
(186.186,698,o),
(186.186,677,cs),
(187.186,607,o),
(158.186,534,o),
(132.186,480,cs),
(114.186,443,o),
(133.186,425,o),
(154.186,425,cs)
);
}
);
vertWidth = 0;
width = 259;
},
{
layerId = "60E1EE18-36F5-475C-BAEC-6556E4A9959C";
shapes = (
{
closed = 1;
nodes = (
(185.197,347,o),
(216.197,368,o),
(237.197,407,cs),
(283.197,489,o),
(311.197,584,o),
(310.197,650,cs),
(308.197,685,o),
(284.197,715,o),
(232.197,715,cs),
(180.197,715,o),
(140.197,678,o),
(137.197,625,cs),
(135.197,570,o),
(110.197,507,o),
(86.197,461,cs),
(63.197,415,o),
(90.197,347,o),
(147.197,347,cs)
);
}
);
vertWidth = 0;
width = 281;
}
);
unicode = 39;
userData = {
KernOnSpecialSpacing = {
L = quotes;
R = quotes;
};
};
}
{
color = 4;
glyphname = parenleft;
kernRight = KO_parenleft;
layers = (
{
background = {
shapes = (
{
closed = 0;
nodes = (
(353,776,l),
(231,615,o),
(127,412,o),
(127,176,cs),
(127,-41,o),
(206,-168,o),
(356,-226,cs)
);
}
);
};
layerId = "DC44E50C-9AA1-421C-802C-D4D023281425";
shapes = (
{
closed = 1;
nodes = (
(378,-261,o),
(391,-244.89,o),
(391,-227,cs),
(391,-213,o),
(382,-199,o),
(356,-189,cs),
(231,-140,o),
(162,-21,o),
(162,176,cs),
(162,404,o),
(263,600,o),
(374,746,cs),
(385,761,o),
(388,768,o),
(388,776,cs),
(388,794,o),
(376,811,o),
(353,811,cs),
(343,811,o),
(332,806,o),
(320,790,cs),
(199,630,o),
(92,420,o),
(92,176,cs),
(92,-61,o),
(183,-195,o),
(318,-249,cs),
(342,-259,o),
(349,-261,o),
(365,-261,cs)
);
}
);
vertWidth = 0;
width = 421;
},
{
backgroundImage = {
imagePath = parenleft.png;
pos = (-138.746,-555.376);
scale = (2.5964,2.5964);
};
layerId = "FA16BA0A-39E2-4955-BC33-721AB190E0D3";
shapes = (
{
closed = 1;
nodes = (
(428,-263,o),
(479,-232,o),
(479,-183,cs),
(479,-152,o),
(463,-139,o),
(419,-124,cs),
(299,-84,o),
(225,24,o),
(225,186,cs),
(225,376,o),
(321,538,o),
(421,656,cs),
(444,683,o),
(454,700,o),
(454,720,cs),
(454,765,o),
(408,811,o),
(363,811,cs),
(338,811,o),
(313,801,o),
(290,773,cs),
(161,620,o),
(49,418,o),
(49,186,cs),
(49,-59,o),
(166,-187,o),
(301,-243,cs),
(346,-261,o),
(361,-263,o),
(382,-263,cs)
);
}
);
userData = {
com.typemytype.robofont.Image.Brightness = 0;
com.typemytype.robofont.Image.Contrast = 1;
com.typemytype.robofont.Image.Saturation = 1;
com.typemytype.robofont.Image.Sharpness = 0.4;
};
vertWidth = 0;
width = 499;
},
{
background = {
shapes = (
{
closed = 0;
nodes = (
(353,776,l),
(231,615,o),
(127,412,o),
(127,176,cs),
(127,-41,o),
(206,-168,o),
(356,-226,cs)
);
}
);
};
layerId = "365BB766-143C-4A52-A3A9-25E29A0F4411";
shapes = (
{
closed = 1;
nodes = (
(378,-261,o),
(391,-244.89,o),
(391,-227,cs),
(391,-213,o),
(382,-199,o),
(356,-189,cs),
(231,-140,o),
(162,-21,o),
(162,176,cs),
(162,404,o),
(263,600,o),
(374,746,cs),
(385,761,o),
(388,768,o),
(388,776,cs),
(388,794,o),
(376,811,o),
(353,811,cs),
(343,811,o),
(332,806,o),
(320,790,cs),
(199,630,o),
(92,420,o),
(92,176,cs),
(92,-61,o),
(183,-195,o),
(318,-249,cs),
(342,-259,o),
(349,-261,o),
(365,-261,cs)
);
}
);
vertWidth = 0;
width = 421;
},
{
backgroundImage = {
imagePath = parenleft.png;
pos = (-138.746,-555.376);
scale = (2.5964,2.5964);
};
layerId = "5DCC2EB0-DF11-4824-93BF-E616AA6EE2C6";
shapes = (
{
closed = 1;
nodes = (
(448,-263,o),
(499,-232,o),
(499,-183,cs),
(499,-152,o),
(483,-139,o),
(439,-124,cs),
(319,-84,o),
(245,24,o),
(245,186,cs),
(245,376,o),
(341,538,o),
(441,656,cs),
(464,683,o),
(474,700,o),
(474,720,cs),
(474,765,o),
(428,811,o),
(383,811,cs),
(358,811,o),
(333,801,o),
(310,773,cs),
(181,620,o),
(69,418,o),
(69,186,cs),
(69,-59,o),
(186,-187,o),
(321,-243,cs),
(366,-261,o),
(381,-263,o),
(402,-263,cs)
);
}
);
userData = {
com.typemytype.robofont.Image.Brightness = 0;
com.typemytype.robofont.Image.Contrast = 1;
com.typemytype.robofont.Image.Saturation = 1;
com.typemytype.robofont.Image.Sharpness = 0.4;
};
vertWidth = 0;
width = 519;
},
{
layerId = master01;
shapes = (
{
closed = 1;
nodes = (
(277.449,-261,o),
(293.449,-245,o),
(297.449,-227,cs),
(299.449,-213,o),
(293.449,-199,o),
(269.449,-189,cs),
(154.449,-140,o),
(109.449,-21,o),
(148.449,176,cs),
(194.449,404,o),
(334.449,600,o),
(474.449,746,cs),
(488.449,761,o),
(493.449,768,o),
(494.449,776,cs),
(498.449,794,o),
(489.449,811,o),
(466.449,811,cs),
(454,811,o),
(437,808,o),
(420,790,cs),
(270,633,o),
(129,433,o),
(80,191,cs),
(32,-49,o),
(95,-195,o),
(219.449,-249,cs),
(241.449,-259,o),
(248.449,-261,o),
(264.449,-261,cs)
);
}
);
vertWidth = 0;
width = 421;
},
{
layerId = "FAD04859-55EE-48D6-A0AA-73DE2A79512F";
shapes = (
{
closed = 1;
nodes = (
(333,-263,o),
(374,-239,o),
(383,-190,cs),
(389,-159,o),
(378,-135,o),
(337,-120,cs),
(230,-80,o),
(179.601,32.029,o),
(212,196,cs),
(248.796,378.102,o),
(378.523,532.461,o),
(498,647,cs),
(529.919,676.718,o),
(541,698,o),
(546,721,cs),
(554,765,o),
(518,811,o),
(463,811,cs),
(435,811,o),
(403,803,o),
(366,767,cs),
(214,621,o),
(81.849,432.401,o),
(42,236,cs),
(-10.104,-24.518,o),
(74,-184,o),
(196,-242,cs),
(237,-261,o),
(256.416,-263,o),
(277.416,-263,cs)
);
}
);
vertWidth = 0;
width = 499;
},
{
layerId = "0998268F-450B-429A-9175-FFA5E463F4E3";
shapes = (
{
closed = 1;
nodes = (
(277.449,-261,o),
(293.449,-245,o),
(297.449,-227,cs),
(299.449,-213,o),
(293.449,-199,o),
(269.449,-189,cs),
(154.449,-140,o),
(109.449,-21,o),
(148.449,176,cs),
(194.449,404,o),
(334.449,600,o),
(474.449,746,cs),
(488.449,761,o),
(493.449,768,o),
(494.449,776,cs),
(498.449,794,o),
(489.449,811,o),
(466.449,811,cs),
(454,811,o),
(437,808,o),
(420,790,cs),
(270,633,o),
(129,433,o),
(80,191,cs),
(32,-49,o),
(95,-195,o),
(219.449,-249,cs),
(241.449,-259,o),
(248.449,-261,o),
(264.449,-261,cs)
);
}
);
vertWidth = 0;
width = 421;
},
{
background = {
shapes = (
{
closed = 1;
nodes = (
(549.417,683,o),
(562.417,700,o),
(566.417,720,cs),
(575.417,765,o),
(538.417,811,o),
(493.417,811,cs),
(468.417,811,o),
(441.417,801,o),
(413.417,773,cs),
(253.417,620,o),
(101.417,418,o),
(54.417,186,cs),
(5.417,-59,o),
(97.417,-187,o),
(220.417,-243,cs),
(262.417,-261,o),
(276.417,-263,o),
(297.417,-263,cs),
(343.417,-263,o),
(401.417,-232,o),
(410.417,-183,cs),
(417.417,-152,o),
(403.417,-139,o),
(362.417,-124,cs),
(250.417,-84,o),
(198.417,24,o),
(230.417,186,cs),
(268.417,376,o),
(397.417,538,o),
(520.417,656,cs)
);
}
);
};
layerId = "60E1EE18-36F5-475C-BAEC-6556E4A9959C";
shapes = (
{
closed = 1;
nodes = (
(333,-263,o),
(374,-239,o),
(383,-190,cs),
(389,-159,o),
(378,-135,o),
(337,-120,cs),
(230,-80,o),
(179.601,32.029,o),
(212,196,cs),
(248.796,378.102,o),
(378.523,532.461,o),
(498,647,cs),
(529.919,676.718,o),
(541,698,o),
(546,721,cs),
(554,765,o),
(518,811,o),
(463,811,cs),
(435,811,o),
(403,803,o),
(366,767,cs),
(214,621,o),
(81.849,432.401,o),
(42,236,cs),
(-10.104,-24.518,o),
(74,-184,o),
(196,-242,cs),
(237,-261,o),
(256.416,-263,o),
(277.416,-263,cs)
);
}
);
vertWidth = 0;
width = 499;
},
{
associatedMasterId = "FA16BA0A-39E2-4955-BC33-721AB190E0D3";
layerId = "87234B38-16F4-4CA1-8928-84317B013084";
name = bg;
shapes = (
{
closed = 0;
nodes = (
(323,765,l),
(185,621,o),
(97,402,o),
(97,161,cs),
(97,-69,o),
(256,-212,o),
(443,-244,c)
);
},
{
closed = 0;
nodes = (
(353,724,l),
(231,579,o),
(127,397,o),
(127,186,cs),
(127,-10,o),
(206,-123,o),
(356,-175,c)
);
}
);
vertWidth = 0;
width = 499;
},
{
associatedMasterId = "5DCC2EB0-DF11-4824-93BF-E616AA6EE2C6";
layerId = "E61385E5-7ADA-4F99-8C00-F0CD171F640D";
name = bg;
shapes = (
{
closed = 0;
nodes = (
(323,765,l),
(185,621,o),
(97,402,o),
(97,161,cs),
(97,-69,o),
(256,-212,o),
(443,-244,cs)
);
},
{
closed = 0;
nodes = (
(353,724,l),
(231,579,o),
(127,397,o),
(127,186,cs),
(127,-10,o),
(206,-123,o),
(356,-175,cs)
);
}
);
vertWidth = 0;
width = 519;
}
);
unicode = 40;
userData = {
KernOnSpecialSpacing = {
L = NoKerning;
R = parenthesis;
};
};
}
{
color = 4;
glyphname = period;
kernLeft = KO_period;
kernRight = KO_period;
layers = (
{
layerId = "DC44E50C-9AA1-421C-802C-D4D023281425";
shapes = (
{
closed = 1;
nodes = (
(169,-10,o),
(182,16,o),
(182,41,cs),
(182,76,o),
(153,119,o),
(105,119,cs),
(79,119,o),
(57,99,o),
(57,71,cs),
(57,30,o),
(93,-10,o),
(135,-10,cs)
);
}
);
vertWidth = 0;
width = 239;
},
{
layerId = "FA16BA0A-39E2-4955-BC33-721AB190E0D3";
shapes = (
{
closed = 1;
nodes = (
(251,-16,o),
(284,18,o),
(284,65,cs),
(284,128,o),
(243,197,o),
(139,197,cs),
(80,197,o),
(45,159,o),
(45,101,cs),
(45,22,o),
(93,-16,o),
(187,-16,cs)
);
}
);
vertWidth = 0;
width = 329;
},
{
layerId = "365BB766-143C-4A52-A3A9-25E29A0F4411";
shapes = (
{
closed = 1;
nodes = (
(179,-10,o),
(192,16,o),
(192,41,cs),
(192,76,o),
(163,119,o),
(115,119,cs),
(89,119,o),
(67,99,o),
(67,71,cs),
(67,30,o),
(103,-10,o),
(145,-10,cs)
);
}
);
vertWidth = 0;
width = 259;
},
{
layerId = "5DCC2EB0-DF11-4824-93BF-E616AA6EE2C6";
shapes = (
{
closed = 1;
nodes = (
(234.386,-16,o),
(274,36.63,o),
(274,97,cs),
(274,152.786,o),
(247.138,207,o),
(179,207,cs),
(110.404,207,o),
(55,166,o),
(55,91,cs),
(55,22,o),
(89.607,-16,o),
(157,-16,cs)
);
}
);
vertWidth = 0;
width = 329;
},
{
layerId = master01;
shapes = (
{
closed = 1;
nodes = (
(128.365,-10,o),
(146.365,16,o),
(151.365,41,cs),
(158.365,76,o),
(138.365,119,o),
(90.365,119,cs),
(64.365,119,o),
(38.365,99,o),
(32.365,71,cs),
(24.365,30,o),
(52.365,-10,o),
(94.365,-10,cs)
);
}
);
vertWidth = 0;
width = 259;
},
{
layerId = "FAD04859-55EE-48D6-A0AA-73DE2A79512F";
shapes = (
{
closed = 1;
nodes = (
(196.38,-16,o),
(236.38,18,o),
(245.38,65,cs),
(258.38,128,o),
(230.38,197,o),
(126.38,197,cs),
(67.38,197,o),
(25.38,159,o),
(13.38,101,cs),
(-2.62,22,o),
(38.38,-16,o),
(132.38,-16,cs)
);
}
);
vertWidth = 0;
width = 329;
},
{
layerId = "0998268F-450B-429A-9175-FFA5E463F4E3";
shapes = (
{
closed = 1;
nodes = (
(128.365,-10,o),
(146.365,16,o),
(151.365,41,cs),
(158.365,76,o),
(138.365,119,o),
(90.365,119,cs),
(64.365,119,o),
(38.365,99,o),
(32.365,71,cs),
(24.365,30,o),
(52.365,-10,o),
(94.365,-10,cs)
);
}
);
vertWidth = 0;
width = 259;
},
{
layerId = "60E1EE18-36F5-475C-BAEC-6556E4A9959C";
shapes = (
{
closed = 1;
nodes = (
(196.38,-16,o),
(236.38,18,o),
(245.38,65,cs),
(258.38,128,o),
(230.38,197,o),
(126.38,197,cs),
(67.38,197,o),
(25.38,159,o),
(13.38,101,cs),
(-2.62,22,o),
(38.38,-16,o),
(132.38,-16,cs)
);
}
);
vertWidth = 0;
width = 329;
},
{
associatedMasterId = "5DCC2EB0-DF11-4824-93BF-E616AA6EE2C6";
layerId = "E61385E5-7ADA-4F99-8C00-F0CD171F640D";
name = bg;
shapes = (
{
closed = 1;
nodes = (
(251,-16,o),
(284,18,o),
(284,57,cs),
(284,128,o),
(243,197,o),
(139,197,cs),
(87,197,o),
(45,163,o),
(45,101,cs),
(45,22,o),
(93,-16,o),
(187,-16,cs)
);
}
);
vertWidth = 0;
width = 329;
}
);
unicode = 46;
userData = {
KernOnSpecialSpacing = {
L = period;
R = period;
};
};
}
{
color = 4;
glyphname = one;
kernLeft = KO_one;
kernRight = KO_one;
layers = (
{
background = {
shapes = (
{
closed = 1;
nodes = (
(201,628,o),
(239,649,o),
(296,691,cs),
(314,704,o),
(330,707,o),
(343,707,cs),
(366,707,o),
(380,690,o),
(380,663,cs),
(380,619,o),
(329,387,o),
(329,21,cs),
(329,3,o),
(318,-12,o),
(300,-12,cs),
(276,-12,o),
(262,2,o),
(262,29,cs),
(262,225,o),
(277,464,o),
(309,651,c),
(334,635,l),
(243,568,o),
(199,556,o),
(170,556,cs),
(147,556,o),
(130,568,o),
(130,592,cs),
(130,608,o),
(139,615,o),
(157,619,cs)
);
},
{
closed = 1;
nodes = (
(202,446,o),
(198,301,o),
(198,29,cs),
(198,2,o),
(212,-12,o),
(236,-12,cs),
(254,-12,o),
(265,3,o),
(265,21,cs),
(265,435,o),
(285,619,o),
(286,663,cs),
(287,697,o),
(273,709,o),
(254,709,cs),
(224,709,o),
(197,689,o),
(127,635,cs),
(86,604,o),
(79,589,o),
(79,571,cs),
(79,554,o),
(90,543,o),
(105,543,cs),
(132,543,o),
(150,571,o),
(237,630,c),
(216,630,l)
);
}
);
};
layerId = "DC44E50C-9AA1-421C-802C-D4D023281425";
shapes = (
{
closed = 1;
nodes = (
(259,387,o),
(310,619,o),
(310,663,cs),
(310,690,o),
(296,707,o),
(273,707,cs),
(260,707,o),
(244,704,o),
(226,691,cs),
(169,649,o),
(131,628,o),
(87,619,cs),
(69,615,o),
(60,608,o),
(60,592,cs),
(60,568,o),
(77,556,o),
(100,556,cs),
(129,556,o),
(173,568,o),
(264,635,c),
(239,651,l),
(207,464,o),
(192,225,o),
(192,29,cs),
(192,2,o),
(206,-12,o),
(230,-12,cs),
(248,-12,o),
(259,3,o),
(259,21,cs)
);
}
);
vertWidth = 0;
width = 405;
},
{
background = {
shapes = (
{
closed = 1;
nodes = (
(234,398,o),
(229,246,o),
(229,96,cs),
(229,27,o),
(266,-11,o),
(326,-11,cs),
(376,-11,o),
(404,21,o),
(401,96,cs),
(388,440,o),
(409,562,o),
(409,617,cs),
(409,667,o),
(366,709,o),
(304,709,cs),
(244,709,o),
(201,682,o),
(124,631,cs),
(86,606,o),
(74,578,o),
(74,541,cs),
(74,503,o),
(99,473,o),
(133,473,cs),
(165,473,o),
(195,480,o),
(263,533,c),
(244,527,l)
);
}
);
};
layerId = "FA16BA0A-39E2-4955-BC33-721AB190E0D3";
shapes = (
{
closed = 1;
nodes = (
(371,120,o),
(360,369,o),
(416,579,cs),
(438,650,o),
(386,716,o),
(314,716,cs),
(282,716,o),
(260,703,o),
(241,686,cs),
(208,656,o),
(165,627,o),
(110,621,cs),
(59,615,o),
(38,587,o),
(38,554,cs),
(38,508,o),
(70,461,o),
(140,461,cs),
(185,461,o),
(238,481,o),
(267,509,c),
(235,537,l),
(214,401,o),
(199,243,o),
(199,96,cs),
(199,27,o),
(236,-11,o),
(296,-11,cs),
(346,-11,o),
(371,18,o),
(371,86,cs)
);
}
);
vertWidth = 0;
width = 467;
},
{
background = {
shapes = (
{
closed = 1;
nodes = (
(123,628,o),
(161,649,o),
(218,691,cs),
(236,704,o),
(252,707,o),
(265,707,cs),
(288,707,o),
(302,690,o),
(302,663,cs),
(302,619,o),
(251,387,o),
(251,21,cs),
(251,3,o),
(240,-12,o),
(222,-12,cs),
(198,-12,o),
(184,2,o),
(184,29,cs),
(184,225,o),
(199,464,o),
(231,651,c),
(256,635,l),
(165,568,o),
(121,556,o),
(92,556,cs),
(69,556,o),
(52,568,o),
(52,592,cs),
(52,608,o),
(61,615,o),
(79,619,cs)
);
},
{
closed = 1;
nodes = (
(176,78,o),
(187,93,o),
(187,111,cs),
(187,428,o),
(208,569,o),
(208,603,cs),
(208,632,o),
(197,647,o),
(176,647,cs),
(152,647,o),
(144,634,o),
(141,602,cs),
(129,453,o),
(120,338,o),
(120,119,cs),
(120,92,o),
(134,78,o),
(158,78,cs)
);
},
{
closed = 1;
nodes = (
(184,426,o),
(180,320,o),
(180,122,cs),
(180,93,o),
(195,78,o),
(222,78,cs),
(238,78,o),
(248,92,o),
(248,109,cs),
(248,421,o),
(267,556,o),
(268,593,cs),
(269,617,o),
(256,639,o),
(229,639,cs),
(209,639,o),
(165,614,o),
(76,545,cs),
(35,514,o),
(28,499,o),
(28,481,cs),
(28,464,o),
(39,453,o),
(54,453,cs),
(88,453,o),
(110,487,o),
(219,563,c),
(198,560,l)
);
}
);
};
layerId = "365BB766-143C-4A52-A3A9-25E29A0F4411";
shapes = (
{
closed = 1;
nodes = (
(259,419,o),
(310,556,o),
(310,593,cs),
(310,620,o),
(296,637,o),
(273,637,cs),
(260,637,o),
(244,634,o),
(226,621,cs),
(169,579,o),
(131,558,o),
(87,549,cs),
(69,545,o),
(60,538,o),
(60,522,cs),
(60,498,o),
(77,486,o),
(100,486,cs),
(129,486,o),
(173,498,o),
(264,565,c),
(239,581,l),
(207,424,o),
(192,283,o),
(192,119,cs),
(192,92,o),
(206,78,o),
(230,78,cs),
(248,78,o),
(259,93,o),
(259,111,cs)
);
}
);
vertWidth = 0;
width = 350;
},
{
background = {
shapes = (
{
closed = 1;
nodes = (
(347,49,o),
(375,78,o),
(372,146,cs),
(362,396,o),
(382,485,o),
(382,525,cs),
(382,606,o),
(351,646,o),
(285,646,cs),
(234,646,o),
(217,611,o),
(214,561,cs),
(207,440,o),
(200,297,o),
(200,156,cs),
(200,87,o),
(237,49,o),
(298,49,cs)
);
},
{
closed = 1;
nodes = (
(195,371,o),
(190,269,o),
(190,169,cs),
(190,100,o),
(231,62,o),
(297,62,cs),
(341,62,o),
(365,91,o),
(362,159,cs),
(352,415,o),
(370,500,o),
(370,547,cs),
(370,590,o),
(328,639,o),
(276,639,cs),
(236,639,o),
(163,602,o),
(87,546,cs),
(52,520,o),
(43,490,o),
(43,453,cs),
(43,415,o),
(65,385,o),
(96,385,cs),
(128,385,o),
(157,394,o),
(224,443,c),
(205,457,l)
);
}
);
};
layerId = "5DCC2EB0-DF11-4824-93BF-E616AA6EE2C6";
shapes = (
{
closed = 1;
nodes = (
(384,175,o),
(380,327,o),
(429,509,cs),
(451,580,o),
(399,646,o),
(327,646,cs),
(295,646,o),
(273,633,o),
(254,616,cs),
(221,586,o),
(178,557,o),
(123,551,cs),
(72,545,o),
(51,517,o),
(51,484,cs),
(51,438,o),
(83,391,o),
(153,391,cs),
(198,391,o),
(251,411,o),
(280,439,c),
(248,467,l),
(227,353,o),
(212,279,o),
(212,156,cs),
(212,87,o),
(249,49,o),
(309,49,cs),
(359,49,o),
(384,78,o),
(384,146,cs)
);
}
);
vertWidth = 0;
width = 452;
},
{
layerId = master01;
shapes = (
{
closed = 1;
nodes = (
(301,387,o),
(386,619,o),
(394,663,cs),
(400,690,o),
(389,707,o),
(366,707,cs),
(353,707,o),
(337,704,o),
(316,691,cs),
(251,649,o),
(209,628,o),
(163,619,cs),
(144,615,o),
(134,608,o),
(130,592,cs),
(126,565,o),
(142,552,o),
(167,552,cs),
(196,552,o),
(243,564,o),
(347,631,c),
(321,651,l),
(252,464,o),
(210,225,o),
(171,29,cs),
(166,2,o),
(177,-12,o),
(201,-12,cs),
(219,-12,o),
(233,3,o),
(236,21,cs)
);
}
);
vertWidth = 0;
width = 405;
},
{
background = {
shapes = (
{
closed = 1;
nodes = (
(271,-11,o),
(305,18,o),
(315,86,cs),
(369,422,o),
(416,541,o),
(427,595,cs),
(443,676,o),
(420,716,o),
(354,716,cs),
(303,716,o),
(279,681,o),
(266,631,cs),
(225,471,o),
(182,282,o),
(145,96,cs),
(131,27,o),
(161,-11,o),
(222,-11,cs)
);
}
);
};
layerId = "FAD04859-55EE-48D6-A0AA-73DE2A79512F";
shapes = (
{
closed = 1;
nodes = (
(325,120,o),
(362,362,o),
(453,576,c),
(487,650,o),
(448,716,o),
(376,716,cs),
(344,716,o),
(319,703,o),
(297,686,cs),
(258,656,o),
(209,627,o),
(153,621,cs),
(101,615,o),
(74,587,o),
(68,554,cs),
(58,505,o),
(81,455,o),
(151,455,cs),
(196,455,o),
(253,475,o),
(288,503,c),
(262,537,l),
(217,401,o),
(177,243,o),
(148,96,cs),
(135,27,o),
(164,-11,o),
(224,-11,cs),
(274,-11,o),
(305,18,o),
(318,86,cs)
);
}
);
vertWidth = 0;
width = 420;
},
{
layerId = "0998268F-450B-429A-9175-FFA5E463F4E3";
shapes = (
{
closed = 1;
nodes = (
(271,419,o),
(349,556,o),
(357,593,cs),
(362,620,o),
(351,637,o),
(328,637,cs),
(315,637,o),
(299,634,o),
(278,621,cs),
(213,579,o),
(171,558,o),
(125,549,cs),
(106,545,o),
(96,538,o),
(93,522,cs),
(87,496,o),
(104,483,o),
(128,483,cs),
(157,483,o),
(204,495,o),
(308,562,c),
(283,581,l),
(220,424,o),
(177,283,o),
(145,119,cs),
(139,92,o),
(151,78,o),
(175,78,cs),
(193,78,o),
(207,93,o),
(210,111,cs)
);
}
);
vertWidth = 0;
width = 330;
},
{
background = {
shapes = (
{
closed = 1;
nodes = (
(287,49,o),
(321,78,o),
(331,146,cs),
(372,396,o),
(409,485,o),
(417,525,cs),
(433,606,o),
(410,646,o),
(344,646,cs),
(293,646,o),
(269,611,o),
(256,561,cs),
(225,440,o),
(189,297,o),
(161,156,cs),
(147,87,o),
(177,49,o),
(238,49,cs)
);
}
);
};
layerId = "60E1EE18-36F5-475C-BAEC-6556E4A9959C";
shapes = (
{
closed = 1;
nodes = (
(355,175,o),
(380,324,o),
(459,509,cs),
(490,581,o),
(456,646,o),
(384,646,cs),
(352,646,o),
(328,633,o),
(305,616,cs),
(266,586,o),
(217,557,o),
(161,551,cs),
(109,545,o),
(83,517,o),
(76,484,cs),
(66,435,o),
(90,385,o),
(160,385,cs),
(205,385,o),
(262,405,o),
(296,433,c),
(270,467,l),
(229,353,o),
(203,279,o),
(179,156,cs),
(165,87,o),
(195,49,o),
(255,49,cs),
(305,49,o),
(336,78,o),
(349,146,cs)
);
}
);
vertWidth = 0;
width = 430;
},
{
associatedMasterId = "FA16BA0A-39E2-4955-BC33-721AB190E0D3";
layerId = "87234B38-16F4-4CA1-8928-84317B013084";
name = bg;
shapes = (
{
closed = 1;
nodes = (
(126,649,o),
(151,662,o),
(180,687,cs),
(199,703,o),
(221,716,o),
(253,716,cs),
(325,716,o),
(377,650,o),
(356,580,cs),
(298,360,o),
(311,101,o),
(311,56,cs),
(311,18,o),
(285,-11,o),
(236,-11,cs),
(175,-11,o),
(138,36,o),
(138,96,cs),
(138,244,o),
(152,401,o),
(174,537,c),
(201,511,l),
(175,489,o),
(148,475,o),
(118,475,cs),
(49,475,o),
(18,520,o),
(18,564,cs),
(18,598,o),
(34,624,o),
(88,639,cs)
);
}
);
vertWidth = 0;
width = 310;
},
{
associatedMasterId = "5DCC2EB0-DF11-4824-93BF-E616AA6EE2C6";
layerId = "E61385E5-7ADA-4F99-8C00-F0CD171F640D";
name = bg;
shapes = (
{
closed = 1;
nodes = (
(126,649,o),
(151,662,o),
(180,687,cs),
(199,703,o),
(221,716,o),
(253,716,cs),
(325,716,o),
(377,650,o),
(356,580,cs),
(298,360,o),
(311,101,o),
(311,56,cs),
(311,18,o),
(285,-11,o),
(236,-11,cs),
(175,-11,o),
(138,36,o),
(138,96,cs),
(138,244,o),
(152,401,o),
(174,537,c),
(201,511,l),
(175,489,o),
(148,475,o),
(118,475,cs),
(49,475,o),
(18,520,o),
(18,564,cs),
(18,598,o),
(34,624,o),
(88,639,cs)
);
}
);
vertWidth = 0;
width = 310;
}
);
unicode = 49;
}
{
color = 4;
glyphname = less;
layers = (
{
layerId = "DC44E50C-9AA1-421C-802C-D4D023281425";
shapes = (
{
closed = 1;
nodes = (
(571,74,o),
(592,89,o),
(592,114,cs),
(592,126,o),
(584,136,o),
(562,140,cs),
(396.262,166.479,o),
(230,230,o),
(166,301,c),
(159,264,l),
(260,339,o),
(413.212,396.603,o),
(521,426,cs),
(548,434,o),
(556,446,o),
(556,458,cs),
(556,478,o),
(544,494,o),
(522,494,cs),
(510,494,o),
(501,495,o),
(465,484,cs),
(362,457,o),
(187,380,o),
(124,325,cs),
(107,311,o),
(105,299,o),
(105,289,cs),
(105,274,o),
(109,264,o),
(122,247,cs),
(170,185,o),
(342,108,o),
(497,81,cs),
(535,75,o),
(543,74,o),
(553,74,cs)
);
}
);
vertWidth = 0;
width = 700;
},
{
guides = (
{
name = " [#VLAmwIKhLM]";
pos = (161,361);
}
);
layerId = "FA16BA0A-39E2-4955-BC33-721AB190E0D3";
shapes = (
{
closed = 1;
nodes = (
(632,86,o),
(675,112,o),
(675,163,cs),
(675,219.312,o),
(641,238,o),
(578,246,cs),
(424,268,o),
(305,302,o),
(213,373,c),
(213,304,l),
(301,361,o),
(422,409,o),
(561,445,cs),
(624,462,o),
(645,471.5,o),
(645,521,cs),
(645,572,o),
(605,615,o),
(532,615,cs),
(508,615,o),
(485,612,o),
(449,601,cs),
(336,567,o),
(174,503,o),
(75,426,cs),
(41,400,o),
(31,376,o),
(31,351,cs),
(31,321,o),
(44,294,o),
(72,269,cs),
(166,185,o),
(303,125,o),
(486,96,cs),
(525,89,o),
(550,86,o),
(591,86,cs)
);
}
);
vertWidth = 0;
width = 700;
},
{
layerId = "365BB766-143C-4A52-A3A9-25E29A0F4411";
shapes = (
{
closed = 1;
nodes = (
(571,74,o),
(592,89,o),
(592,114,cs),
(592,126,o),
(584,136,o),
(562,140,cs),
(396.262,166.479,o),
(230,230,o),
(166,301,c),
(159,264,l),
(260,339,o),
(413.212,396.603,o),
(521,426,cs),
(548,434,o),
(556,446,o),
(556,458,cs),
(556,478,o),
(544,494,o),
(522,494,cs),
(510,494,o),
(501,495,o),
(465,484,cs),
(362,457,o),
(187,380,o),
(124,325,cs),
(107,311,o),
(105,299,o),
(105,289,cs),
(105,274,o),
(109,264,o),
(122,247,cs),
(170,185,o),
(342,108,o),
(497,81,cs),
(535,75,o),
(543,74,o),
(553,74,cs)
);
}
);
vertWidth = 0;
width = 700;
},
{
guides = (
{
name = " [#VLAmwIKhLM]";
pos = (161,361);
}
);
layerId = "5DCC2EB0-DF11-4824-93BF-E616AA6EE2C6";
shapes = (
{
closed = 1;
nodes = (
(632,86,o),
(675,112,o),
(675,163,cs),
(675,219.312,o),
(641,238,o),
(578,246,cs),
(424,268,o),
(305,302,o),
(213,373,c),
(213,304,l),
(301,361,o),
(422,409,o),
(561,445,cs),
(624,462,o),
(645,471.5,o),
(645,521,cs),
(645,572,o),
(605,615,o),
(532,615,cs),
(508,615,o),
(485,612,o),
(449,601,cs),
(336,567,o),
(174,503,o),
(75,426,cs),
(41,400,o),
(31,376,o),
(31,351,cs),
(31,321,o),
(44,294,o),
(72,269,cs),
(166,185,o),
(303,125,o),
(486,96,cs),
(525,89,o),
(550,86,o),
(591,86,cs)
);
}
);
vertWidth = 0;
width = 700;
},
{
layerId = master01;
shapes = (
{
closed = 1;
nodes = (
(537.3,74,o),
(562,87,o),
(566,110,cs),
(568,122,o),
(562,133,o),
(541,137,cs),
(381,163,o),
(227,227,o),
(177,298,c),
(163,261,l),
(279,336,o),
(444,394,o),
(557,423,cs),
(586,431,o),
(596,445,o),
(599.3,458,cs),
(603.3,478,o),
(594.3,494,o),
(572.3,494,cs),
(560.3,494,o),
(551.3,495,o),
(513.3,484,cs),
(404.3,457,o),
(214.3,380,o),
(140.3,325,cs),
(120.3,311,o),
(116.3,299,o),
(114.3,289,cs),
(111.3,274,o),
(113.3,264,o),
(122.3,247,cs),
(158.3,185,o),
(315.3,108,o),
(464.3,81,cs),
(501.3,75,o),
(509.3,74,o),
(519.3,74,cs)
);
}
);
vertWidth = 0;
width = 700;
},
{
guides = (
{
name = " [#VLAmwIKhLM]";
pos = (111.8,361);
}
);
layerId = "FAD04859-55EE-48D6-A0AA-73DE2A79512F";
shapes = (
{
closed = 1;
nodes = (
(599.182,86,o),
(648.439,113.398,o),
(660,167,cs),
(671,223,o),
(641,242,o),
(579,250,cs),
(430,272,o),
(317,306,o),
(240,377,c),
(226,308,l),
(325,365,o),
(456,413,o),
(602,449,cs),
(668,466,o),
(691,476,o),
(701,525,cs),
(710.603,573.977,o),
(679.312,615,o),
(603.919,615,cs),
(579.919,615,o),
(555.919,612,o),
(517.919,601,cs),
(397.919,567,o),
(223.919,503,o),
(108.919,426,cs),
(69.919,400,o),
(54.919,376,o),
(49.919,351,cs),
(43.919,321,o),
(51.919,294,o),
(74.919,269,cs),
(151.919,185,o),
(276.919,125,o),
(453.919,96,cs),
(491.919,89,o),
(515.919,86,o),
(556.919,86,cs)
);
}
);
vertWidth = 0;
width = 700;
},
{
layerId = "0998268F-450B-429A-9175-FFA5E463F4E3";
shapes = (
{
closed = 1;
nodes = (
(537.3,74,o),
(562,87,o),
(566,110,cs),
(568,122,o),
(562,133,o),
(541,137,cs),
(381,163,o),
(227,227,o),
(177,298,c),
(163,261,l),
(279,336,o),
(444,394,o),
(557,423,cs),
(586,431,o),
(596,445,o),
(599.3,458,cs),
(603.3,478,o),
(594.3,494,o),
(572.3,494,cs),
(560.3,494,o),
(551.3,495,o),
(513.3,484,cs),
(404.3,457,o),
(214.3,380,o),
(140.3,325,cs),
(120.3,311,o),
(116.3,299,o),
(114.3,289,cs),
(111.3,274,o),
(113.3,264,o),
(122.3,247,cs),
(158.3,185,o),
(315.3,108,o),
(464.3,81,cs),
(501.3,75,o),
(509.3,74,o),
(519.3,74,cs)
);
}
);
vertWidth = 0;
width = 700;
},
{
guides = (
{
name = " [#VLAmwIKhLM]";
pos = (111.8,361);
}
);
layerId = "60E1EE18-36F5-475C-BAEC-6556E4A9959C";
shapes = (
{
closed = 1;
nodes = (
(599.182,86,o),
(648.439,113.398,o),
(660,167,cs),
(671,223,o),
(641,242,o),
(579,250,cs),
(430,272,o),
(317,306,o),
(240,377,c),
(226,308,l),
(325,365,o),
(456,413,o),
(602,449,cs),
(668,466,o),
(691,476,o),
(701,525,cs),
(710.603,573.977,o),
(679.312,615,o),
(603.919,615,cs),
(579.919,615,o),
(555.919,612,o),
(517.919,601,cs),
(397.919,567,o),
(223.919,503,o),
(108.919,426,cs),
(69.919,400,o),
(54.919,376,o),
(49.919,351,cs),
(43.919,321,o),
(51.919,294,o),
(74.919,269,cs),
(151.919,185,o),
(276.919,125,o),
(453.919,96,cs),
(491.919,89,o),
(515.919,86,o),
(556.919,86,cs)
);
}
);
vertWidth = 0;
width = 700;
},
{
associatedMasterId = "FA16BA0A-39E2-4955-BC33-721AB190E0D3";
layerId = "87234B38-16F4-4CA1-8928-84317B013084";
name = bg;
shapes = (
{
closed = 0;
nodes = (
(410,561,l),
(316,522,o),
(184,428,o),
(118,362,c),
(162,278,o),
(302,188,o),
(436,160,c)
);
},
{
closed = 0;
nodes = (
(438,360,l),
(471,353,o),
(541,352,o),
(600,361,c)
);
},
{
closed = 1;
nodes = (
(331,420,o),
(245,349,o),
(201,304,c),
(201,393,l),
(236,325,o),
(353,258,o),
(459,236,cs),
(505,226,o),
(539,204,o),
(539,160,cs),
(539,95,o),
(497,62,o),
(441,62,cs),
(435,62,o),
(429,63,o),
(400,70,cs),
(261,101,o),
(98,211,o),
(45,311,cs),
(38,324,o),
(35,338,o),
(35,351,cs),
(35,374,o),
(44,397,o),
(61,414,cs),
(133,487,o),
(278,590,o),
(364,625,cs),
(392,636,o),
(403,638,o),
(421,638,cs),
(473,638,o),
(514,601,o),
(514,544,cs),
(514,512,o),
(496,490,o),
(449,470,cs)
);
},
{
closed = 1;
nodes = (
(491,438,o),
(502,434,o),
(515,434,cs),
(536,434,o),
(559,438,o),
(582,438,cs),
(636,438,o),
(682,405,o),
(682,344,cs),
(682,302,o),
(655,271,o),
(608,264,cs),
(579,259,o),
(547,258,o),
(518,258,cs),
(492,258,o),
(470,263,o),
(455,266,cs),
(402,277,o),
(378,313,o),
(378,355,cs),
(378,416,o),
(435,438,o),
(469,438,cs)
);
}
);
vertWidth = 0;
width = 700;
},
{
associatedMasterId = "5DCC2EB0-DF11-4824-93BF-E616AA6EE2C6";
layerId = "E61385E5-7ADA-4F99-8C00-F0CD171F640D";
name = bg;
shapes = (
{
closed = 0;
nodes = (
(410,561,l),
(316,522,o),
(184,428,o),
(118,362,c),
(162,278,o),
(302,188,o),
(436,160,cs)
);
},
{
closed = 0;
nodes = (
(438,360,l),
(471,353,o),
(541,352,o),
(600,361,c)
);
},
{
closed = 1;
nodes = (
(331,420,o),
(245,349,o),
(201,304,c),
(201,393,l),
(236,325,o),
(353,258,o),
(459,236,cs),
(505,226,o),
(539,204,o),
(539,160,cs),
(539,95,o),
(497,62,o),
(441,62,cs),
(435,62,o),
(429,63,o),
(400,70,cs),
(261,101,o),
(98,211,o),
(45,311,cs),
(38,324,o),
(35,338,o),
(35,351,cs),
(35,374,o),
(44,397,o),
(61,414,cs),
(133,487,o),
(278,590,o),
(364,625,cs),
(392,636,o),
(403,638,o),
(421,638,cs),
(473,638,o),
(514,601,o),
(514,544,cs),
(514,512,o),
(496,490,o),
(449,470,cs)
);
},
{
closed = 1;
nodes = (
(491,438,o),
(502,434,o),
(515,434,cs),
(536,434,o),
(559,438,o),
(582,438,cs),
(636,438,o),
(682,405,o),
(682,344,cs),
(682,302,o),
(655,271,o),
(608,264,cs),
(579,259,o),
(547,258,o),
(518,258,cs),
(492,258,o),
(470,263,o),
(455,266,cs),
(402,277,o),
(378,313,o),
(378,355,cs),
(378,416,o),
(435,438,o),
(469,438,cs)
);
}
);
vertWidth = 0;
width = 700;
}
);
unicode = 60;
userData = {
KernOnSpecialSpacing = {
L = NoKerning;
R = NoKerning;
};
};
}
{
color = 4;
glyphname = equal;
layers = (
{
background = {
shapes = (
{
closed = 1;
nodes = (
(199,372,o),
(130,372,cs),
(73,372,o),
(42,413,o),
(42,461,cs),
(42,496,o),
(56,523,o),
(134,535,cs),
(241,552,o),
(333,560,o),
(424,560,cs),
(575,560,o),
(644,529,o),
(644,468,cs),
(644,428,o),
(622,400,o),
(542,400,cs),
(267,400,o)
);
},
{
closed = 1;
nodes = (
(208,126,o),
(141,126,cs),
(79,126,o),
(46,167,o),
(46,216,cs),
(46,250,o),
(59,273,o),
(138,287,cs),
(272,309,o),
(391,305,o),
(509,305,cs),
(591,305,o),
(638,270,o),
(638,213,cs),
(638,175,o),
(617,148,o),
(544,148,cs),
(276,148,o)
);
}
);
};
layerId = "DC44E50C-9AA1-421C-802C-D4D023281425";
shapes = (
{
closed = 1;
nodes = (
(268,200,o),
(368,224,o),
(545,224,cs),
(570,224,o),
(580,233,o),
(580,252,cs),
(580,271,o),
(559,287,o),
(521,287,cs),
(402,287,o),
(274,270,o),
(154,239,cs),
(103,225,o),
(95,206,o),
(95,188,cs),
(95,165,o),
(115,147,o),
(168,165,cs)
);
},
{
closed = 1;
nodes = (
(289,426,o),
(381,436,o),
(567,436,cs),
(590,436,o),
(602,447,o),
(602,464,cs),
(602,484,o),
(583,499,o),
(519,499,cs),
(435,499,o),
(290,497,o),
(165,475,cs),
(112,467,o),
(96,454,o),
(96,433,cs),
(96,404,o),
(117,392,o),
(172,403,cs)
);
}
);
vertWidth = 0;
width = 700;
},
{
layerId = "FA16BA0A-39E2-4955-BC33-721AB190E0D3";
shapes = (
{
closed = 1;
nodes = (
(228,106,o),
(273,168,o),
(534,168,cs),
(607,168,o),
(628,195,o),
(628,233,cs),
(628,290,o),
(581,315,o),
(499,315,cs),
(384,315,o),
(264,299,o),
(136,271,cs),
(59,253,o),
(40,223,o),
(40,189,cs),
(40,140,o),
(79,106,o),
(141,106,cs)
);
},
{
closed = 1;
nodes = (
(207.325,372,o),
(274,400,o),
(542,400,cs),
(622,400,o),
(644,428,o),
(644,468,cs),
(644,529,o),
(575,560,o),
(424,560,cs),
(336.25,560,o),
(257.289,553.41,o),
(154,537,cs),
(76,525,o),
(52,496,o),
(52,457,cs),
(52,413,o),
(83,372,o),
(140,372,cs)
);
}
);
vertWidth = 0;
width = 700;
},
{
background = {
shapes = (
{
closed = 1;
nodes = (
(199,372,o),
(130,372,cs),
(73,372,o),
(42,413,o),
(42,461,cs),
(42,496,o),
(56,523,o),
(134,535,cs),
(241,552,o),
(333,560,o),
(424,560,cs),
(575,560,o),
(644,529,o),
(644,468,cs),
(644,428,o),
(622,400,o),
(542,400,cs),
(267,400,o)
);
},
{
closed = 1;
nodes = (
(208,126,o),
(141,126,cs),
(79,126,o),
(46,167,o),
(46,216,cs),
(46,250,o),
(59,273,o),
(138,287,cs),
(272,309,o),
(391,305,o),
(509,305,cs),
(591,305,o),
(638,270,o),
(638,213,cs),
(638,175,o),
(617,148,o),
(544,148,cs),
(276,148,o)
);
}
);
};
layerId = "365BB766-143C-4A52-A3A9-25E29A0F4411";
shapes = (
{
closed = 1;
nodes = (
(268,200,o),
(368,224,o),
(545,224,cs),
(570,224,o),
(580,233,o),
(580,252,cs),
(580,271,o),
(559,287,o),
(521,287,cs),
(402,287,o),
(274,270,o),
(154,239,cs),
(103,225,o),
(95,206,o),
(95,188,cs),
(95,165,o),
(115,147,o),
(168,165,cs)
);
},
{
closed = 1;
nodes = (
(289,426,o),
(381,436,o),
(567,436,cs),
(590,436,o),
(602,447,o),
(602,464,cs),
(602,484,o),
(583,499,o),
(519,499,cs),
(435,499,o),
(290,497,o),
(165,475,cs),
(112,467,o),
(96,454,o),
(96,433,cs),
(96,404,o),
(117,392,o),
(172,403,cs)
);
}
);
vertWidth = 0;
width = 700;
},
{
layerId = "5DCC2EB0-DF11-4824-93BF-E616AA6EE2C6";
shapes = (
{
closed = 1;
nodes = (
(228,106,o),
(273,168,o),
(534,168,cs),
(607,168,o),
(628,195,o),
(628,233,cs),
(628,290,o),
(581,315,o),
(499,315,cs),
(384,315,o),
(264,299,o),
(136,271,cs),
(59,253,o),
(40,223,o),
(40,189,cs),
(40,140,o),
(79,106,o),
(141,106,cs)
);
},
{
closed = 1;
nodes = (
(207.325,372,o),
(274,400,o),
(542,400,cs),
(622,400,o),
(644,428,o),
(644,468,cs),
(644,529,o),
(575,560,o),
(424,560,cs),
(336.25,560,o),
(257.289,553.41,o),
(154,537,cs),
(76,525,o),
(52,496,o),
(52,457,cs),
(52,413,o),
(83,372,o),
(140,372,cs)
);
}
);
vertWidth = 0;
width = 700;
},
{
layerId = master01;
shapes = (
{
closed = 1;
nodes = (
(258.862,200,o),
(363.862,224,o),
(540.862,224,cs),
(565.862,224,o),
(577.862,233,o),
(580.862,252,cs),
(584.862,271,o),
(566.862,287,o),
(528.862,287,cs),
(409.862,287,o),
(278.862,270,o),
(152.862,239,cs),
(98.862,225,o),
(86.862,206,o),
(83.862,188,cs),
(78.862,165,o),
(94.862,147,o),
(151.862,165,cs)
);
},
{
closed = 1;
nodes = (
(324.862,426,o),
(418.862,436,o),
(604.862,436,cs),
(627.862,436,o),
(641.862,447,o),
(645.862,464,cs),
(649.862,484,o),
(633.862,499,o),
(569.862,499,cs),
(485.862,499,o),
(339.862,497,o),
(210.862,475,cs),
(155.862,467,o),
(137.862,454,o),
(133.862,433,cs),
(127.862,404,o),
(145.862,392,o),
(203.862,403,cs)
);
}
);
vertWidth = 0;
width = 700;
},
{
layerId = "FAD04859-55EE-48D6-A0AA-73DE2A79512F";
shapes = (
{
closed = 1;
nodes = (
(196.806,106,o),
(254.806,168,o),
(515.807,168,cs),
(588.807,168,o),
(614.807,195,o),
(622.807,233,cs),
(633.807,290,o),
(591.807,315,o),
(509.807,315,cs),
(394.807,315,o),
(271.807,299,o),
(137.806,271,cs),
(57.806,253,o),
(32.806,223,o),
(25.806,189,cs),
(15.806,140,o),
(47.806,106,o),
(109.806,106,cs)
);
},
{
closed = 1;
nodes = (
(229.806,372,o),
(301.807,400,o),
(569.807,400,cs),
(649.807,400,o),
(677.807,428,o),
(685.807,468,cs),
(697.807,529,o),
(634.807,560,o),
(483.807,560,cs),
(395.807,560,o),
(315.807,553,o),
(208.806,537,cs),
(128.806,525,o),
(98.806,496,o),
(90.806,457,cs),
(82.806,413,o),
(104.806,372,o),
(161.806,372,cs)
);
}
);
vertWidth = 0;
width = 700;
},
{
layerId = "0998268F-450B-429A-9175-FFA5E463F4E3";
shapes = (
{
closed = 1;
nodes = (
(258.862,200,o),
(363.862,224,o),
(540.862,224,cs),
(565.862,224,o),
(577.862,233,o),
(580.862,252,cs),
(584.862,271,o),
(566.862,287,o),
(528.862,287,cs),
(409.862,287,o),
(278.862,270,o),
(152.862,239,cs),
(98.862,225,o),
(86.862,206,o),
(83.862,188,cs),
(78.862,165,o),
(94.862,147,o),
(151.862,165,cs)
);
},
{
closed = 1;
nodes = (
(324.862,426,o),
(418.862,436,o),
(604.862,436,cs),
(627.862,436,o),
(641.862,447,o),
(645.862,464,cs),
(649.862,484,o),
(633.862,499,o),
(569.862,499,cs),
(485.862,499,o),
(339.862,497,o),
(210.862,475,cs),
(155.862,467,o),
(137.862,454,o),
(133.862,433,cs),
(127.862,404,o),
(145.862,392,o),
(203.862,403,cs)
);
}
);
vertWidth = 0;
width = 700;
},
{
layerId = "60E1EE18-36F5-475C-BAEC-6556E4A9959C";
shapes = (
{
closed = 1;
nodes = (
(196.806,106,o),
(254.806,168,o),
(515.807,168,cs),
(588.807,168,o),
(614.807,195,o),
(622.807,233,cs),
(633.807,290,o),
(591.807,315,o),
(509.807,315,cs),
(394.807,315,o),
(271.807,299,o),
(137.806,271,cs),
(57.806,253,o),
(32.806,223,o),
(25.806,189,cs),
(15.806,140,o),
(47.806,106,o),
(109.806,106,cs)
);
},
{
closed = 1;
nodes = (
(229.806,372,o),
(301.807,400,o),
(569.807,400,cs),
(649.807,400,o),
(677.807,428,o),
(685.807,468,cs),
(697.807,529,o),
(634.807,560,o),
(483.807,560,cs),
(395.807,560,o),
(315.807,553,o),
(208.806,537,cs),
(128.806,525,o),
(98.806,496,o),
(90.806,457,cs),
(82.806,413,o),
(104.806,372,o),
(161.806,372,cs)
);
}
);
vertWidth = 0;
width = 700;
}
);
unicode = 61;
userData = {
KernOnSpecialSpacing = {
L = NoKerning;
R = NoKerning;
};
};
}
{
color = 4;
glyphname = greater;
layers = (
{
layerId = "DC44E50C-9AA1-421C-802C-D4D023281425";
shapes = (
{
closed = 1;
nodes = (
(179,74,o),
(190,75,o),
(226,86,cs),
(329,113,o),
(507,193,o),
(570,248,cs),
(587,262,o),
(588,270,o),
(588,280,cs),
(588,289,o),
(587,299,o),
(575,318,cs),
(534,385,o),
(349,462,o),
(194,489,cs),
(156,495,o),
(148,496,o),
(138,496,cs),
(120,496,o),
(99,481,o),
(99,456,cs),
(99,444,o),
(107,434,o),
(129,430,cs),
(295,404,o),
(469,336,o),
(525,269,c),
(532,306,l),
(432,234,o),
(278,173,o),
(170,144,cs),
(143,136,o),
(135,124,o),
(135,112,cs),
(135,92,o),
(145,74,o),
(167,74,cs)
);
}
);
vertWidth = 0;
width = 700;
},
{
layerId = "FA16BA0A-39E2-4955-BC33-721AB190E0D3";
shapes = (
{
closed = 1;
nodes = (
(198,85,o),
(221,88,o),
(257,99,cs),
(370,133,o),
(532,197,o),
(631,274,cs),
(665,300,o),
(675,324,o),
(675,349,cs),
(675,379,o),
(662,406,o),
(634,431,cs),
(540,515,o),
(403,575,o),
(220,604,cs),
(182.559,610.72,o),
(158,613,o),
(119,613,cs),
(66,613,o),
(31,585,o),
(31,537,cs),
(31,481,o),
(65,462,o),
(128,454,cs),
(282,432,o),
(401,398,o),
(493,327,c),
(493,396,l),
(405,339,o),
(284,291,o),
(145,255,cs),
(83.281,238.346,o),
(63,221.132,o),
(63,177,cs),
(63,127.085,o),
(102.292,85,o),
(174,85,cs)
);
}
);
vertWidth = 0;
width = 700;
},
{
layerId = "365BB766-143C-4A52-A3A9-25E29A0F4411";
shapes = (
{
closed = 1;
nodes = (
(179,74,o),
(190,75,o),
(226,86,cs),
(329,113,o),
(507,193,o),
(570,248,cs),
(587,262,o),
(588,270,o),
(588,280,cs),
(588,289,o),
(587,299,o),
(575,318,cs),
(534,385,o),
(349,462,o),
(194,489,cs),
(156,495,o),
(148,496,o),
(138,496,cs),
(120,496,o),
(99,481,o),
(99,456,cs),
(99,444,o),
(107,434,o),
(129,430,cs),
(295,404,o),
(469,336,o),
(525,269,c),
(532,306,l),
(432,234,o),
(278,173,o),
(170,144,cs),
(143,136,o),
(135,124,o),
(135,112,cs),
(135,92,o),
(145,74,o),
(167,74,cs)
);
}
);
vertWidth = 0;
width = 700;
},
{
layerId = "5DCC2EB0-DF11-4824-93BF-E616AA6EE2C6";
shapes = (
{
closed = 1;
nodes = (
(198,85,o),
(221,88,o),
(257,99,cs),
(370,133,o),
(532,197,o),
(631,274,cs),
(665,300,o),
(675,324,o),
(675,349,cs),
(675,379,o),
(662,406,o),
(634,431,cs),
(540,515,o),
(403,575,o),
(220,604,cs),
(182.559,610.72,o),
(158,613,o),
(119,613,cs),
(66,613,o),
(31,585,o),
(31,537,cs),
(31,481,o),
(65,462,o),
(128,454,cs),
(282,432,o),
(401,398,o),
(493,327,c),
(493,396,l),
(405,339,o),
(284,291,o),
(145,255,cs),
(83.281,238.346,o),
(63,221.132,o),
(63,177,cs),
(63,127.085,o),
(102.292,85,o),
(174,85,cs)
);
}
);
vertWidth = 0;
width = 700;
},
{
layerId = master01;
shapes = (
{
closed = 1;
nodes = (
(146.068,74,o),
(157.068,75,o),
(195.068,86,cs),
(304.068,113,o),
(498.068,193,o),
(572.068,248,cs),
(591.068,262,o),
(594.068,270,o),
(596.068,280,cs),
(598.068,289,o),
(599.068,299,o),
(591.068,318,cs),
(563.068,385,o),
(393.068,462,o),
(244.068,489,cs),
(207.068,495,o),
(199.068,496,o),
(189.068,496,cs),
(171,496,o),
(144,484,o),
(140,462,cs),
(138,449,o),
(145,437,o),
(167,433,cs),
(328,407,o),
(488,339,o),
(531,272,c),
(545,309,l),
(431,237,o),
(265,176,o),
(151,147,cs),
(122,139,o),
(112,125,o),
(109.068,112,cs),
(105.068,92,o),
(112.068,74,o),
(134.068,74,cs)
);
}
);
vertWidth = 0;
width = 700;
},
{
layerId = "FAD04859-55EE-48D6-A0AA-73DE2A79512F";
shapes = (
{
closed = 1;
nodes = (
(163.829,85,o),
(187.829,88,o),
(225.829,99,cs),
(345.829,133,o),
(519.829,197,o),
(634.829,274,cs),
(673.829,300,o),
(688.829,324,o),
(693.829,349,cs),
(699.829,379,o),
(691.829,406,o),
(668.829,431,cs),
(591.829,515,o),
(466.829,575,o),
(289.829,604,cs),
(253.829,611,o),
(229.829,613,o),
(190.829,613,cs),
(137.916,613,o),
(96.748,585.789,o),
(87,539,cs),
(76,483,o),
(106,464,o),
(168,456,cs),
(317,434,o),
(430,400,o),
(507,329,c),
(521,398,l),
(422,341,o),
(291,293,o),
(145,257,cs),
(80,240,o),
(56,223,o),
(47,179,cs),
(36.791,127.957,o),
(67.961,85,o),
(139.829,85,cs)
);
}
);
vertWidth = 0;
width = 700;
},
{
layerId = "0998268F-450B-429A-9175-FFA5E463F4E3";
shapes = (
{
closed = 1;
nodes = (
(146.068,74,o),
(157.068,75,o),
(195.068,86,cs),
(304.068,113,o),
(498.068,193,o),
(572.068,248,cs),
(591.068,262,o),
(594.068,270,o),
(596.068,280,cs),
(598.068,289,o),
(599.068,299,o),
(591.068,318,cs),
(563.068,385,o),
(393.068,462,o),
(244.068,489,cs),
(207.068,495,o),
(199.068,496,o),
(189.068,496,cs),
(171,496,o),
(144,484,o),
(140,462,cs),
(138,449,o),
(145,437,o),
(167,433,cs),
(328,407,o),
(488,339,o),
(531,272,c),
(545,309,l),
(431,237,o),
(265,176,o),
(151,147,cs),
(122,139,o),
(112,125,o),
(109.068,112,cs),
(105.068,92,o),
(112.068,74,o),
(134.068,74,cs)
);
}
);
vertWidth = 0;
width = 700;
},
{
layerId = "60E1EE18-36F5-475C-BAEC-6556E4A9959C";
shapes = (
{
closed = 1;
nodes = (
(163.829,85,o),
(187.829,88,o),
(225.829,99,cs),
(345.829,133,o),
(519.829,197,o),
(634.829,274,cs),
(673.829,300,o),
(688.829,324,o),
(693.829,349,cs),
(699.829,379,o),
(691.829,406,o),
(668.829,431,cs),
(591.829,515,o),
(466.829,575,o),
(289.829,604,cs),
(253.829,611,o),
(229.829,613,o),
(190.829,613,cs),
(137.916,613,o),
(96.748,585.789,o),
(87,539,cs),
(76,483,o),
(106,464,o),
(168,456,cs),
(317,434,o),
(430,400,o),
(507,329,c),
(521,398,l),
(422,341,o),
(291,293,o),
(145,257,cs),
(80,240,o),
(56,223,o),
(47,179,cs),
(36.791,127.957,o),
(67.961,85,o),
(139.829,85,cs)
);
}
);
vertWidth = 0;
width = 700;
}
);
unicode = 62;
userData = {
KernOnSpecialSpacing = {
L = NoKerning;
R = NoKerning;
};
};
}
{
color = 4;
glyphname = B;
kernLeft = KO_B;
kernRight = KO_B;
layers = (
{
anchors = (
{
name = bottom;
pos = (252,0);
},
{
name = top;
pos = (295,700);
}
);
backgroundImage = {
imagePath = B_.png;
pos = (-101.79,-300.368);
scale = (2.6119,2.6119);
};
layerId = "DC44E50C-9AA1-421C-802C-D4D023281425";
shapes = (
{
closed = 1;
nodes = (
(360,-10,o),
(509,94,o),
(509,193,cs),
(509,257,o),
(452,331,o),
(230,353,c),
(231,331,l),
(457,386,o),
(535,465,o),
(535,525,cs),
(535,656,o),
(363,712,o),
(151,712,cs),
(86,712,o),
(49,696,o),
(49,670,cs),
(49,656,o),
(62,644,o),
(78,644,cs),
(99,644,o),
(150,644,o),
(198,644,cs),
(321,644,o),
(465,600,o),
(465,526,cs),
(465,472,o),
(321,406,o),
(189,379,cs),
(125,366,o),
(106,359,o),
(106,336,cs),
(106,305,o),
(132,298,o),
(169,299,cs),
(308,301,o),
(439,236,o),
(439,196,cs),
(439,136.139,o),
(333.894,57,o),
(249,57,cs),
(194.077,57,o),
(147,185.948,o),
(147,329,cs),
(147,419,o),
(155,482,o),
(177,597,cs),
(186,640,o),
(166,672,o),
(148,672,cs),
(127,672,o),
(122,666,o),
(118,645,cs),
(91,503,o),
(81,438,o),
(81,331,cs),
(81,151,o),
(142,-10,o),
(243,-10,cs)
);
}
);
userData = {
com.typemytype.robofont.Image.Brightness = -0.3986;
com.typemytype.robofont.Image.Contrast = 1;
com.typemytype.robofont.Image.Saturation = 1;
com.typemytype.robofont.Image.Sharpness = 0.4;
};
vertWidth = 0;
width = 579;
},
{
anchors = (
{
name = bottom;
pos = (272,0);
},
{
name = top;
pos = (315,700);
}
);
layerId = "FA16BA0A-39E2-4955-BC33-721AB190E0D3";
shapes = (
{
closed = 1;
nodes = (
(385.118,-18,o),
(571,47.172,o),
(571,222,cs),
(571,289,o),
(523,362,o),
(380,378,c),
(389,323,l),
(563,386,o),
(597,463,o),
(597,525,cs),
(597,668,o),
(428.65,712,o),
(210,712,cs),
(73,712,o),
(25,668,o),
(25,589,cs),
(25,550,o),
(47,524,o),
(89,524,cs),
(109,524,o),
(158,528,o),
(204,528,cs),
(403.36,528,o),
(417,522,o),
(417,501,cs),
(417,461.667,o),
(228.429,397.555,o),
(177,383,cs),
(156,377,o),
(138,355,o),
(138,336,cs),
(138,293,o),
(164,262,o),
(201,263,cs),
(337.208,265.858,o),
(401,252,o),
(401,205,cs),
(401,180,o),
(321,153,o),
(273,153,cs),
(245,153,o),
(226,197,o),
(226,347,cs),
(226,425,o),
(228,456,o),
(235,535,cs),
(240,580,o),
(202,629,o),
(149,629,cs),
(125,629,o),
(92,613,o),
(83,579,cs),
(59,484,o),
(53,438,o),
(53,331,cs),
(53,147.801,o),
(128,-18,o),
(255,-18,cs)
);
}
);
userData = {
com.typemytype.robofont.Image.Brightness = -0.3986;
com.typemytype.robofont.Image.Contrast = 1;
com.typemytype.robofont.Image.Saturation = 1;
com.typemytype.robofont.Image.Sharpness = 0.4;
};
vertWidth = 0;
width = 633;
},
{
anchors = (
{
name = bottom;
pos = (252,-23);
},
{
name = top;
pos = (295,736);
}
);
backgroundImage = {
imagePath = B_.png;
pos = (-101.79,-300.368);
scale = (2.6119,2.6119);
};
layerId = "365BB766-143C-4A52-A3A9-25E29A0F4411";
shapes = (
{
closed = 1;
nodes = (
(360,-30,o),
(509,84,o),
(509,193,cs),
(509,252,o),
(443,341,o),
(230,353,c),
(231,331,l),
(459,375,o),
(535,465,o),
(535,525,cs),
(535,687.524,o),
(367.479,757,o),
(161,757,cs),
(96,757,o),
(59,741,o),
(59,715,cs),
(59,701,o),
(72,689,o),
(88,689,cs),
(109,689,o),
(160,689,o),
(208,689,cs),
(326.393,689,o),
(465,628.22,o),
(465,526,cs),
(465,472,o),
(321,406,o),
(189,379,cs),
(125,366,o),
(106,359,o),
(106,336,cs),
(106,305,o),
(132,299,o),
(169,299,cs),
(320,301,o),
(439,241,o),
(439,196,cs),
(439,128,o),
(335,39,o),
(251,39,cs),
(198,39,o),
(139.483,179.729,o),
(147,329,cs),
(151.673,434.153,o),
(161.129,506.766,o),
(187,642,cs),
(196,685,o),
(176,717,o),
(158,717,cs),
(137,717,o),
(132,711,o),
(128,690,cs),
(96.972,526.817,o),
(81,453.334,o),
(81,331,cs),
(81,140.443,o),
(142,-30,o),
(243,-30,cs)
);
}
);
userData = {
com.typemytype.robofont.Image.Brightness = -0.3986;
com.typemytype.robofont.Image.Contrast = 1;
com.typemytype.robofont.Image.Saturation = 1;
com.typemytype.robofont.Image.Sharpness = 0.4;
};
vertWidth = 0;
width = 579;
},
{
anchors = (
{
name = bottom;
pos = (284,-11);
},
{
name = top;
pos = (327,741);
}
);
layerId = "5DCC2EB0-DF11-4824-93BF-E616AA6EE2C6";
shapes = (
{
closed = 1;
nodes = (
(393,-20,o),
(573,46,o),
(573,193,cs),
(573,297,o),
(523,380,o),
(375,397,c),
(384,342,l),
(565,407,o),
(599,490,o),
(599,555,cs),
(599,685,o),
(466,752,o),
(234,752,cs),
(98,752,o),
(37,707,o),
(37,633,cs),
(37,590,o),
(60.719,564,o),
(106,564,cs),
(125.13,564,o),
(172,568,o),
(216,568,cs),
(364,568,o),
(405,557,o),
(405,518,cs),
(405,479,o),
(219.804,417.112,o),
(169,403,cs),
(148,397,o),
(130,369,o),
(130,346,cs),
(130,297,o),
(156,262,o),
(193,263,cs),
(336,266,o),
(403,252,o),
(403,204,cs),
(403,182,o),
(326,151,o),
(289,151,cs),
(264,151,o),
(238,199,o),
(238,357,cs),
(238,436.266,o),
(245,468,o),
(252,549,cs),
(258,606,o),
(217.081,669,o),
(161,669,cs),
(137,669,o),
(104,653,o),
(95,619,cs),
(68,513,o),
(65,461,o),
(65,301,cs),
(65,133,o),
(122,-20,o),
(267,-20,cs)
);
}
);
userData = {
com.typemytype.robofont.Image.Brightness = -0.3986;
com.typemytype.robofont.Image.Contrast = 1;
com.typemytype.robofont.Image.Saturation = 1;
com.typemytype.robofont.Image.Sharpness = 0.4;
};
vertWidth = 0;
width = 653;
},
{
anchors = (
{
name = bottom;
pos = (203.808,0);
},
{
name = top;
pos = (386.809,700);
}
);
layerId = master01;
shapes = (
{
closed = 1;
nodes = (
(325,-10,o),
(478,84,o),
(498,183,cs),
(510,247,o),
(469.808,331,o),
(252.808,353,c),
(248.808,331,l),
(485.808,386,o),
(578,455,o),
(590,515,cs),
(616,646,o),
(456.808,712,o),
(244.808,712,cs),
(179.808,712,o),
(139.808,696,o),
(134.808,670,cs),
(131.808,656,o),
(142.808,644,o),
(158.808,644,cs),
(179.808,644,o),
(230.808,644,o),
(278.808,644,cs),
(401.808,644,o),
(536.808,600,o),
(521.808,526,cs),
(510.808,472,o),
(353.808,406,o),
(216.808,379,cs),
(149.808,366,o),
(129.808,359,o),
(124.808,336,cs),
(118.808,305,o),
(143.808,298,o),
(180.808,299,cs),
(319.808,301,o),
(438,236,o),
(430,196,cs),
(418,134,o),
(299,57,o),
(212,57,cs),
(157,57,o),
(135.808,186,o),
(164.808,329,cs),
(182.808,419,o),
(202.808,482,o),
(247.808,597,cs),
(265.808,640,o),
(251.808,672,o),
(233.808,672,cs),
(212.808,672,o),
(206.808,666,o),
(198.808,645,cs),
(143.808,503,o),
(120.808,438,o),
(98.808,331,cs),
(62.808,151,o),
(107,-10,o),
(208,-10,cs)
);
}
);
vertWidth = 0;
width = 579;
},
{
anchors = (
{
name = bottom;
pos = (220.511,0);
},
{
name = top;
pos = (403.512,700);
}
);
layerId = "FAD04859-55EE-48D6-A0AA-73DE2A79512F";
shapes = (
{
closed = 1;
nodes = (
(350,-18,o),
(531,42,o),
(564,202,cs),
(579,277,o),
(538,357,o),
(399,375,c),
(402.511,323,l),
(574,368,o),
(640,442,o),
(651,498,cs),
(682,657,o),
(546,712,o),
(321,712,cs),
(181,712,o),
(108,668,o),
(94,598,cs),
(84,552,o),
(112,524,o),
(143,524,cs),
(163,524,o),
(212.511,528,o),
(258.511,528,cs),
(451,528,o),
(465,517,o),
(461,496,cs),
(453,457,o),
(264,396,o),
(202.511,383,cs),
(180,378,o),
(157.511,355,o),
(153.511,336,cs),
(145.511,293,o),
(164.511,262,o),
(202.511,263,cs),
(338.511,266,o),
(400,252,o),
(392,209,cs),
(386,175,o),
(313,153,o),
(262,153,cs),
(225,153,o),
(213.511,197,o),
(243.511,347,cs),
(259.511,425,o),
(268,456,o),
(289,526,cs),
(305,580,o),
(276.511,629,o),
(223.511,629,cs),
(199.511,629,o),
(163.511,613,o),
(147.511,579,cs),
(104.511,484,o),
(89.511,438,o),
(67.511,331,cs),
(31.511,148,o),
(80,-18,o),
(247,-18,cs)
);
}
);
vertWidth = 0;
width = 633;
},
{
anchors = (
{
name = bottom;
pos = (198.843,-23);
},
{
name = top;
pos = (393.644,736);
}
);
layerId = "0998268F-450B-429A-9175-FFA5E463F4E3";
shapes = (
{
closed = 1;
nodes = (
(317,-26,o),
(477,80,o),
(498,187,cs),
(509,246,o),
(462.443,341,o),
(252.443,353,c),
(243,320,l),
(480,364,o),
(574,454,o),
(586,514,cs),
(617,669,o),
(465,757,o),
(255,757,cs),
(190,757,o),
(158.443,741,o),
(153.443,715,cs),
(150.443,701,o),
(161.443,689,o),
(177.443,689,cs),
(198.443,689,o),
(249.443,689,o),
(297.443,689,cs),
(415.443,689,o),
(542.443,628,o),
(521.443,526,cs),
(510.443,472,o),
(353.443,406,o),
(216.443,379,cs),
(149.443,366,o),
(129.443,359,o),
(124.443,336,cs),
(118.443,305,o),
(143.443,299,o),
(180.443,299,cs),
(331.443,301,o),
(438.443,241,o),
(429.443,196,cs),
(416.443,128,o),
(294.443,39,o),
(210.443,39,cs),
(157.443,39,o),
(126.443,180,o),
(164.443,329,cs),
(190.443,434,o),
(213.443,507,o),
(266.443,642,cs),
(284.443,685,o),
(270.443,717,o),
(252.443,717,cs),
(231.443,717,o),
(225.443,711,o),
(217.443,690,cs),
(153.443,527,o),
(123.443,453,o),
(98.443,331,cs),
(61,142,o),
(91,-26,o),
(206,-26,cs)
);
}
);
vertWidth = 0;
width = 579;
},
{
anchors = (
{
name = bottom;
pos = (229.551,-11);
},
{
name = top;
pos = (422.952,741);
}
);
layerId = "60E1EE18-36F5-475C-BAEC-6556E4A9959C";
shapes = (
{
closed = 1;
nodes = (
(368,-20,o),
(529.751,46,o),
(559.751,193,cs),
(579.751,297,o),
(546.751,380,o),
(401.751,397,c),
(399.751,342,l),
(593.751,407,o),
(644.751,490,o),
(657.751,555,cs),
(683.751,685,o),
(563.751,752,o),
(331.751,752,cs),
(195.751,752,o),
(125.751,707,o),
(111.751,633,cs),
(102.751,590,o),
(121.751,564,o),
(166.751,564,cs),
(185.751,564,o),
(233.751,568,o),
(277.751,568,cs),
(425.751,568,o),
(463.751,557,o),
(456.751,518,cs),
(448.751,479,o),
(250.751,417,o),
(197.751,403,cs),
(174.751,397,o),
(151.751,369,o),
(146.751,346,cs),
(136.751,297,o),
(155.751,262,o),
(193.751,263,cs),
(336.751,266,o),
(400.751,252,o),
(391.751,204,cs),
(386.751,182,o),
(304,151,o),
(267,151,cs),
(242,151,o),
(225.751,199,o),
(256.751,357,cs),
(272.751,436,o),
(286.751,468,o),
(309.751,549,cs),
(326.751,606,o),
(298.751,669,o),
(242.751,669,cs),
(218.751,669,o),
(182.751,653,o),
(166.751,619,cs),
(118.751,513,o),
(104.751,461,o),
(72.751,301,cs),
(39.751,133,o),
(97,-20,o),
(242,-20,cs)
);
}
);
vertWidth = 0;
width = 653;
},
{
associatedMasterId = "FA16BA0A-39E2-4955-BC33-721AB190E0D3";
layerId = "87234B38-16F4-4CA1-8928-84317B013084";
name = bg;
shapes = (
{
closed = 1;
nodes = (
(226,198,o),
(226,347,cs),
(226,425,o),
(228,456,o),
(235,535,cs),
(240,580,o),
(202,629,o),
(149,629,cs),
(125,629,o),
(92,613,o),
(83,579,cs),
(59,484,o),
(53,438,o),
(53,331,cs),
(53,148,o),
(128,-18,o),
(255,-18,cs),
(381,-18,o),
(561,47,o),
(561,222,cs),
(561,289,o),
(513,362,o),
(370,378,c),
(379,323,l),
(553,386,o),
(587,463,o),
(587,525,cs),
(587,668,o),
(423,712,o),
(210,712,cs),
(73,712,o),
(25,668,o),
(25,589,cs),
(25,550,o),
(47,524,o),
(89,524,cs),
(109,524,o),
(158,528,o),
(204,528,cs),
(394,528,o),
(407,522,o),
(407,501,cs),
(407,465,o),
(210,408,o),
(157,393,cs),
(136,387,o),
(118,359,o),
(118,336,cs),
(118,287,o),
(144,252,o),
(181,253,cs),
(324,256,o),
(391,244,o),
(391,204,cs),
(391,191,o),
(302,153,o),
(264,153,cs),
(252,153,o)
);
}
);
vertWidth = 0;
width = 633;
}
);
unicode = 66;
}
{
color = 4;
glyphname = J;
kernLeft = KO_J;
kernRight = KO_J;
layers = (
{
anchors = (
{
name = bottom;
pos = (289,0);
},
{
name = top;
pos = (289,700);
}
);
backgroundImage = {
imagePath = B_.png;
pos = (-1334.79,-291.368);
scale = (2.6119,2.6119);
};
layerId = "DC44E50C-9AA1-421C-802C-D4D023281425";
shapes = (
{
closed = 1;
nodes = (
(429,-12,o),
(510,50,o),
(510,186,cs),
(510,300,o),
(468,496,o),
(421,622,cs),
(407,662,o),
(392,676,o),
(358,676,cs),
(332,676,o),
(334,644,o),
(346,615,cs),
(395,496,o),
(442,296,o),
(442,192,cs),
(442,97,o),
(402,53,o),
(279,53,cs),
(185,53,o),
(144,101,o),
(144,173,cs),
(144,217,o),
(176,232,o),
(176,258,cs),
(176,274,o),
(168,281,o),
(154,281,cs),
(123,281,o),
(76,221,o),
(76,161,cs),
(76,53,o),
(159,-12,o),
(279,-12,cs)
);
},
{
closed = 1;
nodes = (
(225,634,o),
(351,646,o),
(481,646,cs),
(514,646,o),
(531,657,o),
(531,676,cs),
(531,705,o),
(507,712,o),
(485,712,cs),
(339,712,o),
(265,700,o),
(160,700,cs),
(119,700,o),
(113,713,o),
(86,713,cs),
(68,713,o),
(58,703,o),
(58,687,cs),
(58,649,o),
(109,634,o),
(145,634,cs)
);
}
);
userData = {
com.typemytype.robofont.Image.Brightness = -0.3986;
com.typemytype.robofont.Image.Sharpness = 0.4;
};
vertWidth = 0;
width = 584;
},
{
anchors = (
{
name = bottom;
pos = (310,0);
},
{
name = top;
pos = (340,700);
}
);
layerId = "FA16BA0A-39E2-4955-BC33-721AB190E0D3";
shapes = (
{
closed = 1;
nodes = (
(484,-12,o),
(585,68,o),
(585,246,cs),
(585,336,o),
(546,502,o),
(513,591,cs),
(489,656,o),
(448,674,o),
(373,676,cs),
(339,676,o),
(311,644,o),
(325,607,cs),
(364,514,o),
(407,356,o),
(407,272,cs),
(407,195,o),
(379,161,o),
(294,161,cs),
(220,161,o),
(200,183,o),
(200,204,cs),
(200,234,o),
(226,258,o),
(226,289,cs),
(226,316,o),
(209,330,o),
(176,330,cs),
(71,330,o),
(31,232,o),
(31,171,cs),
(31,57,o),
(138,-12,o),
(294,-12,cs)
);
},
{
closed = 1;
nodes = (
(298,526,o),
(425,544,o),
(556,544,cs),
(602,544,o),
(626,565,o),
(626,604,cs),
(626,693,o),
(538,712,o),
(460,712,cs),
(360,712,o),
(309,700,o),
(237,700,cs),
(196,700,o),
(156,713,o),
(107,713,cs),
(75,713,o),
(57,691,o),
(57,657,cs),
(57,561,o),
(152,526,o),
(218,526,cs)
);
}
);
userData = {
com.typemytype.robofont.Image.Brightness = -0.3986;
com.typemytype.robofont.Image.Sharpness = 0.4;
};
vertWidth = 0;
width = 648;
},
{
anchors = (
{
name = bottom;
pos = (289,31);
},
{
name = top;
pos = (289,647);
}
);
backgroundImage = {
imagePath = B_.png;
pos = (-1334.79,-291.368);
scale = (2.6119,2.6119);
};
layerId = "365BB766-143C-4A52-A3A9-25E29A0F4411";
shapes = (
{
closed = 1;
nodes = (
(416.013,18,o),
(490,80,o),
(490,216,cs),
(490,309.729,o),
(440.547,468.943,o),
(401,575,cs),
(387.166,614.527,o),
(375.222,629,o),
(345,629,cs),
(319,629,o),
(321,597,o),
(333,568,cs),
(373.584,468.026,o),
(422,307.399,o),
(422,222,cs),
(422,127,o),
(386.908,83,o),
(279,83,cs),
(201.015,83,o),
(167,119,o),
(167,173,cs),
(167,217,o),
(199,232,o),
(199,258,cs),
(199,274,o),
(191,281,o),
(177,281,cs),
(146,281,o),
(99,221,o),
(99,161,cs),
(99,71.728,o),
(172.596,18,o),
(279,18,cs)
);
},
{
closed = 1;
nodes = (
(207.163,587,o),
(351.655,599,o),
(501,599,cs),
(534,599,o),
(551,610,o),
(551,629,cs),
(551,658,o),
(527,665,o),
(505,665,cs),
(336.538,665,o),
(250.652,653,o),
(130,653,cs),
(89,653,o),
(83,666,o),
(56,666,cs),
(38,666,o),
(28,656,o),
(28,640,cs),
(28,602,o),
(79,587,o),
(115,587,cs)
);
}
);
userData = {
com.typemytype.robofont.Image.Brightness = -0.3986;
com.typemytype.robofont.Image.Sharpness = 0.4;
};
vertWidth = 0;
width = 584;
},
{
anchors = (
{
name = bottom;
pos = (314,29);
},
{
name = top;
pos = (344,654);
}
);
layerId = "5DCC2EB0-DF11-4824-93BF-E616AA6EE2C6";
shapes = (
{
closed = 1;
nodes = (
(472,18,o),
(559,95,o),
(559,266,cs),
(559,339.751,o),
(533.59,474.566,o),
(507,547,cs),
(483,612,o),
(442,630,o),
(367,632,cs),
(333,632,o),
(305,600,o),
(319,563,cs),
(350.966,487.194,o),
(381,359.983,o),
(381,292,cs),
(381,222,o),
(363,191,o),
(308,191,cs),
(254,191,o),
(239,213,o),
(239,234,cs),
(239,258.613,o),
(265,267,o),
(265,305,cs),
(265,335,o),
(248,350,o),
(215,350,cs),
(122,350,o),
(70,275,o),
(70,201,cs),
(70,87,o),
(167,18,o),
(308,18,cs)
);
},
{
closed = 1;
nodes = (
(264,482,o),
(409.621,500,o),
(560,500,cs),
(606,500,o),
(630,521,o),
(630,560,cs),
(630,649,o),
(542,668,o),
(464,668,cs),
(341.13,668,o),
(278,653,o),
(190,653,cs),
(143.744,653,o),
(128,668,o),
(73,668,cs),
(33,668,o),
(11,646,o),
(11,613,cs),
(11,527,o),
(90,482,o),
(172,482,cs)
);
}
);
userData = {
com.typemytype.robofont.Image.Brightness = -0.3986;
com.typemytype.robofont.Image.Sharpness = 0.4;
};
vertWidth = 0;
width = 655;
},
{
anchors = (
{
name = bottom;
pos = (240.7,0);
},
{
name = top;
pos = (380.701,700);
}
);
layerId = master01;
shapes = (
{
closed = 1;
nodes = (
(374,-12,o),
(471,45,o),
(498,181,cs),
(521,295,o),
(518.7,496,o),
(496.7,622,cs),
(490.7,662,o),
(478.7,676,o),
(444.7,676,cs),
(418.7,676,o),
(423,648,o),
(427,619,cs),
(444,494,o),
(452.7,296,o),
(431.7,192,cs),
(412.7,97,o),
(364.7,53,o),
(241.7,53,cs),
(147.7,53,o),
(115.7,101,o),
(130.7,173,cs),
(138.7,217,o),
(174,232,o),
(180,258,cs),
(183,273,o),
(176,285,o),
(158,285,cs),
(120,285,o),
(76,241,o),
(64,181,cs),
(43,73,o),
(104,-12,o),
(234,-12,c)
);
},
{
closed = 1;
nodes = (
(303.7,634,o),
(431.7,646,o),
(561.7,646,cs),
(594.7,646,o),
(613.7,657,o),
(617.7,676,cs),
(623.7,705,o),
(600.7,712,o),
(578.7,712,cs),
(432.7,712,o),
(356.7,700,o),
(251.7,700,cs),
(210.7,700,o),
(207.7,713,o),
(180.7,713,cs),
(162.7,713,o),
(150.7,703,o),
(146.7,687,cs),
(139.7,649,o),
(187.7,634,o),
(223.7,634,cs)
);
}
);
vertWidth = 0;
width = 584;
},
{
anchors = (
{
name = bottom;
pos = (258.445,0);
},
{
name = top;
pos = (428.446,700);
}
);
layerId = "FAD04859-55EE-48D6-A0AA-73DE2A79512F";
shapes = (
{
closed = 1;
nodes = (
(435,-12,o),
(549,65,o),
(582,236,cs),
(601,329,o),
(595,499,o),
(579.445,591,cs),
(568.445,656,o),
(531.445,674,o),
(456.445,676,cs),
(422.445,676,o),
(388.445,644,o),
(394.445,607,cs),
(415.445,514,o),
(426.445,356,o),
(409.445,272,cs),
(394.445,195,o),
(359.445,161,o),
(274.445,161,cs),
(200.445,161,o),
(185.445,183,o),
(189.445,204,cs),
(195.445,234,o),
(226,248,o),
(232,279,cs),
(238,311,o),
(220,340,o),
(180,340,cs),
(82,340,o),
(36,266,o),
(23,201,cs),
(0,87,o),
(88,-12,o),
(250,-12,cs)
);
},
{
closed = 1;
nodes = (
(351.445,526,o),
(482.445,544,o),
(613.445,544,cs),
(659.445,544,o),
(687.445,565,o),
(695.445,604,cs),
(713.445,693,o),
(628.445,712,o),
(550.445,712,cs),
(450.445,712,o),
(397.445,700,o),
(325.445,700,cs),
(284.445,700,o),
(247.445,713,o),
(198.445,713,cs),
(166.445,713,o),
(143.445,691,o),
(136.445,657,cs),
(117.445,561,o),
(205.445,526,o),
(271.445,526,cs)
);
}
);
vertWidth = 0;
width = 648;
},
{
anchors = (
{
name = bottom;
pos = (246.253,31);
},
{
name = top;
pos = (369.454,647);
}
);
layerId = "0998268F-450B-429A-9175-FFA5E463F4E3";
shapes = (
{
closed = 1;
nodes = (
(376,18,o),
(455,70,o),
(482,206,cs),
(501,300,o),
(485.053,469,o),
(467.053,575,cs),
(461.053,615,o),
(452.053,629,o),
(422.053,629,cs),
(396.053,629,o),
(391.053,597,o),
(398.053,568,cs),
(418.053,468,o),
(434.053,307,o),
(417.053,222,cs),
(398.053,127,o),
(355,80,o),
(247,80,cs),
(169,80,o),
(142.053,119,o),
(153.053,173,cs),
(161.053,217,o),
(196.053,232,o),
(202.053,258,cs),
(205.053,274,o),
(198.053,281,o),
(184.053,281,cs),
(153.053,281,o),
(98,241,o),
(86,181,cs),
(68,92,o),
(131,18,o),
(244,18,cs)
);
},
{
closed = 1;
nodes = (
(276.053,587,o),
(422.053,599,o),
(572.053,599,cs),
(605.053,599,o),
(624.053,610,o),
(628.053,629,cs),
(634.053,658,o),
(611.053,665,o),
(589.053,665,cs),
(421.053,665,o),
(332.053,653,o),
(212.053,653,cs),
(171.053,653,o),
(167.053,666,o),
(140.053,666,cs),
(122.053,666,o),
(110.053,656,o),
(107.053,640,cs),
(99.053,602,o),
(147.053,587,o),
(183.053,587,cs)
);
}
);
vertWidth = 0;
width = 584;
},
{
anchors = (
{
name = bottom;
pos = (267.573,29);
},
{
name = top;
pos = (422.573,654);
}
);
layerId = "60E1EE18-36F5-475C-BAEC-6556E4A9959C";
shapes = (
{
closed = 1;
nodes = (
(441,18,o),
(525.772,95,o),
(559.772,266,cs),
(574.772,340,o),
(576.772,475,o),
(563.772,547,cs),
(552.772,612,o),
(515.772,630,o),
(440.772,632,cs),
(406.772,632,o),
(372.772,600,o),
(379.772,563,cs),
(395.772,487,o),
(400.772,360,o),
(386.772,292,cs),
(372.772,222,o),
(348.772,191,o),
(293.772,191,cs),
(239.772,191,o),
(229.772,213,o),
(233.772,234,cs),
(238.772,259,o),
(265.772,267,o),
(273.772,305,cs),
(281,342,o),
(259,366,o),
(221,366,cs),
(128,366,o),
(74,301,o),
(59,227,cs),
(36,113,o),
(136,18,o),
(277,18,cs)
);
},
{
closed = 1;
nodes = (
(307.772,482,o),
(457.772,500,o),
(607.772,500,cs),
(653.772,500,o),
(681.772,521,o),
(689.772,560,cs),
(707.772,649,o),
(623.772,668,o),
(545.772,668,cs),
(422.772,668,o),
(356.772,653,o),
(268.772,653,cs),
(221.772,653,o),
(209.772,668,o),
(154.772,668,cs),
(114.772,668,o),
(87.772,646,o),
(81.772,613,cs),
(63.772,527,o),
(133.772,482,o),
(215.772,482,cs)
);
}
);
vertWidth = 0;
width = 655;
},
{
associatedMasterId = "5DCC2EB0-DF11-4824-93BF-E616AA6EE2C6";
layerId = "66739A13-3AB9-4E7B-B17F-CB2B60388854";
name = transformed;
shapes = (
{
closed = 1;
nodes = (
(468.74,14.95,o),
(557.62,86.95,o),
(557.62,247.15,cs),
(557.62,328.15,o),
(523.3,477.55,o),
(494.26,557.65,cs),
(473.14,616.15,o),
(437.06,632.35,o),
(371.06,634.15,cs),
(341.14,634.15,o),
(316.5,605.35,o),
(328.82,572.05,cs),
(363.14,488.35,o),
(400.98,346.15,o),
(400.98,270.55,cs),
(400.98,201.25,o),
(376.34,170.65,o),
(301.54,170.65,cs),
(236.42,170.65,o),
(218.82,190.45,o),
(218.82,209.35,cs),
(218.82,236.35,o),
(241.7,257.95,o),
(241.7,285.85,cs),
(241.7,310.15,o),
(226.74,322.75,o),
(197.7,322.75,cs),
(105.3,322.75,o),
(70.1,234.55,o),
(70.1,179.65,cs),
(70.1,77.05,o),
(164.26,14.95,o),
(301.54,14.95,cs)
);
},
{
closed = 1;
nodes = (
(305.06,499.15,o),
(416.82,515.35,o),
(532.1,515.35,cs),
(572.58,515.35,o),
(593.7,534.25,o),
(593.7,569.35,cs),
(593.7,649.45,o),
(516.26,666.55,o),
(447.62,666.55,cs),
(359.62,666.55,o),
(314.74,655.75,o),
(251.38,655.75,cs),
(215.3,655.75,o),
(180.1,667.45,o),
(136.98,667.45,cs),
(108.82,667.45,o),
(92.98,647.65,o),
(92.98,617.05,cs),
(92.98,530.65,o),
(176.58,499.15,o),
(234.66,499.15,cs)
);
}
);
vertWidth = 0;
width = 655;
}
);
unicode = 74;
}
{
color = 4;
glyphname = L;
kernLeft = KO_L;
kernRight = KO_L;
layers = (
{
anchors = (
{
name = bottom;
pos = (289,0);
},
{
name = top;
pos = (157,700);
}
);
backgroundImage = {
imagePath = B_.png;
pos = (-2674.79,-300.368);
scale = (2.6119,2.6119);
};
layerId = "DC44E50C-9AA1-421C-802C-D4D023281425";
shapes = (
{
closed = 1;
nodes = (
(367.361,-9,o),
(437.641,6.18,o),
(499,35,cs),
(516,43,o),
(527,59,o),
(527,75,cs),
(527,91,o),
(517,101,o),
(500,101,cs),
(469.857,101,o),
(432,56,o),
(289,56,cs),
(185,56,o),
(144,130,o),
(144,244,cs),
(144,399,o),
(194,509,o),
(194,644,cs),
(194,691,o),
(179.739,710,o),
(153,710,cs),
(128.238,710,o),
(127,693,o),
(127,658,cs),
(127,523,o),
(76,408.879,o),
(76,251,cs),
(76,83,o),
(150.053,-9,o),
(286,-9,cs)
);
}
);
userData = {
com.typemytype.robofont.Image.Brightness = -0.3986;
com.typemytype.robofont.Image.Sharpness = 0.4;
};
vertWidth = 0;
width = 556;
},
{
anchors = (
{
name = bottom;
pos = (290,0);
},
{
name = top;
pos = (184,700);
}
);
layerId = "FA16BA0A-39E2-4955-BC33-721AB190E0D3";
shapes = (
{
closed = 1;
nodes = (
(353,-9,o),
(428,6,o),
(471,42,cs),
(506,72,o),
(519,111,o),
(519,153,cs),
(519,188,o),
(497,222,o),
(465,222,cs),
(403,222,o),
(396,164,o),
(297,164,cs),
(236.459,164,o),
(214,186,o),
(214,237,cs),
(214,300,o),
(271,457.15,o),
(271,594,cs),
(271,644,o),
(238,710,o),
(169,710,cs),
(111.564,710,o),
(89,676,o),
(89,629,cs),
(89,526,o),
(40,398,o),
(40,251,cs),
(40,78,o),
(123,-9,o),
(290,-9,cs)
);
}
);
userData = {
com.typemytype.robofont.Image.Brightness = -0.3986;
com.typemytype.robofont.Image.Sharpness = 0.4;
};
vertWidth = 0;
width = 536;
},
{
anchors = (
{
name = bottom;
pos = (289,49.4);
},
{
name = top;
pos = (171.3,612.9);
}
);
layerId = "365BB766-143C-4A52-A3A9-25E29A0F4411";
shapes = (
{
closed = 1;
nodes = (
(356.497,39.75,o),
(417.074,50.913,o),
(471.05,74.65,cs),
(488.05,82,o),
(499.05,98,o),
(499.05,114,cs),
(499.05,130,o),
(489.05,140,o),
(472.05,140,cs),
(445.974,140,o),
(413.15,103.45,o),
(289,103.45,cs),
(199.3,103.45,o),
(163.5,158.456,o),
(163.5,244,cs),
(163.5,366.256,o),
(207,453.019,o),
(207,559.5,cs),
(207,606.5,o),
(192.909,625.5,o),
(166,625.5,cs),
(141.083,625.5,o),
(140,608.5,o),
(140,573.5,cs),
(140,466.528,o),
(95.5,376.154,o),
(95.5,251,cs),
(95.5,114.2,o),
(162.647,39.75,o),
(286,39.75,cs)
);
}
);
userData = {
com.typemytype.robofont.Image.Brightness = -0.3986;
com.typemytype.robofont.Image.Sharpness = 0.4;
};
vertWidth = 0;
width = 556;
},
{
anchors = (
{
name = bottom;
pos = (264,52);
},
{
name = top;
pos = (158,644);
}
);
layerId = "5DCC2EB0-DF11-4824-93BF-E616AA6EE2C6";
shapes = (
{
closed = 1;
nodes = (
(322,45,o),
(391,58,o),
(431,91,cs),
(466,122,o),
(480,159,o),
(480,204,cs),
(480,243,o),
(459,270,o),
(426,270,cs),
(372,270,o),
(362,218,o),
(279,218,cs),
(237,218,o),
(220,234,o),
(220,270,cs),
(220,314,o),
(251,428,o),
(251,526,cs),
(251,598,o),
(216,657,o),
(145,657,cs),
(90,657,o),
(68,626,o),
(68,582,cs),
(68,499,o),
(41,395,o),
(41,277,cs),
(41,128,o),
(122,45,o),
(264,45,cs)
);
}
);
userData = {
com.typemytype.robofont.Image.Brightness = -0.3986;
com.typemytype.robofont.Image.Sharpness = 0.4;
};
vertWidth = 0;
width = 517;
},
{
anchors = (
{
name = bottom;
pos = (240.328,0);
},
{
name = top;
pos = (248.329,700);
}
);
layerId = master01;
shapes = (
{
closed = 1;
nodes = (
(322,-9,o),
(390,3,o),
(454,30,cs),
(479,40,o),
(490,55,o),
(493,75,cs),
(496,91,o),
(488.328,101,o),
(471.328,101,cs),
(441.328,101,o),
(394.328,56,o),
(251.328,56,cs),
(147.328,56,o),
(121.328,130,o),
(144.328,244,cs),
(175.194,398.332,o),
(249.116,507.581,o),
(276,642,cs),
(285.282,690.474,o),
(279,711,o),
(250,711,cs),
(225,711,o),
(217.328,693,o),
(210.328,658,cs),
(183.328,523,o),
(109.328,409,o),
(77.328,251,cs),
(44.328,83,o),
(104,-9,o),
(250,-9,c)
);
}
);
vertWidth = 0;
width = 556;
},
{
anchors = (
{
name = bottom;
pos = (238.742,0);
},
{
name = top;
pos = (272.743,700);
}
);
layerId = "FAD04859-55EE-48D6-A0AA-73DE2A79512F";
shapes = (
{
closed = 1;
nodes = (
(315,-9,o),
(376,7,o),
(419,36,cs),
(462,65,o),
(492,103,o),
(500,140,cs),
(508.845,185.333,o),
(490.64,222,o),
(448,222,cs),
(386,222,o),
(368,164,o),
(269,164,cs),
(215,164,o),
(199.742,186,o),
(209.742,237,cs),
(222.742,300,o),
(311,457,o),
(336,582,cs),
(349,644,o),
(328.742,710,o),
(259.742,710,cs),
(202.742,710,o),
(172.742,676,o),
(163.742,629,cs),
(143,529,o),
(68,404,o),
(39,261,cs),
(3,82,o),
(75,-9,o),
(249,-9,cs)
);
}
);
vertWidth = 0;
width = 536;
},
{
anchors = (
{
name = bottom;
pos = (250.117,49);
},
{
name = top;
pos = (244.918,613);
}
);
layerId = "0998268F-450B-429A-9175-FFA5E463F4E3";
shapes = (
{
closed = 1;
nodes = (
(322,40,o),
(380,50,o),
(434,72,cs),
(454,80,o),
(470,97,o),
(473.317,114,cs),
(476.317,130,o),
(468.317,140,o),
(451.317,140,cs),
(425.317,140,o),
(385.317,103,o),
(261.317,103,cs),
(171.317,103,o),
(146.317,158,o),
(163.317,244,cs),
(188.317,366,o),
(249.317,453,o),
(270.317,560,cs),
(279.317,607,o),
(269.317,626,o),
(242.317,626,cs),
(217.317,626,o),
(213.317,609,o),
(206.317,574,cs),
(184.317,467,o),
(124,386,o),
(99,261,cs),
(71,124,o),
(126,40,o),
(258,40,cs)
);
}
);
vertWidth = 0;
width = 556;
},
{
anchors = (
{
name = bottom;
pos = (223.24,52);
},
{
name = top;
pos = (235.641,644);
}
);
layerId = "60E1EE18-36F5-475C-BAEC-6556E4A9959C";
shapes = (
{
closed = 1;
nodes = (
(293,44,o),
(355,61,o),
(403,92,cs),
(446,120,o),
(465,146,o),
(474,191,cs),
(482,232,o),
(464,273,o),
(419,273,cs),
(365,273,o),
(354.84,218,o),
(271.84,218,cs),
(229.84,218,o),
(215.84,234,o),
(222.84,270,cs),
(231.84,314,o),
(285.84,428,o),
(304.84,526,cs),
(319.84,598,o),
(295.84,657,o),
(224.84,657,cs),
(169.84,657,o),
(141.84,626,o),
(132.84,582,cs),
(116.84,499,o),
(71,414,o),
(47,296,cs),
(18,147,o),
(93,44,o),
(235,44,cs)
);
}
);
vertWidth = 0;
width = 517;
},
{
associatedMasterId = "5DCC2EB0-DF11-4824-93BF-E616AA6EE2C6";
layerId = "E61385E5-7ADA-4F99-8C00-F0CD171F640D";
name = bg;
shapes = (
{
closed = 1;
nodes = (
(306,71,o),
(374,81,o),
(411,112,cs),
(446,142,o),
(459,181,o),
(459,223,cs),
(459,258,o),
(437,292,o),
(405,292,cs),
(372,292,o),
(344,244,o),
(257,244,cs),
(232,244,o),
(223,256,o),
(223,285,cs),
(223,311,o),
(240,378,o),
(240,435,cs),
(240,495,o),
(203,575,o),
(124,575,cs),
(76,575,o),
(57,545,o),
(57,503,cs),
(57,451,o),
(41,385,o),
(41,311,cs),
(41,156,o),
(114,71,o),
(250,71,cs)
);
}
);
vertWidth = 0;
width = 517;
},
{
associatedMasterId = "5DCC2EB0-DF11-4824-93BF-E616AA6EE2C6";
layerId = "66739A13-3AB9-4E7B-B17F-CB2B60388854";
name = transformed;
shapes = (
{
closed = 1;
nodes = (
(336.8,68.285,o),
(398.3,78.935,o),
(433.56,104.495,cs),
(462.26,125.795,o),
(472.92,153.485,o),
(472.92,183.305,cs),
(472.92,208.155,o),
(454.88,232.295,o),
(428.64,232.295,cs),
(397.48,232.295,o),
(372.06,191.115,o),
(290.88,191.115,cs),
(240.04,191.115,o),
(221.18,206.025,o),
(221.18,240.815,cs),
(221.18,282.705,o),
(263.82,387.785,o),
(263.82,479.375,cs),
(263.82,521.975,o),
(235.94,578.775,o),
(176.9,578.775,cs),
(137.54,578.775,o),
(121.96,557.475,o),
(121.96,527.655,cs),
(121.96,453.105,o),
(80.14,359.385,o),
(80.14,252.885,cs),
(80.14,133.605,o),
(151.48,68.285,o),
(285.14,68.285,cs)
);
}
);
vertWidth = 0;
width = 517;
}
);
unicode = 76;
}
{
color = 4;
glyphname = V;
kernLeft = KO_V;
kernRight = KO_V;
layers = (
{
anchors = (
{
name = bottom;
pos = (336,0);
},
{
name = top;
pos = (336,700);
}
);
background = {
shapes = (
{
closed = 0;
nodes = (
(40,663,l),
(182,556,o),
(191,240,o),
(348,63,c),
(402,267,o),
(479,457,o),
(638,684,cs)
);
}
);
};
layerId = "DC44E50C-9AA1-421C-802C-D4D023281425";
shapes = (
{
closed = 1;
nodes = (
(354,-11,o),
(365,-2,o),
(378,49,cs),
(435,272,o),
(490,399,o),
(616,615,cs),
(630,639,o),
(639,662,o),
(639,684,cs),
(639,698,o),
(632,709,o),
(617,709,cs),
(599,709,o),
(592,704,o),
(556,649,cs),
(445,476,o),
(371,284,o),
(313,58,c),
(339,65,l),
(223,245,o),
(227,478,o),
(148,628,cs),
(120,684,o),
(100,706,o),
(72,706,cs),
(56,706,o),
(48,696,o),
(48,682,cs),
(48,660,o),
(59,642,o),
(91,592,cs),
(149,501,o),
(166,220,o),
(266,58,cs),
(304,-5,o),
(318,-11,o),
(342,-11,cs)
);
}
);
vertWidth = 0;
width = 665;
},
{
anchors = (
{
name = bottom;
pos = (360,0);
},
{
name = top;
pos = (360,700);
}
);
layerId = "FA16BA0A-39E2-4955-BC33-721AB190E0D3";
shapes = (
{
closed = 1;
nodes = (
(414,-12,o),
(443,13,o),
(460,70,cs),
(517,244,o),
(576,351,o),
(655,480,cs),
(694,545,o),
(709,569,o),
(709,622,cs),
(709,669,o),
(679,711,o),
(628,711,cs),
(596,711,o),
(561,695,o),
(515,626,c),
(438,502,o),
(370,364,o),
(324,198,c),
(370,257,l),
(314,337,o),
(283,563,o),
(191,669,cs),
(161,703,o),
(130,712,o),
(97,712,cs),
(38,712,o),
(12,671,o),
(12,629,cs),
(12,586,o),
(37,554,o),
(58,524,cs),
(132,417,o),
(115,315,o),
(239,89,cs),
(281,11,o),
(316,-12,o),
(367,-12,cs)
);
}
);
vertWidth = 0;
width = 714;
},
{
anchors = (
{
name = bottom;
pos = (336,41);
},
{
name = top;
pos = (336,645);
}
);
background = {
shapes = (
{
closed = 0;
nodes = (
(40,663,l),
(182,556,o),
(191,240,o),
(348,63,c),
(402,267,o),
(479,457,o),
(638,684,cs)
);
}
);
};
layerId = "365BB766-143C-4A52-A3A9-25E29A0F4411";
shapes = (
{
closed = 1;
nodes = (
(354,34,o),
(365,43,o),
(378,94,cs),
(428.727,291.374,o),
(500.95,392.772,o),
(616,590,cs),
(630,614,o),
(639,637,o),
(639,659,cs),
(639,673,o),
(632,684,o),
(617,684,cs),
(600,684,o),
(594,678,o),
(559,624,cs),
(456.719,464.59,o),
(367.843,303.891,o),
(316,103,c),
(339,110,l),
(240.692,262.611,o),
(213.861,427.948,o),
(148,553,cs),
(120,609,o),
(98,631,o),
(69,631,cs),
(55,631,o),
(48,622,o),
(48,609,cs),
(48,587,o),
(59,568,o),
(91,517,cs),
(139.773,440.476,o),
(182.252,238.858,o),
(266,103,cs),
(304,40,o),
(318,34,o),
(335,34,cs)
);
}
);
vertWidth = 0;
width = 665;
},
{
anchors = (
{
name = bottom;
pos = (361,44);
},
{
name = top;
pos = (345,683);
}
);
layerId = "5DCC2EB0-DF11-4824-93BF-E616AA6EE2C6";
shapes = (
{
closed = 1;
nodes = (
(419,33,o),
(439,62,o),
(455,115,cs),
(507,273,o),
(575,374,o),
(647,492,cs),
(682,550,o),
(687,560,o),
(687,611,cs),
(687,671,o),
(655,720,o),
(602,720,cs),
(571,720,o),
(546,714,o),
(497,638,cs),
(421,519,o),
(352,396,o),
(312,243,c),
(358,302,l),
(312,368,o),
(260,514,o),
(182,604,cs),
(152,638,o),
(126,647,o),
(95,647,cs),
(36,647,o),
(10,606,o),
(10,564,cs),
(10,521,o),
(35,489,o),
(56,459,cs),
(118,370,o),
(134,317,o),
(234,134,cs),
(274,60,o),
(302,33,o),
(362,33,cs)
);
}
);
vertWidth = 0;
width = 689;
},
{
anchors = (
{
name = bottom;
pos = (287.442,0);
},
{
name = top;
pos = (427.443,700);
}
);
layerId = master01;
shapes = (
{
closed = 1;
nodes = (
(303.442,-11,o),
(316.442,-2,o),
(339.442,49,cs),
(440.442,272,o),
(521.442,399,o),
(690.442,615,cs),
(709.442,639,o),
(721,658,o),
(726,680,cs),
(729,694,o),
(725.442,709,o),
(710.442,709,cs),
(693.442,709,o),
(682,703,o),
(636,649,cs),
(490,476,o),
(378,284,o),
(275,58,c),
(299,65,l),
(219,245,o),
(270,478,o),
(221,628,cs),
(204,684,o),
(190.442,706,o),
(161.442,706,cs),
(147.442,706,o),
(138.442,697,o),
(136.442,684,cs),
(131.442,662,o),
(139.442,643,o),
(160.442,592,cs),
(200.442,501,o),
(161.442,220,o),
(229.442,58,cs),
(254.442,-5,o),
(267.442,-11,o),
(291.442,-11,cs)
);
}
);
vertWidth = 0;
width = 665;
},
{
anchors = (
{
name = bottom;
pos = (308.325,0);
},
{
name = top;
pos = (448.326,700);
}
);
layerId = "FAD04859-55EE-48D6-A0AA-73DE2A79512F";
shapes = (
{
closed = 1;
nodes = (
(370.325,-12,o),
(395.325,17,o),
(422.325,70,cs),
(514.325,244,o),
(603.325,358,o),
(707.325,487,cs),
(754.325,545,o),
(761.325,555,o),
(771.325,606,cs),
(783.325,666,o),
(760,715,o),
(704,715,cs),
(673,715,o),
(647,709,o),
(583,633,cs),
(474,504,o),
(378,366,o),
(301,198,c),
(358,257,l),
(318,337,o),
(333,563,o),
(262,669,cs),
(239,703,o),
(214,712,o),
(183,712,cs),
(127,712,o),
(94,671,o),
(86.325,629,cs),
(77.325,586,o),
(96.325,554,o),
(111.325,524,cs),
(163.325,417,o),
(126.325,315,o),
(205.325,89,cs),
(230.325,15,o),
(253.325,-12,o),
(313.325,-12,cs)
);
}
);
vertWidth = 0;
width = 714;
},
{
anchors = (
{
name = bottom;
pos = (295.642,41);
},
{
name = top;
pos = (416.443,645);
}
);
layerId = "0998268F-450B-429A-9175-FFA5E463F4E3";
shapes = (
{
closed = 1;
nodes = (
(312.442,34,o),
(325.442,43,o),
(348.442,94,cs),
(438.442,291,o),
(531.442,393,o),
(685.442,590,cs),
(704.442,614,o),
(717.442,637,o),
(722.442,659,cs),
(725.442,673,o),
(720.442,684,o),
(705.442,684,cs),
(687,684,o),
(678,680,o),
(630,624,cs),
(496,465,o),
(375,304,o),
(283,103,c),
(307,110,l),
(239,263,o),
(245,428,o),
(205,553,cs),
(189,609,o),
(173,631,o),
(146.442,631,cs),
(132.442,631,o),
(123.442,622,o),
(121.442,609,cs),
(116.442,587,o),
(124.442,568,o),
(145.442,517,cs),
(179.442,440,o),
(181.442,239,o),
(238.442,103,cs),
(263.442,40,o),
(276.442,34,o),
(293.442,34,cs)
);
}
);
vertWidth = 0;
width = 665;
},
{
anchors = (
{
name = bottom;
pos = (318.125,44);
},
{
name = top;
pos = (429.926,683);
}
);
layerId = "60E1EE18-36F5-475C-BAEC-6556E4A9959C";
shapes = (
{
closed = 1;
nodes = (
(374.325,33,o),
(405,59,o),
(432,112,cs),
(516,270,o),
(604,371,o),
(699,489,cs),
(746,547,o),
(757,566,o),
(767,617,cs),
(779,677,o),
(747.325,720,o),
(694.325,720,cs),
(663.325,720,o),
(637.325,714,o),
(573.325,638,cs),
(473.325,519,o),
(379.325,396,o),
(309.325,243,c),
(353,290,l),
(321,356,o),
(298,502,o),
(238,592,cs),
(215,626,o),
(198,640,o),
(167,640,cs),
(108,640,o),
(79.325,606,o),
(71.325,564,cs),
(62.325,521,o),
(81.325,489,o),
(96.325,459,cs),
(140.325,370,o),
(145.325,317,o),
(209.325,134,cs),
(234.325,60,o),
(257.325,33,o),
(317.325,33,cs)
);
}
);
vertWidth = 0;
width = 689;
},
{
associatedMasterId = "5DCC2EB0-DF11-4824-93BF-E616AA6EE2C6";
layerId = "66739A13-3AB9-4E7B-B17F-CB2B60388854";
name = transformed;
shapes = (
{
closed = 1;
nodes = (
(409,31.12,o),
(429,55.48,o),
(445,100,cs),
(502,246.16,o),
(568,341.92,o),
(647,450.28,cs),
(682,499,o),
(687,507.4,o),
(687,550.24,cs),
(687,600.64,o),
(655,641.8,o),
(602,641.8,cs),
(571,641.8,o),
(546,636.76,o),
(497,572.92,cs),
(414,464.56,o),
(346,348.64,o),
(302,207.52,c),
(348,257.08,l),
(292,324.28,o),
(261,514.12,o),
(169,603.16,cs),
(139,631.72,o),
(113,639.28,o),
(82,639.28,cs),
(23,639.28,o),
(-3,604.84,o),
(-3,569.56,cs),
(-3,533.44,o),
(22,506.56,o),
(43,481.36,cs),
(117,391.48,o),
(100,305.8,o),
(224,115.96,cs),
(264,53.8,o),
(292,31.12,o),
(352,31.12,cs)
);
}
);
vertWidth = 0;
width = 689;
}
);
unicode = 86;
userData = {
KernOnName = V;
};
}
{
color = 4;
glyphname = asciicircum;
layers = (
{
layerId = "DC44E50C-9AA1-421C-802C-D4D023281425";
shapes = (
{
closed = 1;
nodes = (
(533,449,o),
(544,462,o),
(544,478,cs),
(544,514,o),
(495,515,o),
(387,657,cs),
(356,699,o),
(339,709,o),
(310,709,cs),
(271,709,o),
(268,687,o),
(206,634,cs),
(77,525,o),
(67,505,o),
(67,483,cs),
(67,468,o),
(84,454,o),
(106,454,cs),
(136,454,o),
(152,470,o),
(318,647,c),
(301,646,l),
(427,489,o),
(453,449,o),
(513,449,cs)
);
}
);
vertWidth = 0;
width = 610;
},
{
layerId = "FA16BA0A-39E2-4955-BC33-721AB190E0D3";
shapes = (
{
closed = 1;
nodes = (
(530,416,o),
(564,441,o),
(564,473,cs),
(564,517,o),
(501,526,o),
(404,662,cs),
(376,702,o),
(353,710,o),
(320,710,cs),
(263,710,o),
(246,702,o),
(187,652,cs),
(59,545,o),
(47,523,o),
(47,490,cs),
(47,454,o),
(91,411,o),
(134,411,cs),
(173,411,o),
(188,423,o),
(336,582,c),
(263,584,l),
(361,457,o),
(415,416,o),
(479,416,cs)
);
}
);
vertWidth = 0;
width = 610;
},
{
layerId = "365BB766-143C-4A52-A3A9-25E29A0F4411";
shapes = (
{
closed = 1;
nodes = (
(533,449,o),
(544,462,o),
(544,478,cs),
(544,514,o),
(495,515,o),
(387,657,cs),
(356,699,o),
(339,709,o),
(310,709,cs),
(271,709,o),
(268,687,o),
(206,634,cs),
(77,525,o),
(67,505,o),
(67,483,cs),
(67,468,o),
(84,454,o),
(106,454,cs),
(136,454,o),
(152,470,o),
(318,647,c),
(301,646,l),
(427,489,o),
(453,449,o),
(513,449,cs)
);
}
);
vertWidth = 0;
width = 610;
},
{
layerId = "5DCC2EB0-DF11-4824-93BF-E616AA6EE2C6";
shapes = (
{
closed = 1;
nodes = (
(530,416,o),
(564,441,o),
(564,473,cs),
(564,517,o),
(501,526,o),
(404,662,cs),
(376,702,o),
(353,710,o),
(320,710,cs),
(263,710,o),
(246,702,o),
(187,652,cs),
(59,545,o),
(47,523,o),
(47,490,cs),
(47,454,o),
(91,411,o),
(134,411,cs),
(173,411,o),
(188,423,o),
(336,582,c),
(263,584,l),
(361,457,o),
(415,416,o),
(479,416,cs)
);
}
);
vertWidth = 0;
width = 610;
},
{
layerId = master01;
shapes = (
{
closed = 1;
nodes = (
(578,449,o),
(587,462,o),
(591.403,478,cs),
(598.403,514,o),
(549.403,515,o),
(469.403,657,cs),
(447.403,699,o),
(432.403,709,o),
(403.403,709,cs),
(364.403,709,o),
(356.403,687,o),
(284.403,634,cs),
(133.403,525,o),
(119.403,505,o),
(115.403,483,cs),
(112.403,468,o),
(129,454,o),
(155,454,cs),
(185,454,o),
(204,470,o),
(405,647,c),
(388,646,l),
(483,489,o),
(501,449,o),
(561,449,cs)
);
}
);
vertWidth = 0;
width = 610;
},
{
layerId = "FAD04859-55EE-48D6-A0AA-73DE2A79512F";
shapes = (
{
closed = 1;
nodes = (
(564,416,o),
(599,431,o),
(607,467,cs),
(616,517,o),
(556,520,o),
(486,656,cs),
(466,696,o),
(440,710,o),
(407,710,cs),
(362,710,o),
(329,697,o),
(266,652,cs),
(117,545,o),
(100.896,523,o),
(93.896,490,cs),
(86.881,453.922,o),
(123.514,411,o),
(169,411,cs),
(208,411,o),
(226,423,o),
(405,582,c),
(333,584,l),
(405,457,o),
(451,416,o),
(518,416,cs)
);
}
);
vertWidth = 0;
width = 610;
},
{
layerId = "0998268F-450B-429A-9175-FFA5E463F4E3";
shapes = (
{
closed = 1;
nodes = (
(578,449,o),
(587,462,o),
(591.403,478,cs),
(598.403,514,o),
(549.403,515,o),
(469.403,657,cs),
(447.403,699,o),
(432.403,709,o),
(403.403,709,cs),
(364.403,709,o),
(356.403,687,o),
(284.403,634,cs),
(133.403,525,o),
(119.403,505,o),
(115.403,483,cs),
(112.403,468,o),
(129,454,o),
(155,454,cs),
(185,454,o),
(204,470,o),
(405,647,c),
(388,646,l),
(483,489,o),
(501,449,o),
(561,449,cs)
);
}
);
vertWidth = 0;
width = 610;
},
{
layerId = "60E1EE18-36F5-475C-BAEC-6556E4A9959C";
shapes = (
{
closed = 1;
nodes = (
(564,416,o),
(599,431,o),
(607,467,cs),
(616,517,o),
(556,520,o),
(486,656,cs),
(466,696,o),
(440,710,o),
(407,710,cs),
(362,710,o),
(329,697,o),
(266,652,cs),
(117,545,o),
(100.896,523,o),
(93.896,490,cs),
(86.881,453.922,o),
(123.514,411,o),
(169,411,cs),
(208,411,o),
(226,423,o),
(405,582,c),
(333,584,l),
(405,457,o),
(451,416,o),
(518,416,cs)
);
}
);
vertWidth = 0;
width = 610;
}
);
unicode = 94;
userData = {
KernOnSpecialSpacing = {
L = NoKerning;
R = NoKerning;
};
};
}
{
color = 4;
glyphname = grave;
layers = (
{
layerId = "DC44E50C-9AA1-421C-802C-D4D023281425";
shapes = (
{
closed = 1;
nodes = (
(317.679,477,o),
(342.375,500.625,o),
(287,556,cs),
(244,600,o),
(191,640,o),
(147,736,cs),
(124,786,o),
(104,809,o),
(72,809,cs),
(38,809,o),
(8,793,o),
(49,715,cs),
(93,632,o),
(169,538,o),
(234,495,cs),
(253,483,o),
(270,477,o),
(284,477,cs)
);
}
);
vertWidth = 0;
width = 360;
},
{
layerId = "FA16BA0A-39E2-4955-BC33-721AB190E0D3";
shapes = (
{
closed = 1;
nodes = (
(340,477,o),
(360,552,o),
(300,607,cs),
(258,645,o),
(225,686,o),
(202,749,cs),
(185,796,o),
(147,810,o),
(103,810,cs),
(38,810,o),
(-15,747,o),
(21,667,cs),
(50,602,o),
(110,541,o),
(161,510,cs),
(196,489,o),
(233,477,o),
(265,477,cs)
);
}
);
vertWidth = 0;
width = 350;
},
{
layerId = "365BB766-143C-4A52-A3A9-25E29A0F4411";
shapes = (
{
closed = 1;
nodes = (
(317.679,477,o),
(342.375,500.625,o),
(287,556,cs),
(244,600,o),
(191,640,o),
(147,736,cs),
(124,786,o),
(104,809,o),
(72,809,cs),
(38,809,o),
(8,793,o),
(49,715,cs),
(93,632,o),
(169,538,o),
(234,495,cs),
(253,483,o),
(270,477,o),
(284,477,cs)
);
}
);
vertWidth = 0;
width = 360;
},
{
layerId = "5DCC2EB0-DF11-4824-93BF-E616AA6EE2C6";
shapes = (
{
closed = 1;
nodes = (
(340,477,o),
(360,552,o),
(300,607,cs),
(258,645,o),
(225,686,o),
(202,749,cs),
(185,796,o),
(147,810,o),
(103,810,cs),
(38,810,o),
(-15,747,o),
(21,667,cs),
(50,602,o),
(110,541,o),
(161,510,cs),
(196,489,o),
(233,477,o),
(265,477,cs)
);
}
);
vertWidth = 0;
width = 350;
},
{
layerId = master01;
shapes = (
{
closed = 1;
nodes = (
(363.769,477,o),
(393.769,501,o),
(348.769,556,cs),
(314.769,600,o),
(269.769,640,o),
(244.769,736,cs),
(231.769,786,o),
(216.769,809,o),
(184.769,809,cs),
(156,809,o),
(124,792,o),
(149,715,cs),
(176,632,o),
(234,538,o),
(290,495,cs),
(305,484,o),
(318,477,o),
(329.769,477,cs)
);
}
);
vertWidth = 0;
width = 360;
},
{
layerId = "FAD04859-55EE-48D6-A0AA-73DE2A79512F";
shapes = (
{
closed = 1;
nodes = (
(383.639,477,o),
(419,552,o),
(368,607,cs),
(333,645,o),
(307,686,o),
(297,749,cs),
(288,796,o),
(252,810,o),
(207,810,cs),
(139,810,o),
(96,748,o),
(114,668,cs),
(129,603,o),
(173,541,o),
(214,510,cs),
(243,489,o),
(276.639,477,o),
(308.639,477,cs)
);
}
);
vertWidth = 0;
width = 350;
},
{
layerId = "0998268F-450B-429A-9175-FFA5E463F4E3";
shapes = (
{
closed = 1;
nodes = (
(363.769,477,o),
(393.769,501,o),
(348.769,556,cs),
(314.769,600,o),
(269.769,640,o),
(244.769,736,cs),
(231.769,786,o),
(216.769,809,o),
(184.769,809,cs),
(156,809,o),
(124,792,o),
(149,715,cs),
(176,632,o),
(234,538,o),
(290,495,cs),
(305,484,o),
(318,477,o),
(329.769,477,cs)
);
}
);
vertWidth = 0;
width = 360;
},
{
layerId = "60E1EE18-36F5-475C-BAEC-6556E4A9959C";
shapes = (
{
closed = 1;
nodes = (
(383.639,477,o),
(419,552,o),
(368,607,cs),
(333,645,o),
(307,686,o),
(297,749,cs),
(288,796,o),
(252,810,o),
(207,810,cs),
(139,810,o),
(96,748,o),
(114,668,cs),
(129,603,o),
(173,541,o),
(214,510,cs),
(243,489,o),
(276.639,477,o),
(308.639,477,cs)
);
}
);
vertWidth = 0;
width = 350;
}
);
unicode = 96;
userData = {
KernOnSpecialSpacing = {
L = NoKerning;
R = NoKerning;
};
};
}
{
color = 4;
glyphname = a;
kernLeft = KO_a;
kernRight = KO_a;
layers = (
{
anchors = (
{
name = bottom;
pos = (315,0);
},
{
name = ogonek;
pos = (556,-7);
},
{
name = top;
pos = (315,485);
}
);
background = {
shapes = (
{
closed = 0;
nodes = (
(335,462,l),
(262,461,o),
(90,334,o),
(90,153,cs),
(90,83,o),
(114,61,o),
(176,61,cs),
(276,61,o),
(396,190,o),
(427,418,c),
(460,271,o),
(482,183,o),
(574,71,c)
);
}
);
};
layerId = "DC44E50C-9AA1-421C-802C-D4D023281425";
shapes = (
{
closed = 1;
nodes = (
(300,-10,o),
(416,84,o),
(445,341,c),
(419,342,l),
(425,151,o),
(469,82,o),
(519,14,cs),
(529,0,o),
(538,-7,o),
(556,-7,cs),
(580,-7,o),
(593,28,o),
(575,51,cs),
(506,142,o),
(487,215,o),
(476,338,cs),
(473,378,o),
(454,404,o),
(428,404,cs),
(408,404,o),
(399,390,o),
(395,367,cs),
(362,163,o),
(288,54,o),
(197,54,cs),
(159,54,o),
(146,61,o),
(117,93,c),
(163,36,l),
(136,92,o),
(132,120,o),
(132,163,cs),
(132,289,o),
(225,414,o),
(370,431,cs),
(391,433,o),
(400,445,o),
(400,460,cs),
(400,482,o),
(382,494,o),
(358,494,cs),
(186,494,o),
(61,320,o),
(61,163,cs),
(61,58,o),
(114,-10,o),
(201,-10,cs)
);
}
);
vertWidth = 0;
width = 601;
},
{
anchors = (
{
name = bottom;
pos = (347,0);
},
{
name = ogonek;
pos = (622,0);
},
{
name = top;
pos = (338,515);
}
);
layerId = "FA16BA0A-39E2-4955-BC33-721AB190E0D3";
shapes = (
{
closed = 1;
nodes = (
(315,-10,o),
(423,52,o),
(483,255,c),
(423,249,l),
(462,141,o),
(493,87,o),
(551,16,cs),
(561,4,o),
(577,-7,o),
(602,-7,cs),
(678,-7,o),
(716,105,o),
(677,147,cs),
(606,223,o),
(590,285,o),
(550,372,cs),
(533,413,o),
(489,446,o),
(432,446,cs),
(399,446,o),
(367,426,o),
(362,392,cs),
(339,238,o),
(276,158,o),
(214,158,cs),
(182,158,o),
(160,164,o),
(127,187,c),
(201,73,l),
(194,95,o),
(192,108,o),
(192,127,cs),
(192,242,o),
(281,358,o),
(405,381,cs),
(422,385,o),
(437,397,o),
(437,420,cs),
(437,488,o),
(393,526,o),
(337,526,cs),
(186,526,o),
(25,318,o),
(25,143,cs),
(25,51,o),
(99,-10,o),
(207,-10,cs)
);
}
);
vertWidth = 0;
width = 704;
},
{
anchors = (
{
name = bottom;
pos = (315,25);
},
{
name = ogonek;
pos = (570,-35);
},
{
name = top;
pos = (315,485);
}
);
background = {
shapes = (
{
closed = 0;
nodes = (
(326,462,l),
(253,461,o),
(81,334,o),
(81,153,cs),
(81,83,o),
(105,61,o),
(167,61,cs),
(267,61,o),
(387,190,o),
(418,418,c),
(451,271,o),
(473,183,o),
(565,71,c)
);
}
);
};
layerId = "365BB766-143C-4A52-A3A9-25E29A0F4411";
shapes = (
{
closed = 1;
nodes = (
(299,34,o),
(422,124,o),
(448,371,c),
(419,372,l),
(426,145,o),
(476,63,o),
(535,-16,cs),
(545,-29,o),
(551,-37,o),
(567,-37,cs),
(597,-37,o),
(611,-4,o),
(591,21,cs),
(509,130,o),
(489,219,o),
(476,368,cs),
(473,408,o),
(454,434,o),
(428,434,cs),
(408,434,o),
(399,420,o),
(395,397,cs),
(363,202,o),
(286,98,o),
(193,98,cs),
(155,98,o),
(142,105,o),
(113,137,c),
(167,73,l),
(141,109,o),
(132,125,o),
(132,159,cs),
(132,264,o),
(219,363,o),
(393,381,cs),
(416,384,o),
(425,395,o),
(425,410,cs),
(425,432,o),
(407,444,o),
(383,444,cs),
(198,444,o),
(61,297,o),
(61,157,cs),
(61,81,o),
(112,34,o),
(197,34,cs)
);
}
);
vertWidth = 0;
width = 615;
},
{
anchors = (
{
name = bottom;
pos = (323,35);
},
{
name = ogonek;
pos = (627,-22);
},
{
name = top;
pos = (323,488);
}
);
layerId = "5DCC2EB0-DF11-4824-93BF-E616AA6EE2C6";
shapes = (
{
closed = 1;
nodes = (
(311,40,o),
(424,88,o),
(473,255,c),
(413,249,l),
(446,121,o),
(479,62,o),
(541,-14,cs),
(551,-26,o),
(567,-37,o),
(592,-37,cs),
(668,-37,o),
(706,75,o),
(669,120,cs),
(598,207,o),
(584,275,o),
(540,372,cs),
(523,413,o),
(479,446,o),
(422,446,cs),
(389,446,o),
(357,426,o),
(352,392,cs),
(334,270,o),
(272,208,o),
(214,208,cs),
(182,208,o),
(160,214,o),
(127,237,c),
(201,123,l),
(194,145,o),
(192,158,o),
(192,177,cs),
(192,256,o),
(269,331,o),
(375,351,cs),
(392,355,o),
(407,367,o),
(407,390,cs),
(407,467,o),
(375,496,o),
(307,496,cs),
(171,496,o),
(25,331,o),
(25,193,cs),
(25,101,o),
(99,40,o),
(207,40,cs)
);
}
);
vertWidth = 0;
width = 704;
},
{
anchors = (
{
name = bottom;
pos = (266,0);
},
{
name = ogonek;
pos = (505,-7);
},
{
name = top;
pos = (363,485);
}
);
layerId = master01;
shapes = (
{
closed = 1;
nodes = (
(250,-10,o),
(388,92,o),
(473,371,c),
(444,372,l),
(409,163,o),
(434,86,o),
(473,14,cs),
(480,0,o),
(488,-7,o),
(506,-7,cs),
(530,-7,o),
(550,28,o),
(536,51,cs),
(483,148,o),
(485,232,o),
(501,368,cs),
(506,408,o),
(492,434,o),
(466,434,cs),
(446,434,o),
(434,420,o),
(425,397,cs),
(345,174,o),
(250,54,o),
(159,54,cs),
(121,54,o),
(109,61,o),
(87,93,c),
(121,36,l),
(105,92,o),
(107,120,o),
(116,163,cs),
(141,289,o),
(258,411,o),
(402,431,cs),
(424,434,o),
(435,445,o),
(438,460,cs),
(442,482,o),
(427,494,o),
(403,494,cs),
(234,494,o),
(76,320,o),
(45,163,cs),
(24,58,o),
(63,-10,o),
(150,-10,cs)
);
}
);
vertWidth = 0;
width = 601;
},
{
anchors = (
{
name = bottom;
pos = (295.401,0);
},
{
name = ogonek;
pos = (570.401,0);
},
{
name = top;
pos = (389.402,515);
}
);
layerId = "FAD04859-55EE-48D6-A0AA-73DE2A79512F";
shapes = (
{
closed = 1;
nodes = (
(261.401,-10,o),
(390,44,o),
(482.401,255,c),
(421.401,249,l),
(438.401,141,o),
(458,87,o),
(495,22,cs),
(505,4,o),
(524,-7,o),
(549.401,-7,cs),
(640,-7,o),
(675,95,o),
(644,137,cs),
(589,213,o),
(585,275,o),
(562,362,cs),
(554,403,o),
(521,446,o),
(469.401,446,cs),
(436.401,446,o),
(400.401,426,o),
(388.401,392,cs),
(335.401,238,o),
(256.401,158,o),
(194.401,158,cs),
(162.401,158,o),
(141.401,164,o),
(112.401,187,c),
(164.401,73,l),
(161.401,95,o),
(162.401,108,o),
(165.401,127,cs),
(188.401,242,o),
(301.401,358,o),
(429.401,381,cs),
(447.401,385,o),
(464.401,397,o),
(469.401,420,cs),
(483.401,488,o),
(446.401,526,o),
(390.401,526,cs),
(239.401,526,o),
(41,338,o),
(6,163,cs),
(-13,71,o),
(45.401,-10,o),
(153.401,-10,cs)
);
}
);
vertWidth = 0;
width = 701;
},
{
anchors = (
{
name = bottom;
pos = (268,25);
},
{
name = ogonek;
pos = (511,-35);
},
{
name = top;
pos = (360,485);
}
);
layerId = "0998268F-450B-429A-9175-FFA5E463F4E3";
shapes = (
{
closed = 1;
nodes = (
(258,34,o),
(396,124,o),
(470,371,c),
(437,371,l),
(395,145,o),
(436,65,o),
(480,-16,cs),
(487,-29,o),
(492,-37,o),
(508,-37,cs),
(538,-37,o),
(558,-4,o),
(543,21,cs),
(483,130,o),
(481,219,o),
(498,368,cs),
(503,408,o),
(489,434,o),
(463,434,cs),
(443,434,o),
(431,420,o),
(422,397,cs),
(352,202,o),
(254,98,o),
(161,98,cs),
(123,98,o),
(111,105,o),
(88,137,c),
(130,73,l),
(111,109,o),
(105,125,o),
(112,159,cs),
(133,264,o),
(240,363,o),
(417,381,cs),
(441,384,o),
(452,395,o),
(455,410,cs),
(459,432,o),
(443,444,o),
(418,444,cs),
(234,444,o),
(72,310,o),
(44,170,cs),
(29,94,o),
(69,34,o),
(158,34,cs)
);
}
);
vertWidth = 0;
width = 612;
},
{
anchors = (
{
name = bottom;
pos = (277,35);
},
{
name = ogonek;
pos = (570,-22);
},
{
name = top;
pos = (368,488);
}
);
layerId = "60E1EE18-36F5-475C-BAEC-6556E4A9959C";
shapes = (
{
closed = 1;
nodes = (
(266,40,o),
(389,88,o),
(471,255,c),
(410,249,l),
(417,121,o),
(436,70,o),
(477,1,cs),
(490,-20,o),
(513,-37,o),
(550,-37,cs),
(641,-37,o),
(679,59,o),
(640,120,cs),
(586,207,o),
(586,275,o),
(561,372,cs),
(553,413,o),
(515,446,o),
(458,446,cs),
(425,446,o),
(389,426,o),
(377,392,cs),
(335,270,o),
(261,208,o),
(203,208,cs),
(171,208,o),
(150,214,o),
(121,237,c),
(173,123,l),
(170,145,o),
(171,158,o),
(174,177,cs),
(190,256,o),
(282,331,o),
(392,351,cs),
(410,355,o),
(427,367,o),
(432,390,cs),
(447,467,o),
(421,496,o),
(353,496,cs),
(217,496,o),
(44,357,o),
(17,219,cs),
(-2,127,o),
(54,40,o),
(162,40,cs)
);
}
);
vertWidth = 0;
width = 702;
},
{
associatedMasterId = "365BB766-143C-4A52-A3A9-25E29A0F4411";
layerId = "5FA27709-68CA-47DE-B57D-DEE8A333520E";
name = anotherone;
shapes = (
{
closed = 1;
nodes = (
(375,189,o),
(300,78,o),
(207,78,cs),
(169,78,o),
(156,85,o),
(127,117,c),
(173,60,l),
(151,106,o),
(146,128,o),
(146,163,cs),
(146,289,o),
(239,410,o),
(379,431,cs),
(400,433,o),
(409,445,o),
(409,460,cs),
(409,482,o),
(391,494,o),
(367,494,cs),
(198,494,o),
(75,320,o),
(75,163,cs),
(75,73,o),
(126,14,o),
(211,14,cs),
(313,14,o),
(435,109,o),
(462,371,c),
(433,372,l),
(440,145,o),
(490,63,o),
(549,-16,cs),
(559,-29,o),
(565,-37,o),
(581,-37,cs),
(611,-37,o),
(625,-4,o),
(605,21,cs),
(523,130,o),
(503,219,o),
(490,368,cs),
(487,408,o),
(468,434,o),
(442,434,cs),
(422,434,o),
(413,420,o),
(409,397,cs)
);
}
);
vertWidth = 0;
width = 644;
}
);
unicode = 97;
userData = {
KernOnName = a;
};
}
{
color = 4;
glyphname = k;
kernLeft = KO_k;
kernRight = KO_k;
layers = (
{
anchors = (
{
name = bottom;
pos = (263,0);
},
{
name = top;
pos = (176,750);
}
);
background = {
shapes = (
{
closed = 0;
nodes = (
(135,755,l),
(170,524,o),
(112,236,o),
(125,50,cs)
);
},
{
closed = 0;
nodes = (
(495,452,l),
(388,431,o),
(227,300,o),
(227,224,cs),
(227,165,o),
(352,91,o),
(500,53,cs)
);
}
);
};
layerId = "DC44E50C-9AA1-421C-802C-D4D023281425";
shapes = (
{
closed = 1;
nodes = (
(491,-7,o),
(501,3,o),
(501,19,cs),
(501,36,o),
(491,50,o),
(438,68,cs),
(305.208,110.612,o),
(239,195,o),
(239,229,cs),
(239,275.567,o),
(346.247,383.516,o),
(444,424,cs),
(471,435,o),
(485,447,o),
(485,468,cs),
(485,486,o),
(472.722,495,o),
(451,495,cs),
(374,495,o),
(172,330,o),
(172,229,cs),
(172,118,o),
(373,-7,o),
(471,-7,cs)
);
},
{
closed = 1;
nodes = (
(140.111,-10,o),
(149,1,o),
(149,25,cs),
(149,58,o),
(144,86.6,o),
(144,129,cs),
(144,253.938,o),
(156.508,296.043,o),
(195,544,cs),
(221,715,o),
(211,759,o),
(182,759,cs),
(163,759,o),
(152,749,o),
(149,731,cs),
(142,686,o),
(148,679,o),
(127,541,cs),
(100.983,373.236,o),
(75,199.167,o),
(75,117,cs),
(75,15,o),
(99.5,-10,o),
(124,-10,cs)
);
}
);
userData = {
com.typemytype.robofont.Image.Sharpness = 0.4;
};
vertWidth = 0;
width = 548;
},
{
anchors = (
{
name = bottom;
pos = (332,0);
},
{
name = top;
pos = (162,750);
}
);
layerId = "FA16BA0A-39E2-4955-BC33-721AB190E0D3";
shapes = (
{
closed = 1;
nodes = (
(601,-7,o),
(629,25,o),
(629,75,cs),
(629,112,o),
(610,152,o),
(559,163,cs),
(424,195,o),
(383,237,o),
(383,259,cs),
(383,278,o),
(445,326,o),
(545,355,cs),
(613,375,o),
(629,401,o),
(629,442,cs),
(629,497,o),
(591,527,o),
(533,527,cs),
(428,527,o),
(192,376,o),
(192,229,cs),
(192,138,o),
(416,-7,o),
(547,-7,cs)
);
},
{
closed = 1;
nodes = (
(204,-10,o),
(229,13,o),
(229,67,cs),
(229,112,o),
(224,151,o),
(224,209,cs),
(224,310.013,o),
(257,421,o),
(257,546,cs),
(257,702,o),
(221,760,o),
(148,760,cs),
(101,760,o),
(73,729,o),
(73,681,cs),
(73,655,o),
(82,624,o),
(82,534,cs),
(82,370,o),
(55,212,o),
(55,137,cs),
(55,19,o),
(107,-10,o),
(159,-10,cs)
);
}
);
userData = {
com.typemytype.robofont.Image.Sharpness = 0.4;
};
vertWidth = 0;
width = 678;
},
{
anchors = (
{
name = bottom;
pos = (263,0);
},
{
name = top;
pos = (176,750);
}
);
background = {
shapes = (
{
closed = 0;
nodes = (
(135,755,l),
(170,524,o),
(112,236,o),
(125,50,cs)
);
},
{
closed = 0;
nodes = (
(495,452,l),
(388,431,o),
(227,300,o),
(227,224,cs),
(227,165,o),
(352,91,o),
(500,53,cs)
);
}
);
};
backgroundImage = {
imagePath = b.png;
pos = (-1523.246,-580.57);
scale = (2.5803,2.5803);
};
layerId = "365BB766-143C-4A52-A3A9-25E29A0F4411";
shapes = (
{
closed = 1;
nodes = (
(521,-7,o),
(531,3,o),
(531,19,cs),
(531,36,o),
(521,50,o),
(468,66,cs),
(319,109,o),
(239,179.224,o),
(239,209,cs),
(239,248.828,o),
(329.201,339.388,o),
(414,374,cs),
(441,385,o),
(455,397,o),
(455,418,cs),
(455,436,o),
(443,445,o),
(421,445,cs),
(352.28,445,o),
(172,298.593,o),
(172,209,cs),
(172,107.407,o),
(407,-7,o),
(501,-7,cs)
);
},
{
closed = 1;
nodes = (
(140.111,-10,o),
(149,1,o),
(149,25,cs),
(149,58,o),
(144,86.6,o),
(144,129,cs),
(144,253.938,o),
(153.56,296.376,o),
(192,544,cs),
(218,715,o),
(209,759,o),
(179,759,cs),
(160,760,o),
(149,749,o),
(146,731,cs),
(139,686,o),
(145,679,o),
(124,541,cs),
(98.017,373.457,o),
(75,199.167,o),
(75,117,cs),
(75,15,o),
(99.5,-10,o),
(124,-10,cs)
);
}
);
userData = {
com.typemytype.robofont.Image.Sharpness = 0.4;
};
vertWidth = 0;
width = 558;
},
{
anchors = (
{
name = bottom;
pos = (332,0);
},
{
name = top;
pos = (162,750);
}
);
layerId = "5DCC2EB0-DF11-4824-93BF-E616AA6EE2C6";
shapes = (
{
closed = 1;
nodes = (
(602,-7,o),
(627,21,o),
(627,65,cs),
(627,114,o),
(601,166,o),
(533,180,cs),
(405,211,o),
(363,233,o),
(363,249,cs),
(363,265.047,o),
(415,305,o),
(498,330,cs),
(565,350,o),
(582,371,o),
(582,407,cs),
(582,468,o),
(544,502,o),
(486,502,cs),
(389,502,o),
(172,363.668,o),
(172,229,cs),
(172,138,o),
(414,-7,o),
(555,-7,cs)
);
},
{
closed = 1;
nodes = (
(206,-10,o),
(229,9,o),
(229,53,cs),
(229,102,o),
(224,145,o),
(224,209,cs),
(224,310.013,o),
(261,420.605,o),
(261,546,cs),
(261,702,o),
(221,760,o),
(139,760,cs),
(94,760,o),
(73,736,o),
(73,691,cs),
(73,655,o),
(82,624,o),
(82,544,cs),
(82,375.678,o),
(55,213.591,o),
(55,137,cs),
(55,19,o),
(110,-10,o),
(164,-10,cs)
);
}
);
userData = {
com.typemytype.robofont.Image.Sharpness = 0.4;
};
vertWidth = 0;
width = 678;
},
{
anchors = (
{
name = bottom;
pos = (215.366,0);
},
{
name = top;
pos = (278.367,750);
}
);
layerId = master01;
shapes = (
{
closed = 1;
nodes = (
(442.366,-7,o),
(454.366,3,o),
(457.366,19,cs),
(460.366,36,o),
(453.366,50,o),
(404.366,68,cs),
(279.366,111,o),
(230,191,o),
(237,225,cs),
(246,272,o),
(375.366,384,o),
(481.366,424,cs),
(510.366,435,o),
(526.366,447,o),
(531.366,468,cs),
(534.366,486,o),
(524.366,495,o),
(502.366,495,cs),
(425.366,495,o),
(192,334,o),
(172,233,cs),
(150,122,o),
(324.366,-7,o),
(422.366,-7,cs)
);
},
{
closed = 1;
nodes = (
(90.366,-10,o),
(101.366,1,o),
(106.366,25,cs),
(113.366,58,o),
(113.366,87,o),
(122.366,129,cs),
(147.366,254,o),
(168.366,296,o),
(256.366,544,cs),
(316.366,715,o),
(315.366,759,o),
(286.366,759,cs),
(267.366,759,o),
(254.366,749,o),
(247.366,731,cs),
(231.366,686,o),
(236.366,679,o),
(187.366,541,cs),
(128.366,373,o),
(67.366,199,o),
(50.366,117,cs),
(30.366,15,o),
(49.366,-10,o),
(74.366,-10,cs)
);
}
);
vertWidth = 0;
width = 548;
},
{
anchors = (
{
name = bottom;
pos = (280.819,0);
},
{
name = top;
pos = (260.82,750);
}
);
layerId = "FAD04859-55EE-48D6-A0AA-73DE2A79512F";
shapes = (
{
closed = 1;
nodes = (
(549.819,-7,o),
(579.819,21,o),
(588.819,65,cs),
(598,112,o),
(583,161,o),
(518,175,cs),
(396,206,o),
(359,233,o),
(362,249,cs),
(366,270,o),
(446,317,o),
(565,350,cs),
(636,370,o),
(657,391,o),
(664,427,cs),
(677,491,o),
(644.819,527,o),
(586.819,527,cs),
(475.819,527,o),
(198,386,o),
(169,239,cs),
(151,148,o),
(361.819,-7,o),
(502.819,-7,cs)
);
},
{
closed = 1;
nodes = (
(152.819,-10,o),
(183,19,o),
(192,63,cs),
(201,112,o),
(201.819,145,o),
(214.819,209,cs),
(234.819,310,o),
(293.819,421,o),
(318.819,546,cs),
(349.819,702,o),
(321.819,760,o),
(239.819,760,cs),
(194.819,760,o),
(168.819,736,o),
(159.819,691,cs),
(152.819,655,o),
(155.819,624,o),
(139.819,544,cs),
(105.819,376,o),
(46.819,214,o),
(30.819,137,cs),
(7.819,19,o),
(56.819,-10,o),
(110.819,-10,cs)
);
}
);
vertWidth = 0;
width = 678;
},
{
anchors = (
{
name = bottom;
pos = (215.366,0);
},
{
name = top;
pos = (278.367,750);
}
);
layerId = "0998268F-450B-429A-9175-FFA5E463F4E3";
shapes = (
{
closed = 1;
nodes = (
(472.366,-7,o),
(484.366,3,o),
(487.366,19,cs),
(490.366,36,o),
(483.366,50,o),
(433.366,66,cs),
(293.366,109,o),
(227.366,179,o),
(233.366,209,cs),
(241.366,249,o),
(349.366,339,o),
(441.366,374,cs),
(470.366,385,o),
(486.366,397,o),
(491.366,418,cs),
(494.366,436,o),
(484.366,445,o),
(462.366,445,cs),
(393.366,445,o),
(186,309,o),
(168,219,cs),
(147,117,o),
(358.366,-7,o),
(452.366,-7,cs)
);
},
{
closed = 1;
nodes = (
(90.366,-10,o),
(101.366,1,o),
(106.366,25,cs),
(113.366,58,o),
(113.366,87,o),
(122.366,129,cs),
(147.366,254,o),
(165.366,296,o),
(253.366,544,cs),
(313.366,715,o),
(313.366,759,o),
(283.366,759,cs),
(264.366,760,o),
(251.366,749,o),
(244.366,731,cs),
(228.366,686,o),
(233.366,679,o),
(184.366,541,cs),
(125.366,373,o),
(67.366,199,o),
(50.366,117,cs),
(30.366,15,o),
(49.366,-10,o),
(74.366,-10,cs)
);
}
);
vertWidth = 0;
width = 558;
},
{
anchors = (
{
name = bottom;
pos = (280.819,0);
},
{
name = top;
pos = (260.82,750);
}
);
layerId = "60E1EE18-36F5-475C-BAEC-6556E4A9959C";
shapes = (
{
closed = 1;
nodes = (
(549.819,-7,o),
(579.819,21,o),
(588.819,65,cs),
(598,109,o),
(583,154,o),
(518,168,cs),
(396,199,o),
(359,221,o),
(362,237,cs),
(365,253,o),
(425,293,o),
(513,318,cs),
(585,338,o),
(604,366,o),
(611.819,407,cs),
(624.819,468,o),
(592.819,502,o),
(534.819,502,cs),
(437.819,502,o),
(193.819,364,o),
(166.819,229,cs),
(148.819,138,o),
(361.819,-7,o),
(502.819,-7,cs)
);
},
{
closed = 1;
nodes = (
(152.819,-10,o),
(185,4,o),
(194,48,cs),
(203,97,o),
(207,140,o),
(220,204,cs),
(240,305,o),
(299,416,o),
(324,541,cs),
(355,697,o),
(321.819,760,o),
(239.819,760,cs),
(194.819,760,o),
(168.819,736,o),
(159.819,691,cs),
(152.819,655,o),
(155.819,624,o),
(139.819,544,cs),
(105.819,376,o),
(46.819,214,o),
(30.819,137,cs),
(7.819,19,o),
(56.819,-10,o),
(110.819,-10,cs)
);
}
);
vertWidth = 0;
width = 678;
},
{
associatedMasterId = "DC44E50C-9AA1-421C-802C-D4D023281425";
layerId = "024B899D-8068-420F-B13D-E363D94F092A";
name = anotherone;
shapes = (
{
closed = 1;
nodes = (
(186,-12,o),
(217,15,o),
(213,48,cs),
(205,120,o),
(201,197,o),
(200,310,cs),
(199,457,o),
(198,623,o),
(166,767,cs),
(160,794,o),
(136,815,o),
(107,815,cs),
(58,815,o),
(40,776,o),
(49,741,cs),
(78,610,o),
(79,456,o),
(80,309,cs),
(81,212,o),
(82,118,o),
(93,40,cs),
(97,11,o),
(122,-12,o),
(153,-12,cs)
);
},
{
closed = 1;
nodes = (
(533,-7,o),
(560,20,o),
(560,53,cs),
(560,81,o),
(540,105,o),
(514,111,cs),
(404,141,o),
(287,209,o),
(287,229,cs),
(287,269,o),
(425,366,o),
(506,392,cs),
(534,401,o),
(555,422,o),
(555,451,cs),
(555,490,o),
(531,511,o),
(495,511,cs),
(397,511,o),
(167,333,o),
(167,229,cs),
(167,118,o),
(403,-7,o),
(500,-7,cs)
);
}
);
vertWidth = 0;
width = 548;
},
{
associatedMasterId = "365BB766-143C-4A52-A3A9-25E29A0F4411";
layerId = "5FA27709-68CA-47DE-B57D-DEE8A333520E";
name = anotherone;
shapes = (
{
closed = 1;
nodes = (
(186,-12,o),
(217,15,o),
(213,48,cs),
(205,120,o),
(201,197,o),
(200,310,cs),
(199,457,o),
(198,623,o),
(166,767,cs),
(160,794,o),
(136,815,o),
(107,815,cs),
(58,815,o),
(40,776,o),
(49,741,cs),
(78,610,o),
(79,456,o),
(80,309,cs),
(81,212,o),
(82,118,o),
(93,40,cs),
(97,11,o),
(122,-12,o),
(153,-12,cs)
);
},
{
closed = 1;
nodes = (
(533,-7,o),
(560,20,o),
(560,53,cs),
(560,81,o),
(540,105,o),
(514,111,cs),
(404,141,o),
(287,209,o),
(287,229,cs),
(287,269,o),
(425,366,o),
(506,392,cs),
(534,401,o),
(555,422,o),
(555,451,cs),
(555,490,o),
(531,511,o),
(495,511,cs),
(397,511,o),
(167,333,o),
(167,229,cs),
(167,118,o),
(403,-7,o),
(500,-7,cs)
);
}
);
vertWidth = 0;
width = 558;
},
{
associatedMasterId = "5DCC2EB0-DF11-4824-93BF-E616AA6EE2C6";
layerId = "66739A13-3AB9-4E7B-B17F-CB2B60388854";
name = transformed;
shapes = (
{
closed = 1;
nodes = (
(591.48,-17.58,o),
(615.48,11.54,o),
(615.48,57.3,cs),
(615.48,108.26,o),
(590.52,162.34,o),
(525.24,176.9,cs),
(402.36,209.14,o),
(362.04,232.02,o),
(362.04,248.66,cs),
(362.04,270.5,o),
(429.24,324.58,o),
(536.76,358.9,cs),
(601.08,379.7,o),
(617.4,401.54,o),
(617.4,438.98,cs),
(617.4,502.42,o),
(580.92,537.78,o),
(525.24,537.78,cs),
(418.68,537.78,o),
(178.68,380.74,o),
(178.68,227.86,cs),
(178.68,133.22,o),
(411,-17.58,o),
(546.36,-17.58,cs)
);
},
{
closed = 1;
nodes = (
(103.8,832.1,o),
(83.64,807.14,o),
(83.64,760.34,cs),
(83.64,722.9,o),
(92.28,690.66,o),
(92.28,607.46,cs),
(92.28,410.9,o),
(66.36,221.62,o),
(66.36,132.18,cs),
(66.36,9.46,o),
(119.16,-20.7,o),
(171,-20.7,cs),
(211.32,-20.7,o),
(233.4,-0.94,o),
(233.4,44.82,cs),
(233.4,95.78,o),
(228.6,140.5,o),
(228.6,207.06,cs),
(228.6,327.7,o),
(264.12,459.78,o),
(264.12,609.54,cs),
(264.12,771.78,o),
(225.72,832.1,o),
(147,832.1,cs)
);
}
);
vertWidth = 0;
width = 678;
}
);
unicode = 107;
userData = {
KernOnName = k;
};
}
{
color = 4;
glyphname = y;
kernLeft = KO_y;
kernRight = KO_y;
layers = (
{
anchors = (
{
name = bottom;
pos = (282,-250);
},
{
name = top;
pos = (270,485);
}
);
background = {
shapes = (
{
closed = 0;
nodes = (
(140,451,l),
(119.575,289.867,o),
(153.29,163,o),
(243,163,cs),
(344.16,163,o),
(432.972,271.803,o),
(452,449,c),
(441.85,292.688,o),
(472,215.533,o),
(472,45,cs),
(472,-115.215,o),
(365.598,-176.481,o),
(267,-140,cs)
);
}
);
};
backgroundImage = {
imagePath = b.png;
pos = (-6701.815,-580.57);
scale = (2.5803,2.5803);
};
layerId = "DC44E50C-9AA1-421C-802C-D4D023281425";
shapes = (
{
closed = 1;
nodes = (
(401,-261,o),
(485,-187,o),
(485,-5,cs),
(485,187,o),
(445,231,o),
(462,400,cs),
(469.902,476.386,o),
(444.81,496,o),
(424,496,cs),
(404.28,496,o),
(399.002,489.019,o),
(395,452,cs),
(373.826,247.666,o),
(320.734,93,o),
(232,93,cs),
(160.379,93,o),
(127,226,o),
(139,421,cs),
(143,483,o),
(132,497,o),
(113,497,cs),
(88,497,o),
(68,472.102,o),
(68,343,cs),
(68,123.586,o),
(132,28,o),
(236,28,cs),
(294.859,28,o),
(379,67,o),
(427,271,c),
(397,299,l),
(400,127,o),
(418,66,o),
(418,-5,cs),
(418,-117.836,o),
(386,-194,o),
(281,-194,cs),
(178.7,-194,o),
(168.8,-164,o),
(138,-164,cs),
(117,-164,o),
(108,-175,o),
(108,-191,cs),
(108,-236.5,o),
(179.296,-261,o),
(283,-261,cs)
);
}
);
userData = {
com.typemytype.robofont.Image.Sharpness = 0.4;
};
vertWidth = 0;
width = 563;
},
{
anchors = (
{
name = bottom;
pos = (320,-250);
},
{
name = top;
pos = (300,515);
}
);
layerId = "FA16BA0A-39E2-4955-BC33-721AB190E0D3";
shapes = (
{
closed = 1;
nodes = (
(471,-261,o),
(575,-177,o),
(575,-5,cs),
(575,186,o),
(533,232,o),
(552,400,cs),
(561,480,o),
(510,522,o),
(450,522,cs),
(406,522,o),
(389,503,o),
(384,460,cs),
(371,351,o),
(326,253,o),
(256,253,cs),
(185,253,o),
(235,371,o),
(235,435,cs),
(235,479,o),
(206,523,o),
(129,523,cs),
(72,523,o),
(38,494,o),
(38,343,cs),
(38,158,o),
(124,78,o),
(266,78,cs),
(321,78,o),
(398,100,o),
(454,205,c),
(403,241,l),
(403,149,o),
(408,99,o),
(408,-5,cs),
(408,-57,o),
(385,-84,o),
(323,-84,cs),
(204,-84,o),
(184,-44,o),
(137,-44,cs),
(97,-44,o),
(74,-67,o),
(74,-110,cs),
(74,-196,o),
(140,-261,o),
(329,-261,cs)
);
}
);
userData = {
com.typemytype.robofont.Image.Sharpness = 0.4;
};
vertWidth = 0;
width = 623;
},
{
anchors = (
{
name = bottom;
pos = (282,-250);
},
{
name = top;
pos = (270,536);
}
);
background = {
shapes = (
{
closed = 0;
nodes = (
(140,451,l),
(119.575,289.867,o),
(153.29,163,o),
(243,163,cs),
(344.16,163,o),
(432.972,271.803,o),
(452,449,c),
(441.85,292.688,o),
(472,215.533,o),
(472,45,cs),
(472,-115.215,o),
(365.598,-176.481,o),
(267,-140,cs)
);
}
);
};
backgroundImage = {
imagePath = b.png;
pos = (-6701.815,-580.57);
scale = (2.5803,2.5803);
};
layerId = "365BB766-143C-4A52-A3A9-25E29A0F4411";
shapes = (
{
closed = 1;
nodes = (
(401,-261,o),
(485,-187,o),
(485,-5,cs),
(485,210.704,o),
(442.921,260.333,o),
(462,450,cs),
(470,526,o),
(445,546,o),
(424,546,cs),
(404,546,o),
(399,539,o),
(395,502,cs),
(376,320,o),
(321,183,o),
(232,183,cs),
(160,183,o),
(128,300,o),
(139,471,cs),
(143,533,o),
(132,547,o),
(113,547,cs),
(88,547,o),
(68,522,o),
(68,393,cs),
(68,201,o),
(132,118,o),
(236,118,cs),
(306,118,o),
(384,173,o),
(423,349,c),
(397,349,l),
(400.493,148.719,o),
(418,77.678,o),
(418,-5,cs),
(418,-117.836,o),
(386,-194,o),
(281,-194,cs),
(178.7,-194,o),
(168.8,-164,o),
(138,-164,cs),
(117,-164,o),
(108,-175,o),
(108,-191,cs),
(108,-236.5,o),
(179.296,-261,o),
(283,-261,cs)
);
}
);
userData = {
com.typemytype.robofont.Image.Sharpness = 0.4;
};
vertWidth = 0;
width = 563;
},
{
anchors = (
{
name = bottom;
pos = (320,-250);
},
{
name = top;
pos = (300,563);
}
);
layerId = "5DCC2EB0-DF11-4824-93BF-E616AA6EE2C6";
shapes = (
{
closed = 1;
nodes = (
(439,-261,o),
(575,-185,o),
(575,-5,cs),
(575,209.58,o),
(532.923,261.469,o),
(552,450,cs),
(562,547,o),
(479,572,o),
(434,572,cs),
(400,572,o),
(389,565,o),
(385,528,cs),
(373,401,o),
(326,303,o),
(256,303,cs),
(185,303,o),
(235,421,o),
(235,485,cs),
(235,529,o),
(206,573,o),
(116,573,cs),
(72,573,o),
(38,544,o),
(38,393,cs),
(38,208,o),
(124,128,o),
(266,128,cs),
(321,128,o),
(398,150,o),
(454,255,c),
(403,291,l),
(403,180.301,o),
(408,120.138,o),
(408,-5,cs),
(408,-52,o),
(390,-84,o),
(323,-84,cs),
(194,-84,o),
(172,-44,o),
(121,-44,cs),
(88,-44,o),
(74,-61,o),
(74,-110,cs),
(74,-196,o),
(140,-261,o),
(329,-261,cs)
);
}
);
userData = {
com.typemytype.robofont.Image.Sharpness = 0.4;
};
vertWidth = 0;
width = 623;
},
{
anchors = (
{
name = bottom;
pos = (182.818,-250);
},
{
name = top;
pos = (317.819,485);
}
);
layerId = master01;
shapes = (
{
closed = 1;
nodes = (
(300,-261,o),
(396,-207,o),
(432,-25,cs),
(470,167,o),
(441.818,231,o),
(492.818,400,cs),
(515.818,476,o),
(494.818,496,o),
(473.818,496,cs),
(453.818,496,o),
(447.818,489,o),
(435.818,452,cs),
(373.818,248,o),
(289.818,93,o),
(201.818,93,cs),
(132.857,93,o),
(124.115,226.441,o),
(175,421,cs),
(192.111,483.404,o),
(183.86,497,o),
(162.818,497,cs),
(137.818,497,o),
(112.818,472,o),
(87.818,343,cs),
(43.749,123.655,o),
(88.858,28,o),
(197,28,cs),
(253.985,28,o),
(343.065,67.567,o),
(431.818,271,c),
(407.818,299,l),
(375.818,127,o),
(381.818,66,o),
(367.818,-5,cs),
(344.818,-118,o),
(297.818,-194,o),
(192.818,-194,cs),
(90.818,-194,o),
(86.818,-164,o),
(55.818,-164,cs),
(34.818,-164,o),
(24,-175,o),
(21,-191,cs),
(12,-231,o),
(78,-261,o),
(182,-261,cs)
);
}
);
vertWidth = 0;
width = 563;
},
{
anchors = (
{
name = bottom;
pos = (217.987,-250);
},
{
name = top;
pos = (350.988,515);
}
);
layerId = "FAD04859-55EE-48D6-A0AA-73DE2A79512F";
shapes = (
{
closed = 1;
nodes = (
(377,-261,o),
(486,-202,o),
(520,-30,cs),
(558,161,o),
(526.987,232,o),
(579.987,400,cs),
(604.987,480,o),
(561.987,522,o),
(501.987,522,cs),
(457.987,522,o),
(437.987,503,o),
(423.987,460,cs),
(389,351,o),
(322,253,o),
(250,253,cs),
(179,253,o),
(252,371,o),
(265,435,cs),
(274,479,o),
(255,523,o),
(181.987,523,cs),
(124.987,523,o),
(84.987,494,o),
(54.987,343,cs),
(17.987,158,o),
(87.987,78,o),
(229.987,78,cs),
(284.987,78,o),
(365.987,100,o),
(442.987,205,c),
(385,240,l),
(367,148,o),
(375.987,99,o),
(354.987,-5,cs),
(344.987,-57,o),
(311,-88,o),
(249,-88,cs),
(130,-88,o),
(122.987,-44,o),
(75.987,-44,cs),
(35.987,-44,o),
(8.987,-67,o),
(-0.013,-110,cs),
(-14,-183,o),
(52,-261,o),
(245,-261,cs)
);
}
);
vertWidth = 0;
width = 623;
},
{
anchors = (
{
name = bottom;
pos = (182.818,-250);
},
{
name = top;
pos = (328.019,536);
}
);
layerId = "0998268F-450B-429A-9175-FFA5E463F4E3";
shapes = (
{
closed = 1;
nodes = (
(308,-259,o),
(397,-197,o),
(433,-15,cs),
(476,201,o),
(445.818,260,o),
(502.818,450,cs),
(525.818,526,o),
(504.818,546,o),
(483.818,546,cs),
(462,546,o),
(454,539,o),
(442,502,cs),
(387,320,o),
(305,183,o),
(216,183,cs),
(144,183,o),
(135,300,o),
(180,471,cs),
(196,531,o),
(185,547,o),
(172.818,547,cs),
(147.818,547,o),
(122.818,522,o),
(97.818,393,cs),
(59,202,o),
(108,120,o),
(215,120,cs),
(284,120,o),
(371,175,o),
(443.818,349,c),
(417.818,349,l),
(380.818,149,o),
(384.818,78,o),
(367.818,-5,cs),
(344.818,-118,o),
(297.818,-194,o),
(192.818,-194,cs),
(90.818,-194,o),
(86.818,-164,o),
(55.818,-164,cs),
(34.818,-164,o),
(23.818,-175,o),
(20.818,-191,cs),
(11.818,-236,o),
(86,-259,o),
(190,-259,cs)
);
}
);
vertWidth = 0;
width = 563;
},
{
anchors = (
{
name = bottom;
pos = (217.987,-250);
},
{
name = top;
pos = (360.588,563);
}
);
layerId = "60E1EE18-36F5-475C-BAEC-6556E4A9959C";
shapes = (
{
closed = 1;
nodes = (
(353,-261,o),
(486,-218,o),
(522,-39,cs),
(565,176,o),
(532.987,261,o),
(589.987,450,cs),
(618.987,547,o),
(551,582,o),
(506,582,cs),
(472,582,o),
(449.987,565,o),
(438.987,528,cs),
(400.987,401,o),
(334.987,303,o),
(264.987,303,cs),
(193.987,303,o),
(266.987,421,o),
(279.987,485,cs),
(288.987,529,o),
(268.987,573,o),
(178.987,573,cs),
(134.987,573,o),
(94.987,544,o),
(71,410,cs),
(41,245,o),
(114,139,o),
(256,139,cs),
(344,139,o),
(397,178,o),
(452.987,255,c),
(408.987,291,l),
(386.987,180,o),
(379.987,120,o),
(354.987,-5,cs),
(345.987,-52,o),
(320.987,-84,o),
(253.987,-84,cs),
(124.987,-84,o),
(125,-44,o),
(74,-44,cs),
(41,-44,o),
(10,-61,o),
(-0.013,-110,cs),
(-13,-178,o),
(45,-261,o),
(254,-261,cs)
);
}
);
vertWidth = 0;
width = 623;
},
{
associatedMasterId = "5DCC2EB0-DF11-4824-93BF-E616AA6EE2C6";
layerId = "66739A13-3AB9-4E7B-B17F-CB2B60388854";
name = transformed;
shapes = (
{
closed = 1;
nodes = (
(235,479,o),
(206,523,o),
(116,523,cs),
(72,523,o),
(38,494,o),
(38,343,cs),
(38,158,o),
(124,78,o),
(266,78,cs),
(321,78,o),
(398,100,o),
(454,205,cs),
(468,232,o),
(403,255,o),
(403,241,cs),
(403,149,o),
(408,99,o),
(408,-5,cs),
(408,-52,o),
(390,-84,o),
(323,-84,cs),
(194,-84,o),
(172,-44,o),
(121,-44,cs),
(88,-44,o),
(74,-61,o),
(74,-110,cs),
(74,-196,o),
(140,-261,o),
(329,-261,cs),
(439,-261,o),
(575,-185,o),
(575,-5,cs),
(575,186,o),
(535,232,o),
(552,400,cs),
(562,497,o),
(479,522,o),
(434,522,cs),
(400,522,o),
(389,515,o),
(385,478,cs),
(373,351,o),
(326,253,o),
(256,253,cs),
(185,253,o),
(235,371,o),
(235,435,cs)
);
}
);
vertWidth = 0;
width = 623;
}
);
unicode = 121;
}
{
color = 4;
glyphname = bar;
layers = (
{
layerId = "DC44E50C-9AA1-421C-802C-D4D023281425";
shapes = (
{
closed = 1;
nodes = (
(166,-160,o),
(184,-150,o),
(184,-115,cs),
(184,-27,o),
(169,-8,o),
(169,307,cs),
(169,512,o),
(181,643,o),
(181,753,cs),
(181,791,o),
(161,812,o),
(141,812,cs),
(123,812,o),
(113,794,o),
(113,775,cs),
(113,670,o),
(101,521,o),
(101,321,cs),
(101,175,o),
(96,55,o),
(120,-123,cs),
(123,-148,o),
(137,-160,o),
(153,-160,cs)
);
}
);
vertWidth = 0;
width = 273;
},
{
layerId = "FA16BA0A-39E2-4955-BC33-721AB190E0D3";
shapes = (
{
closed = 1;
nodes = (
(244,-164,o),
(273,-136,o),
(273,-78,cs),
(273,14,o),
(247,80,o),
(247,317,cs),
(247,459,o),
(262,577,o),
(262,680,cs),
(262,778,o),
(222,818,o),
(157,818,cs),
(108,818,o),
(93,788,o),
(95,743,cs),
(100,585,o),
(80,484,o),
(80,294,cs),
(80,152,o),
(86,64,o),
(112,-72,cs),
(124,-135,o),
(154,-164,o),
(198,-164,cs)
);
}
);
vertWidth = 0;
width = 349;
},
{
layerId = "365BB766-143C-4A52-A3A9-25E29A0F4411";
shapes = (
{
closed = 1;
nodes = (
(166,-160,o),
(184,-150,o),
(184,-115,cs),
(184,-27,o),
(169,-8,o),
(169,307,cs),
(169,512,o),
(181,643,o),
(181,753,cs),
(181,791,o),
(161,812,o),
(141,812,cs),
(123,812,o),
(113,794,o),
(113,775,cs),
(113,670,o),
(101,521,o),
(101,321,cs),
(101,175,o),
(96,55,o),
(120,-123,cs),
(123,-148,o),
(137,-160,o),
(153,-160,cs)
);
}
);
vertWidth = 0;
width = 273;
},
{
layerId = "5DCC2EB0-DF11-4824-93BF-E616AA6EE2C6";
shapes = (
{
closed = 1;
nodes = (
(244,-164,o),
(273,-136,o),
(273,-78,cs),
(273,14,o),
(247,80,o),
(247,317,cs),
(247,459,o),
(262,577,o),
(262,680,cs),
(262,778,o),
(222,818,o),
(157,818,cs),
(108,818,o),
(93,788,o),
(95,743,cs),
(100,585,o),
(80,484,o),
(80,294,cs),
(80,152,o),
(86,64,o),
(112,-72,cs),
(124,-135,o),
(154,-164,o),
(198,-164,cs)
);
}
);
vertWidth = 0;
width = 349;
},
{
layerId = master01;
shapes = (
{
closed = 1;
nodes = (
(85.218,-160,o),
(105.218,-150,o),
(112.218,-115,cs),
(130.218,-27,o),
(118.218,-8,o),
(181.218,307,cs),
(222.218,512,o),
(261.218,643,o),
(283.218,753,cs),
(290.218,791,o),
(274.218,812,o),
(254.218,812,cs),
(236.218,812,o),
(223.218,794,o),
(219.218,775,cs),
(198.218,670,o),
(156.218,521,o),
(116.218,321,cs),
(87.218,175,o),
(58.218,55,o),
(46.218,-123,cs),
(44.218,-148,o),
(56.218,-160,o),
(72.218,-160,cs)
);
}
);
vertWidth = 0;
width = 273;
},
{
layerId = "FAD04859-55EE-48D6-A0AA-73DE2A79512F";
shapes = (
{
closed = 1;
nodes = (
(159.03,-164,o),
(194.03,-136,o),
(205.03,-78,cs),
(224.03,14,o),
(211.03,80,o),
(258.03,317,cs),
(287.03,459,o),
(325.03,577,o),
(346.03,680,cs),
(366.03,778,o),
(334.03,818,o),
(269.03,818,cs),
(220.03,818,o),
(199.03,788,o),
(192.03,743,cs),
(165.03,585,o),
(125.03,484,o),
(87.03,294,cs),
(58.03,152,o),
(47.03,64,o),
(46.03,-72,cs),
(45.03,-135,o),
(69.03,-164,o),
(113.03,-164,cs)
);
}
);
vertWidth = 0;
width = 349;
},
{
layerId = "0998268F-450B-429A-9175-FFA5E463F4E3";
shapes = (
{
closed = 1;
nodes = (
(85.218,-160,o),
(105.218,-150,o),
(112.218,-115,cs),
(130.218,-27,o),
(118.218,-8,o),
(181.218,307,cs),
(222.218,512,o),
(261.218,643,o),
(283.218,753,cs),
(290.218,791,o),
(274.218,812,o),
(254.218,812,cs),
(236.218,812,o),
(223.218,794,o),
(219.218,775,cs),
(198.218,670,o),
(156.218,521,o),
(116.218,321,cs),
(87.218,175,o),
(58.218,55,o),
(46.218,-123,cs),
(44.218,-148,o),
(56.218,-160,o),
(72.218,-160,cs)
);
}
);
vertWidth = 0;
width = 273;
},
{
layerId = "60E1EE18-36F5-475C-BAEC-6556E4A9959C";
shapes = (
{
closed = 1;
nodes = (
(159.03,-164,o),
(194.03,-136,o),
(205.03,-78,cs),
(224.03,14,o),
(211.03,80,o),
(258.03,317,cs),
(287.03,459,o),
(325.03,577,o),
(346.03,680,cs),
(366.03,778,o),
(334.03,818,o),
(269.03,818,cs),
(220.03,818,o),
(199.03,788,o),
(192.03,743,cs),
(165.03,585,o),
(125.03,484,o),
(87.03,294,cs),
(58.03,152,o),
(47.03,64,o),
(46.03,-72,cs),
(45.03,-135,o),
(69.03,-164,o),
(113.03,-164,cs)
);
}
);
vertWidth = 0;
width = 349;
}
);
unicode = 124;
userData = {
KernOnSpecialSpacing = {
L = NoKerning;
R = NoKerning;
};
};
}
{
color = 4;
glyphname = asciitilde;
layers = (
{
background = {
shapes = (
{
closed = 1;
nodes = (
(-99,593,o),
(-103,633,o),
(-55,633,cs),
(-4,633,o),
(30,597,o),
(88,597,cs),
(181,597,o),
(234,654,o),
(234,736,cs),
(234,783,o),
(219,803,o),
(190,803,cs),
(151,803,o),
(137,763,o),
(94,763,cs),
(45,763,o),
(-1,812,o),
(-78,812,cs),
(-194,812,o),
(-234,760,o),
(-234,706,cs),
(-234,650,o),
(-200,593,o),
(-143,593,cs)
);
},
{
closed = 1;
nodes = (
(142,187,o),
(104,280,o),
(168,280,cs),
(229,280,o),
(259,176,o),
(346,176,cs),
(417,176,o),
(458,229,o),
(458,305,cs),
(458,341,o),
(443,353,o),
(424,353,cs),
(380,353,o),
(418,247,o),
(346,247,cs),
(298,247,o),
(272,352,o),
(170,352,cs),
(88,352,o),
(62,288,o),
(62,236,cs),
(62,207,o),
(78,187,o),
(99,187,cs)
);
}
);
};
backgroundImage = {
imagePath = "S_creen S_hot 2020-09-24 at 10.58.01 P_M_.png";
pos = (-8568.991,-705.564);
scale = (5.8857,5.8857);
};
layerId = "DC44E50C-9AA1-421C-802C-D4D023281425";
shapes = (
{
closed = 1;
nodes = (
(570,124,o),
(622,190,o),
(622,302,cs),
(622,339,o),
(607,351,o),
(587,351,cs),
(521,351,o),
(582,195,o),
(481,195,cs),
(391,195,o),
(376,400,o),
(214,400,cs),
(115,400,o),
(78,321,o),
(78,236,cs),
(78,206,o),
(93,185,o),
(113,185,cs),
(181,185,o),
(127,328,o),
(214,328,cs),
(314,328,o),
(342,124,o),
(481,124,cs)
);
}
);
userData = {
com.typemytype.robofont.Image.Brightness = 0;
com.typemytype.robofont.Image.Contrast = 1;
com.typemytype.robofont.Image.Saturation = 1;
com.typemytype.robofont.Image.Sharpness = 0.4;
};
vertWidth = 0;
width = 700;
},
{
background = {
shapes = (
{
closed = 1;
nodes = (
(-99,593,o),
(-103,633,o),
(-55,633,cs),
(-4,633,o),
(30,597,o),
(88,597,cs),
(181,597,o),
(234,654,o),
(234,736,cs),
(234,783,o),
(219,803,o),
(190,803,cs),
(151,803,o),
(137,763,o),
(94,763,cs),
(45,763,o),
(-1,812,o),
(-78,812,cs),
(-194,812,o),
(-234,760,o),
(-234,706,cs),
(-234,650,o),
(-200,593,o),
(-143,593,cs)
);
},
{
closed = 1;
nodes = (
(142,187,o),
(104,280,o),
(168,280,cs),
(229,280,o),
(259,176,o),
(346,176,cs),
(417,176,o),
(458,229,o),
(458,305,cs),
(458,341,o),
(443,353,o),
(424,353,cs),
(380,353,o),
(418,247,o),
(346,247,cs),
(298,247,o),
(272,352,o),
(170,352,cs),
(88,352,o),
(62,288,o),
(62,236,cs),
(62,207,o),
(78,187,o),
(99,187,cs)
);
}
);
};
backgroundImage = {
imagePath = "S_creen S_hot 2020-09-24 at 10.58.01 P_M_.png";
pos = (-8568.991,-705.564);
scale = (5.8857,5.8857);
};
layerId = "FA16BA0A-39E2-4955-BC33-721AB190E0D3";
shapes = (
{
closed = 1;
nodes = (
(582,115,o),
(650,192,o),
(650,300,cs),
(650,358,o),
(629,381,o),
(589,381,cs),
(525,381,o),
(518,301,o),
(460,301,cs),
(398,301,o),
(338,390,o),
(218,390,cs),
(92,390,o),
(50,313,o),
(50,234,cs),
(50,178,o),
(84,121,o),
(141,121,cs),
(196,121,o),
(191,201,o),
(251,201,cs),
(308,201,o),
(363,115,o),
(464,115,cs)
);
}
);
userData = {
com.typemytype.robofont.Image.Brightness = 0;
com.typemytype.robofont.Image.Contrast = 1;
com.typemytype.robofont.Image.Saturation = 1;
com.typemytype.robofont.Image.Sharpness = 0.4;
};
vertWidth = 0;
width = 700;
},
{
background = {
shapes = (
{
closed = 1;
nodes = (
(-99,593,o),
(-103,633,o),
(-55,633,cs),
(-4,633,o),
(30,597,o),
(88,597,cs),
(181,597,o),
(234,654,o),
(234,736,cs),
(234,783,o),
(219,803,o),
(190,803,cs),
(151,803,o),
(137,763,o),
(94,763,cs),
(45,763,o),
(-1,812,o),
(-78,812,cs),
(-194,812,o),
(-234,760,o),
(-234,706,cs),
(-234,650,o),
(-200,593,o),
(-143,593,cs)
);
},
{
closed = 1;
nodes = (
(142,187,o),
(104,280,o),
(168,280,cs),
(229,280,o),
(259,176,o),
(346,176,cs),
(417,176,o),
(458,229,o),
(458,305,cs),
(458,341,o),
(443,353,o),
(424,353,cs),
(380,353,o),
(418,247,o),
(346,247,cs),
(298,247,o),
(272,352,o),
(170,352,cs),
(88,352,o),
(62,288,o),
(62,236,cs),
(62,207,o),
(78,187,o),
(99,187,cs)
);
}
);
};
backgroundImage = {
imagePath = "S_creen S_hot 2020-09-24 at 10.58.01 P_M_.png";
pos = (-8568.991,-705.564);
scale = (5.8857,5.8857);
};
layerId = "365BB766-143C-4A52-A3A9-25E29A0F4411";
shapes = (
{
closed = 1;
nodes = (
(570,124,o),
(622,190,o),
(622,302,cs),
(622,339,o),
(607,351,o),
(587,351,cs),
(521,351,o),
(582,195,o),
(481,195,cs),
(391,195,o),
(376,400,o),
(214,400,cs),
(115,400,o),
(78,321,o),
(78,236,cs),
(78,206,o),
(93,185,o),
(113,185,cs),
(181,185,o),
(127,328,o),
(214,328,cs),
(314,328,o),
(342,124,o),
(481,124,cs)
);
}
);
userData = {
com.typemytype.robofont.Image.Brightness = 0;
com.typemytype.robofont.Image.Contrast = 1;
com.typemytype.robofont.Image.Saturation = 1;
com.typemytype.robofont.Image.Sharpness = 0.4;
};
vertWidth = 0;
width = 700;
},
{
background = {
shapes = (
{
closed = 1;
nodes = (
(-99,593,o),
(-103,633,o),
(-55,633,cs),
(-4,633,o),
(30,597,o),
(88,597,cs),
(181,597,o),
(234,654,o),
(234,736,cs),
(234,783,o),
(219,803,o),
(190,803,cs),
(151,803,o),
(137,763,o),
(94,763,cs),
(45,763,o),
(-1,812,o),
(-78,812,cs),
(-194,812,o),
(-234,760,o),
(-234,706,cs),
(-234,650,o),
(-200,593,o),
(-143,593,cs)
);
},
{
closed = 1;
nodes = (
(142,187,o),
(104,280,o),
(168,280,cs),
(229,280,o),
(259,176,o),
(346,176,cs),
(417,176,o),
(458,229,o),
(458,305,cs),
(458,341,o),
(443,353,o),
(424,353,cs),
(380,353,o),
(418,247,o),
(346,247,cs),
(298,247,o),
(272,352,o),
(170,352,cs),
(88,352,o),
(62,288,o),
(62,236,cs),
(62,207,o),
(78,187,o),
(99,187,cs)
);
}
);
};
backgroundImage = {
imagePath = "S_creen S_hot 2020-09-24 at 10.58.01 P_M_.png";
pos = (-8568.991,-705.564);
scale = (5.8857,5.8857);
};
layerId = "5DCC2EB0-DF11-4824-93BF-E616AA6EE2C6";
shapes = (
{
closed = 1;
nodes = (
(582,115,o),
(650,192,o),
(650,300,cs),
(650,358,o),
(629,381,o),
(589,381,cs),
(525,381,o),
(518,301,o),
(460,301,cs),
(398,301,o),
(338,390,o),
(218,390,cs),
(92,390,o),
(50,313,o),
(50,234,cs),
(50,178,o),
(84,121,o),
(141,121,cs),
(196,121,o),
(191,201,o),
(251,201,cs),
(308,201,o),
(363,115,o),
(464,115,cs)
);
}
);
userData = {
com.typemytype.robofont.Image.Brightness = 0;
com.typemytype.robofont.Image.Contrast = 1;
com.typemytype.robofont.Image.Saturation = 1;
com.typemytype.robofont.Image.Sharpness = 0.4;
};
vertWidth = 0;
width = 700;
},
{
layerId = master01;
shapes = (
{
closed = 1;
nodes = (
(554,124,o),
(612,190,o),
(633.635,302,cs),
(641.635,339,o),
(627,351,o),
(604,351,cs),
(540,351,o),
(569,195,o),
(471.635,195,cs),
(375,195,o),
(403,400,o),
(230,400,cs),
(140,400,o),
(94,321,o),
(76.635,236,cs),
(70.635,206,o),
(83,185,o),
(107,185,cs),
(172,185,o),
(148,328,o),
(231.635,328,cs),
(338,328,o),
(324,124,o),
(472,124,cs)
);
}
);
vertWidth = 0;
width = 700;
},
{
layerId = "FAD04859-55EE-48D6-A0AA-73DE2A79512F";
shapes = (
{
closed = 1;
nodes = (
(559,115,o),
(638,178,o),
(659,280,cs),
(673,346,o),
(652.889,381,o),
(604,381,cs),
(540,381,o),
(517,301,o),
(459,301,cs),
(397,301,o),
(355,390,o),
(235,390,cs),
(126,390,o),
(65,319,o),
(49,240,cs),
(38,184,o),
(58.618,121,o),
(124,121,cs),
(179,121,o),
(190,201,o),
(250,201,cs),
(307,201,o),
(345,115,o),
(456,115,c)
);
}
);
vertWidth = 0;
width = 700;
},
{
layerId = "0998268F-450B-429A-9175-FFA5E463F4E3";
shapes = (
{
closed = 1;
nodes = (
(554,124,o),
(612,190,o),
(633.635,302,cs),
(641.635,339,o),
(627,351,o),
(604,351,cs),
(540,351,o),
(569,195,o),
(471.635,195,cs),
(375,195,o),
(403,400,o),
(230,400,cs),
(140,400,o),
(94,321,o),
(76.635,236,cs),
(70.635,206,o),
(83,185,o),
(107,185,cs),
(172,185,o),
(148,328,o),
(231.635,328,cs),
(338,328,o),
(324,124,o),
(472,124,cs)
);
}
);
vertWidth = 0;
width = 700;
},
{
layerId = "60E1EE18-36F5-475C-BAEC-6556E4A9959C";
shapes = (
{
closed = 1;
nodes = (
(559,115,o),
(638,178,o),
(659,280,cs),
(673,346,o),
(652.889,381,o),
(604,381,cs),
(540,381,o),
(517,301,o),
(459,301,cs),
(397,301,o),
(355,390,o),
(235,390,cs),
(126,390,o),
(65,319,o),
(49,240,cs),
(38,184,o),
(58.618,121,o),
(124,121,cs),
(179,121,o),
(190,201,o),
(250,201,cs),
(307,201,o),
(345,115,o),
(456,115,c)
);
}
);
vertWidth = 0;
width = 700;
},
{
associatedMasterId = "DC44E50C-9AA1-421C-802C-D4D023281425";
layerId = "22BE8BB2-9066-4EC8-8965-8BB957D93076";
name = background;
vertWidth = 0;
width = 700;
},
{
associatedMasterId = "FA16BA0A-39E2-4955-BC33-721AB190E0D3";
layerId = "87234B38-16F4-4CA1-8928-84317B013084";
name = bg;
shapes = (
{
closed = 1;
nodes = (
(-111,625,o),
(-97,637,o),
(-74,637,cs),
(-62,637,o),
(-52,633,o),
(-41,627,cs),
(17,594,ls),
(34,584,o),
(57,578,o),
(80,578,cs),
(137,578,o),
(198,615,o),
(214,713,c),
(119,749,l),
(112,708,o),
(98,695,o),
(75,695,cs),
(62,695,o),
(53,699,o),
(41,706,cs),
(-16,738,ls),
(-34,748,o),
(-56,754,o),
(-79,754,cs),
(-136,754,o),
(-198,718,o),
(-213,619,c),
(-119,583,l)
);
},
{
closed = 1;
nodes = (
(-95,573,o),
(-101,600,o),
(-48,600,cs),
(0,600,o),
(42,564,o),
(107,564,cs),
(158,564,o),
(209,600,o),
(209,640,cs),
(209,651,o),
(199,662,o),
(181,662,cs),
(158,662,o),
(145,660,o),
(129,660,cs),
(75,660,o),
(6,707,o),
(-60,707,cs),
(-146,707,o),
(-207,669,o),
(-207,629,cs),
(-207,601,o),
(-180,573,o),
(-132,573,cs)
);
},
{
closed = 1;
nodes = (
(181,185,o),
(127,328,o),
(214,328,cs),
(314,328,o),
(342,124,o),
(481,124,cs),
(570,124,o),
(622,190,o),
(622,302,cs),
(622,339,o),
(607,351,o),
(587,351,cs),
(521,351,o),
(582,195,o),
(481,195,cs),
(391,195,o),
(376,400,o),
(214,400,cs),
(115,400,o),
(78,321,o),
(78,236,cs),
(78,206,o),
(93,185,o),
(113,185,cs)
);
}
);
vertWidth = 0;
width = 700;
},
{
associatedMasterId = "FA16BA0A-39E2-4955-BC33-721AB190E0D3";
layerId = "63466315-3B5E-450D-AF48-CF92B1FBB41E";
name = background;
vertWidth = 0;
width = 700;
},
{
associatedMasterId = "5DCC2EB0-DF11-4824-93BF-E616AA6EE2C6";
layerId = "E61385E5-7ADA-4F99-8C00-F0CD171F640D";
name = bg;
shapes = (
{
closed = 1;
nodes = (
(-111,625,o),
(-97,637,o),
(-74,637,cs),
(-62,637,o),
(-52,633,o),
(-41,627,cs),
(17,594,ls),
(34,584,o),
(57,578,o),
(80,578,cs),
(137,578,o),
(198,615,o),
(214,713,c),
(119,749,l),
(112,708,o),
(98,695,o),
(75,695,cs),
(62,695,o),
(53,699,o),
(41,706,cs),
(-16,738,ls),
(-34,748,o),
(-56,754,o),
(-79,754,cs),
(-136,754,o),
(-198,718,o),
(-213,619,c),
(-119,583,l)
);
},
{
closed = 1;
nodes = (
(-95,573,o),
(-101,600,o),
(-48,600,cs),
(0,600,o),
(42,564,o),
(107,564,cs),
(158,564,o),
(209,600,o),
(209,640,cs),
(209,651,o),
(199,662,o),
(181,662,cs),
(158,662,o),
(145,660,o),
(129,660,cs),
(75,660,o),
(6,707,o),
(-60,707,cs),
(-146,707,o),
(-207,669,o),
(-207,629,cs),
(-207,601,o),
(-180,573,o),
(-132,573,cs)
);
},
{
closed = 1;
nodes = (
(181,185,o),
(127,328,o),
(214,328,cs),
(314,328,o),
(342,124,o),
(481,124,cs),
(570,124,o),
(622,190,o),
(622,302,cs),
(622,339,o),
(607,351,o),
(587,351,cs),
(521,351,o),
(582,195,o),
(481,195,cs),
(391,195,o),
(376,400,o),
(214,400,cs),
(115,400,o),
(78,321,o),
(78,236,cs),
(78,206,o),
(93,185,o),
(113,185,cs)
);
}
);
vertWidth = 0;
width = 700;
},
{
associatedMasterId = "5DCC2EB0-DF11-4824-93BF-E616AA6EE2C6";
layerId = "18251D55-BCE1-4E30-8030-E4DF05EC5197";
name = background;
vertWidth = 0;
width = 700;
}
);
unicode = 126;
userData = {
KernOnSpecialSpacing = {
L = NoKerning;
R = NoKerning;
};
};
}
{
color = 4;
glyphname = exclamdown;
layers = (
{
layerId = "DC44E50C-9AA1-421C-802C-D4D023281425";
shapes = (
{
closed = 1;
nodes = (
(156,-260,o),
(166,-242,o),
(166,-223,cs),
(166,-151.107,o),
(178,-96.893,o),
(178,41,cs),
(178,104,o),
(175,158,o),
(162,236,cs),
(158,258,o),
(146,272,o),
(131,272,cs),
(118,272,o),
(100,262,o),
(100,227,cs),
(100,173,o),
(110,159,o),
(110,55,cs),
(110,-83.667,o),
(98,-126.333,o),
(98,-201,cs),
(98,-239,o),
(118,-260,o),
(138,-260,cs)
);
},
{
closed = 1;
nodes = (
(172,379,o),
(195,401,o),
(195,431,cs),
(195,476,o),
(161,502,o),
(120,502,cs),
(84,502,o),
(70,476,o),
(70,451,cs),
(70,414,o),
(91,379,o),
(145,379,cs)
);
}
);
vertWidth = 0;
width = 265;
},
{
layerId = "FA16BA0A-39E2-4955-BC33-721AB190E0D3";
shapes = (
{
closed = 1;
nodes = (
(227,-260,o),
(243,-226,o),
(241,-181,cs),
(238.618,-100.019,o),
(246,-30.933,o),
(246,31,cs),
(246,95,o),
(242,134,o),
(231,190,cs),
(221,236,o),
(190,256,o),
(143,256,cs),
(100,256,o),
(73,228,o),
(73,170,cs),
(73,131,o),
(79,67,o),
(79,5,cs),
(79,-52.239,o),
(74,-100.372,o),
(74,-142,cs),
(74,-226,o),
(113,-260,o),
(175,-260,cs)
);
},
{
closed = 1;
nodes = (
(223,327,o),
(259,356,o),
(259,416,cs),
(259,473,o),
(213,505,o),
(137,505,cs),
(80,505,o),
(50,478,o),
(50,435,cs),
(50,380,o),
(88,327,o),
(170,327,cs)
);
}
);
vertWidth = 0;
width = 309;
},
{
layerId = "365BB766-143C-4A52-A3A9-25E29A0F4411";
shapes = (
{
closed = 1;
nodes = (
(156,-220,o),
(166,-202,o),
(166,-183,cs),
(166,-122,o),
(178,-76,o),
(178,41,cs),
(178,104,o),
(175,158,o),
(162,236,cs),
(158,258,o),
(146,272,o),
(131,272,cs),
(118,272,o),
(100,262,o),
(100,227,cs),
(100,173,o),
(110,159,o),
(110,55,cs),
(110,-62,o),
(98,-98,o),
(98,-161,cs),
(98,-199,o),
(118,-220,o),
(138,-220,cs)
);
},
{
closed = 1;
nodes = (
(172,379,o),
(195,401,o),
(195,431,cs),
(195,476,o),
(161,502,o),
(120,502,cs),
(84,502,o),
(70,476,o),
(70,451,cs),
(70,414,o),
(91,379,o),
(145,379,cs)
);
}
);
vertWidth = 0;
width = 265;
},
{
layerId = "5DCC2EB0-DF11-4824-93BF-E616AA6EE2C6";
shapes = (
{
closed = 1;
nodes = (
(230,-226,o),
(243,-200,o),
(241,-161,cs),
(239,-93,o),
(246,-31,o),
(246,21,cs),
(246,89,o),
(241,129,o),
(230,189,cs),
(221,236,o),
(190,256,o),
(143,256,cs),
(100,256,o),
(73,228,o),
(73,170,cs),
(73,131,o),
(79,67,o),
(79,5,cs),
(79,-39,o),
(74,-76,o),
(74,-108,cs),
(74,-192,o),
(118,-226,o),
(189,-226,cs)
);
},
{
closed = 1;
nodes = (
(223,327,o),
(259,356,o),
(259,416,cs),
(259,473,o),
(213,505,o),
(137,505,cs),
(80,505,o),
(50,478,o),
(50,435,cs),
(50,380,o),
(88,327,o),
(170,327,cs)
);
}
);
vertWidth = 0;
width = 309;
},
{
layerId = master01;
shapes = (
{
closed = 1;
nodes = (
(64.104,-220,o),
(78.104,-202,o),
(81.104,-183,cs),
(94.104,-122,o),
(115.104,-76,o),
(138.104,41,cs),
(151.104,104,o),
(159.104,158,o),
(161.104,236,cs),
(162.104,258,o),
(152.104,272,o),
(137.104,272,cs),
(124.104,272,o),
(104.104,262,o),
(97.104,227,cs),
(87.104,173,o),
(94.104,159,o),
(73.104,55,cs),
(50.104,-62,o),
(30.104,-98,o),
(18.104,-161,cs),
(10.104,-199,o),
(26.104,-220,o),
(46.104,-220,cs)
);
},
{
closed = 1;
nodes = (
(200.104,379,o),
(227.104,401,o),
(233.104,431,cs),
(242.104,476,o),
(213.104,502,o),
(172.104,502,cs),
(136.104,502,o),
(117.104,476,o),
(112.104,451,cs),
(105.104,414,o),
(119.104,379,o),
(173.104,379,cs)
);
}
);
vertWidth = 0;
width = 265;
},
{
layerId = "FAD04859-55EE-48D6-A0AA-73DE2A79512F";
shapes = (
{
closed = 1;
nodes = (
(123.528,-260,o),
(146.528,-226,o),
(153.528,-181,cs),
(167.528,-100,o),
(188.528,-31,o),
(200.528,31,cs),
(213.528,95,o),
(217.528,134,o),
(217.528,190,cs),
(216.528,236,o),
(189.528,256,o),
(142.528,256,cs),
(99.528,256,o),
(67.528,228,o),
(55.528,170,cs),
(47.528,131,o),
(40.528,67,o),
(28.528,5,cs),
(17.528,-52,o),
(2.528,-100,o),
(-5.472,-142,cs),
(-22.472,-226,o),
(9.528,-260,o),
(71.528,-260,cs)
);
},
{
closed = 1;
nodes = (
(236.528,327,o),
(278.528,356,o),
(290.528,416,cs),
(302.528,473,o),
(262.528,505,o),
(186.528,505,cs),
(129.528,505,o),
(94.528,478,o),
(85.528,435,cs),
(74.528,380,o),
(101.528,327,o),
(183.528,327,cs)
);
}
);
vertWidth = 0;
width = 309;
},
{
layerId = "0998268F-450B-429A-9175-FFA5E463F4E3";
shapes = (
{
closed = 1;
nodes = (
(64.104,-220,o),
(78.104,-202,o),
(81.104,-183,cs),
(94.104,-122,o),
(115.104,-76,o),
(138.104,41,cs),
(151.104,104,o),
(159.104,158,o),
(161.104,236,cs),
(162.104,258,o),
(152.104,272,o),
(137.104,272,cs),
(124.104,272,o),
(104.104,262,o),
(97.104,227,cs),
(87.104,173,o),
(94.104,159,o),
(73.104,55,cs),
(50.104,-62,o),
(30.104,-98,o),
(18.104,-161,cs),
(10.104,-199,o),
(26.104,-220,o),
(46.104,-220,cs)
);
},
{
closed = 1;
nodes = (
(200.104,379,o),
(227.104,401,o),
(233.104,431,cs),
(242.104,476,o),
(213.104,502,o),
(172.104,502,cs),
(136.104,502,o),
(117.104,476,o),
(112.104,451,cs),
(105.104,414,o),
(119.104,379,o),
(173.104,379,cs)
);
}
);
vertWidth = 0;
width = 265;
},
{
layerId = "60E1EE18-36F5-475C-BAEC-6556E4A9959C";
shapes = (
{
closed = 1;
nodes = (
(123.528,-260,o),
(146.528,-226,o),
(153.528,-181,cs),
(167.528,-100,o),
(188.528,-31,o),
(200.528,31,cs),
(213.528,95,o),
(217.528,134,o),
(217.528,190,cs),
(216.528,236,o),
(189.528,256,o),
(142.528,256,cs),
(99.528,256,o),
(67.528,228,o),
(55.528,170,cs),
(47.528,131,o),
(40.528,67,o),
(28.528,5,cs),
(17.528,-52,o),
(2.528,-100,o),
(-5.472,-142,cs),
(-22.472,-226,o),
(9.528,-260,o),
(71.528,-260,cs)
);
},
{
closed = 1;
nodes = (
(236.528,327,o),
(278.528,356,o),
(290.528,416,cs),
(302.528,473,o),
(262.528,505,o),
(186.528,505,cs),
(129.528,505,o),
(94.528,478,o),
(85.528,435,cs),
(74.528,380,o),
(101.528,327,o),
(183.528,327,cs)
);
}
);
vertWidth = 0;
width = 309;
}
);
unicode = 161;
userData = {
KernOnSpecialSpacing = {
L = NoKerning;
R = "spaced-off";
};
};
}
{
color = 4;
glyphname = sterling;
kernRight = KO_dollar;
layers = (
{
background = {
shapes = (
{
closed = 1;
nodes = (
(187,312,o),
(299,342,o),
(610,342,cs),
(642,342,o),
(661,353,o),
(661,371,cs),
(661,384,o),
(639,405,o),
(577,405,cs),
(412,405,o),
(260,392,o),
(87,371,cs),
(62,368,o),
(55,353,o),
(55,342,cs),
(55,327,o),
(77,312,o),
(118,312,cs)
);
},
{
closed = 0;
nodes = (
(347,543,l),
(358,562,o),
(363,578,o),
(363,597,cs),
(363,634,o),
(327,671,o),
(269,671,cs),
(181,671,o),
(131,635,o),
(131,582,cs),
(131,534,o),
(159,500,o),
(201,453,cs),
(278,367,o),
(304,311,o),
(304,237,cs),
(304,135,o),
(219,29,o),
(149,29,cs),
(98,29,o),
(68,71,o),
(68,94,cs),
(68,123,o),
(99,143,o),
(140,143,cs),
(193,143,o),
(243,120,o),
(316,72,cs),
(370,37,o),
(405,21,o),
(446,21,cs),
(521,21,o),
(569,54,o),
(596,87,c)
);
},
{
closed = 0;
nodes = (
(156,305,l),
(240,323,o),
(409,344,o),
(471,344,cs),
(509,344,o),
(535,342,o),
(558,338,c)
);
},
{
closed = 1;
nodes = (
(374,563,o),
(378,574,o),
(378,587,cs),
(378,617,o),
(326,638,o),
(269,638,cs),
(217,638,o),
(168,623,o),
(168,575,cs),
(168,541,o),
(194,514,o),
(227,476,cs),
(312,381,o),
(339,319,o),
(339,237,cs),
(339,112,o),
(231,-6,o),
(149,-6,cs),
(71,-6,o),
(33,61,o),
(33,94,cs),
(33,137,o),
(70,178,o),
(140,178,cs),
(198,178,o),
(254,154,o),
(335,101,cs),
(381,71,o),
(411,56,o),
(446,56,cs),
(507,56,o),
(547,82,o),
(569,109,cs),
(581,124,o),
(604,126,o),
(618,114,cs),
(633,102,o),
(635,79,o),
(623,65,cs),
(591,26,o),
(535,-14,o),
(446,-14,cs),
(399,-14,o),
(359,3,o),
(297,43,cs),
(232,86,o),
(188,108,o),
(140,108,cs),
(128,108,o),
(103,109,o),
(103,94,cs),
(103,81,o),
(125,64,o),
(149,64,cs),
(207,64,o),
(269,158,o),
(269,237,cs),
(269,303,o),
(244,353,o),
(175,430,cs),
(125,485,o),
(96,526,o),
(96,574,cs),
(96,648,o),
(146,706,o),
(269,706,cs),
(393,706,o),
(448,650,o),
(448,587,cs),
(448,562,o),
(442,541,o),
(427,515,cs),
(418,499,o),
(396,493,o),
(379,503,cs),
(363,512,o),
(357,534,o),
(367,551,cs)
);
},
{
closed = 1;
nodes = (
(235,358,o),
(408,379,o),
(471,379,cs),
(512,379,o),
(539,377,o),
(564,372,cs),
(583,369,o),
(596,351,o),
(592,332,c),
(589,313,o),
(571,300,o),
(552,304,c),
(531,307,o),
(506,309,o),
(471,309,cs),
(410,309,o),
(245,288,o),
(163,271,cs),
(145,267,o),
(126,279,o),
(122,298,cs),
(118,316,o),
(130,335,o),
(149,339,cs)
);
}
);
};
layerId = "DC44E50C-9AA1-421C-802C-D4D023281425";
shapes = (
{
closed = 1;
nodes = (
(558,-14,o),
(624,48,o),
(624,87,cs),
(624,105,o),
(611.2,125,o),
(596,125,cs),
(557,125,o),
(552,56,o),
(463,56,cs),
(352,56,o),
(262.209,198,o),
(150,198,cs),
(71.495,198,o),
(30,150,o),
(30,101,cs),
(30,48,o),
(79,-6,o),
(149,-6,cs),
(243,-6,o),
(339,111,o),
(339,222,cs),
(339,398,o),
(168,481.402,o),
(168,565,cs),
(168,620.619,o),
(231.554,638,o),
(299,638,cs),
(361.295,638,o),
(418,617,o),
(418,587,cs),
(418,558,o),
(403,549,o),
(403,529,cs),
(403,513,o),
(414,498,o),
(437,498,cs),
(466,498,o),
(488,536,o),
(488,587,cs),
(488,650,o),
(430.178,706,o),
(299,706,cs),
(154.671,706,o),
(96,643.606,o),
(96,564,cs),
(96,444.445,o),
(269,377,o),
(269,222,cs),
(269,144,o),
(209,61,o),
(148,61,cs),
(123,61,o),
(100,83,o),
(100,101,cs),
(100,121,o),
(114.865,134,o),
(150,134,cs),
(240.121,134,o),
(322.489,-14,o),
(463,-14,cs)
);
},
{
closed = 1;
nodes = (
(184,270,o),
(331,305,o),
(460,305,cs),
(502,305,o),
(515,303,o),
(534,303,cs),
(569,303,o),
(592,323,o),
(592,345,cs),
(592,364,o),
(575,375,o),
(506,375,cs),
(410,375,o),
(235.517,358,o),
(149,339,cs),
(126,334,o),
(115,326,o),
(115,311,cs),
(115,287,o),
(136,270,o),
(156,270,cs)
);
}
);
vertWidth = 0;
width = 700;
},
{
layerId = "FA16BA0A-39E2-4955-BC33-721AB190E0D3";
shapes = (
{
closed = 1;
nodes = (
(587.691,-19,o),
(663,41.968,o),
(663,107,cs),
(663,155.795,o),
(636.73,188,o),
(591,188,cs),
(543,188,o),
(509.657,152,o),
(445,152,cs),
(363.412,152,o),
(304,207,o),
(153,207,cs),
(77,207,o),
(32,168,o),
(32,112,cs),
(32,45,o),
(84.291,-12,o),
(173,-12,cs),
(299,-12,o),
(407,100,o),
(407,223,cs),
(407,420,o),
(254,481,o),
(254,521,cs),
(254,539,o),
(277,549,o),
(324,549,cs),
(373,549,o),
(386,541,o),
(386,529,cs),
(386,524,o),
(383,518,o),
(383,507,cs),
(383,485,o),
(402.062,462,o),
(444,462,cs),
(524.787,462,o),
(558,505.727,o),
(558,573,cs),
(558,625,o),
(516,715,o),
(324,715,cs),
(161,715,o),
(78,624,o),
(78,535,cs),
(78,415.439,o),
(244,347.268,o),
(244,234,cs),
(244,181.661,o),
(208.478,124,o),
(174,124,cs),
(173,124,o),
(174,107,o),
(174,96,cs),
(174,86,o),
(173,77,o),
(174,77,cs),
(242,77,o),
(309.58,-19,o),
(445,-19,cs)
);
},
{
closed = 1;
nodes = (
(219,253,o),
(383,265,o),
(444,265,cs),
(482,265,o),
(508,262,o),
(521,262,cs),
(575,262,o),
(612,299,o),
(612,344,cs),
(612,389,o),
(565,414,o),
(479,414,cs),
(353,414,o),
(209,409,o),
(110,402,cs),
(63,398,o),
(41,376,o),
(41,343,cs),
(41,282,o),
(89,253,o),
(137,253,cs)
);
}
);
vertWidth = 0;
width = 700;
},
{
background = {
shapes = (
{
closed = 1;
nodes = (
(187,312,o),
(299,342,o),
(610,342,cs),
(642,342,o),
(661,353,o),
(661,371,cs),
(661,384,o),
(639,405,o),
(577,405,cs),
(412,405,o),
(260,392,o),
(87,371,cs),
(62,368,o),
(55,353,o),
(55,342,cs),
(55,327,o),
(77,312,o),
(118,312,cs)
);
},
{
closed = 0;
nodes = (
(347,543,l),
(358,562,o),
(363,578,o),
(363,597,cs),
(363,634,o),
(327,671,o),
(269,671,cs),
(181,671,o),
(131,635,o),
(131,582,cs),
(131,534,o),
(159,500,o),
(201,453,cs),
(278,367,o),
(304,311,o),
(304,237,cs),
(304,135,o),
(219,29,o),
(149,29,cs),
(98,29,o),
(68,71,o),
(68,94,cs),
(68,123,o),
(99,143,o),
(140,143,cs),
(193,143,o),
(243,120,o),
(316,72,cs),
(370,37,o),
(405,21,o),
(446,21,cs),
(521,21,o),
(569,54,o),
(596,87,cs)
);
},
{
closed = 0;
nodes = (
(156,305,l),
(240,323,o),
(409,344,o),
(471,344,cs),
(509,344,o),
(535,342,o),
(558,338,cs)
);
},
{
closed = 1;
nodes = (
(374,563,o),
(378,574,o),
(378,587,cs),
(378,617,o),
(326,638,o),
(269,638,cs),
(217,638,o),
(168,623,o),
(168,575,cs),
(168,541,o),
(194,514,o),
(227,476,cs),
(312,381,o),
(339,319,o),
(339,237,cs),
(339,112,o),
(231,-6,o),
(149,-6,cs),
(71,-6,o),
(33,61,o),
(33,94,cs),
(33,137,o),
(70,178,o),
(140,178,cs),
(198,178,o),
(254,154,o),
(335,101,cs),
(381,71,o),
(411,56,o),
(446,56,cs),
(507,56,o),
(547,82,o),
(569,109,cs),
(581,124,o),
(604,126,o),
(618,114,cs),
(633,102,o),
(635,79,o),
(623,65,cs),
(591,26,o),
(535,-14,o),
(446,-14,cs),
(399,-14,o),
(359,3,o),
(297,43,cs),
(232,86,o),
(188,108,o),
(140,108,cs),
(128,108,o),
(103,109,o),
(103,94,cs),
(103,81,o),
(125,64,o),
(149,64,cs),
(207,64,o),
(269,158,o),
(269,237,cs),
(269,303,o),
(244,353,o),
(175,430,cs),
(125,485,o),
(96,526,o),
(96,574,cs),
(96,648,o),
(146,706,o),
(269,706,cs),
(393,706,o),
(448,650,o),
(448,587,cs),
(448,562,o),
(442,541,o),
(427,515,cs),
(418,499,o),
(396,493,o),
(379,503,cs),
(363,512,o),
(357,534,o),
(367,551,cs)
);
},
{
closed = 1;
nodes = (
(235,358,o),
(408,379,o),
(471,379,cs),
(512,379,o),
(539,377,o),
(564,372,cs),
(583,369,o),
(596,351,o),
(592,332,cs),
(589,313,o),
(571,300,o),
(552,304,cs),
(531,307,o),
(506,309,o),
(471,309,cs),
(410,309,o),
(245,288,o),
(163,271,cs),
(145,267,o),
(126,279,o),
(122,298,cs),
(118,316,o),
(130,335,o),
(149,339,cs)
);
}
);
};
layerId = "365BB766-143C-4A52-A3A9-25E29A0F4411";
shapes = (
{
closed = 1;
nodes = (
(558,-14,o),
(624,48,o),
(624,87,cs),
(624,105,o),
(611.2,125,o),
(596,125,cs),
(557,125,o),
(552,56,o),
(463,56,cs),
(352,56,o),
(262.209,198,o),
(150,198,cs),
(71.495,198,o),
(30,150,o),
(30,101,cs),
(30,48,o),
(79,-6,o),
(149,-6,cs),
(243,-6,o),
(339,111,o),
(339,222,cs),
(339,398,o),
(168,481.402,o),
(168,565,cs),
(168,620.619,o),
(231.554,638,o),
(299,638,cs),
(361.295,638,o),
(418,617,o),
(418,587,cs),
(418,558,o),
(403,549,o),
(403,529,cs),
(403,513,o),
(414,498,o),
(437,498,cs),
(466,498,o),
(488,536,o),
(488,587,cs),
(488,650,o),
(430.178,706,o),
(299,706,cs),
(154.671,706,o),
(96,643.606,o),
(96,564,cs),
(96,444.445,o),
(269,377,o),
(269,222,cs),
(269,144,o),
(209,61,o),
(148,61,cs),
(123,61,o),
(100,83,o),
(100,101,cs),
(100,121,o),
(114.865,134,o),
(150,134,cs),
(240.121,134,o),
(322.489,-14,o),
(463,-14,cs)
);
},
{
closed = 1;
nodes = (
(184,270,o),
(331,305,o),
(460,305,cs),
(502,305,o),
(515,303,o),
(534,303,cs),
(569,303,o),
(592,323,o),
(592,345,cs),
(592,364,o),
(575,375,o),
(506,375,cs),
(410,375,o),
(235.517,358,o),
(149,339,cs),
(126,334,o),
(115,326,o),
(115,311,cs),
(115,287,o),
(136,270,o),
(156,270,cs)
);
}
);
vertWidth = 0;
width = 700;
},
{
layerId = "5DCC2EB0-DF11-4824-93BF-E616AA6EE2C6";
shapes = (
{
closed = 1;
nodes = (
(587.691,-19,o),
(663,41.968,o),
(663,107,cs),
(663,155.795,o),
(636.73,188,o),
(591,188,cs),
(543,188,o),
(509.657,152,o),
(445,152,cs),
(363.412,152,o),
(304,207,o),
(153,207,cs),
(77,207,o),
(32,168,o),
(32,112,cs),
(32,45,o),
(84.291,-12,o),
(173,-12,cs),
(299,-12,o),
(407,100,o),
(407,223,cs),
(407,420,o),
(254,481,o),
(254,521,cs),
(254,539,o),
(277,549,o),
(324,549,cs),
(373,549,o),
(386,541,o),
(386,529,cs),
(386,524,o),
(383,519,o),
(383,510,cs),
(383,484.667,o),
(402.062,462,o),
(444,462,cs),
(524.787,462,o),
(558,505.727,o),
(558,573,cs),
(558,625,o),
(516,715,o),
(324,715,cs),
(161,715,o),
(78,624,o),
(78,535,cs),
(78,415.439,o),
(244,347.268,o),
(244,234,cs),
(244,181.661,o),
(208.478,124,o),
(174,124,cs),
(173,124,o),
(174,107,o),
(174,96,cs),
(174,86,o),
(173,77,o),
(174,77,cs),
(242,77,o),
(309.58,-19,o),
(445,-19,cs)
);
},
{
closed = 1;
nodes = (
(219,253,o),
(383,265,o),
(444,265,cs),
(482,265,o),
(508,262,o),
(521,262,cs),
(575,262,o),
(612,299,o),
(612,344,cs),
(612,389,o),
(565,414,o),
(479,414,cs),
(353,414,o),
(209,409,o),
(110,402,cs),
(63,398,o),
(41,376,o),
(41,343,cs),
(41,282,o),
(89,253,o),
(137,253,cs)
);
}
);
vertWidth = 0;
width = 700;
},
{
layerId = master01;
shapes = (
{
closed = 1;
nodes = (
(506.581,-14,o),
(585.581,48,o),
(592.581,87,cs),
(597,108,o),
(585,131,o),
(567,131,cs),
(529,131,o),
(511,56,o),
(425.581,56,cs),
(311,56,o),
(248,198,o),
(133,198,cs),
(59,198,o),
(14,160,o),
(4,111,cs),
(-6,58,o),
(37,-6,o),
(107,-6,cs),
(198,-6,o),
(310,98,o),
(332,209,cs),
(368,385,o),
(215.581,481,o),
(232.581,565,cs),
(243.581,621,o),
(310.581,638,o),
(378.581,638,cs),
(440.581,638,o),
(492.581,617,o),
(486.581,587,cs),
(481.581,558,o),
(464.581,549,o),
(460.581,529,cs),
(457.581,513,o),
(465.581,498,o),
(488.581,498,cs),
(516,498,o),
(544,532,o),
(553,577,cs),
(567,645,o),
(519,706,o),
(391.581,706,cs),
(249,706,o),
(177,649,o),
(163,574,cs),
(138,451,o),
(296,381,o),
(264.581,222,cs),
(249.581,144,o),
(172.581,61,o),
(111.581,61,cs),
(86.581,61,o),
(68.581,83,o),
(71.581,101,cs),
(75.581,121,o),
(93.581,134,o),
(128.581,134,cs),
(218.581,134,o),
(271.581,-14,o),
(411.581,-14,cs)
);
},
{
closed = 1;
nodes = (
(189.581,270,o),
(343.581,305,o),
(472.581,305,cs),
(514.581,305,o),
(527.581,303,o),
(546.581,303,cs),
(581.581,303,o),
(608.581,323,o),
(612.581,345,cs),
(616.581,364,o),
(601.581,375,o),
(532.581,375,cs),
(436.581,375,o),
(258.581,358,o),
(168.581,339,cs),
(144.581,334,o),
(131.581,326,o),
(128.581,311,cs),
(123.581,287,o),
(141.581,270,o),
(161.581,270,cs)
);
}
);
vertWidth = 0;
width = 700;
},
{
layerId = "FAD04859-55EE-48D6-A0AA-73DE2A79512F";
shapes = (
{
closed = 1;
nodes = (
(541.441,-19,o),
(620.397,42.194,o),
(633.358,107,cs),
(643.358,156,o),
(623.358,188,o),
(578.358,188,cs),
(530.358,188,o),
(489.358,152,o),
(424.358,152,cs),
(343.358,152,o),
(294.358,207,o),
(143.358,207,cs),
(67.358,207,o),
(15.358,168,o),
(3.358,112,cs),
(-9.642,45,o),
(31.358,-12,o),
(120.358,-12,cs),
(245.301,-12,o),
(375.029,95.062,o),
(399,213,cs),
(439.223,416.176,o),
(299.107,479.748,o),
(307.358,521,cs),
(312.049,542.108,o),
(337.748,554,o),
(387,554,cs),
(437.69,554,o),
(449.491,543.944,o),
(447,529,cs),
(446,524,o),
(441,518,o),
(439,507,cs),
(435,485,o),
(449,462,o),
(491,462,cs),
(564,462,o),
(608,505,o),
(622,573,cs),
(632.021,625.112,o),
(607.32,715,o),
(406,715,cs),
(251.092,715,o),
(152,641,o),
(136,562,cs),
(110,434,o),
(263.739,354.093,o),
(240.358,234,cs),
(229.358,182,o),
(182.358,124,o),
(148.358,124,cs),
(147.358,124,o),
(144.358,107,o),
(142.358,96,cs),
(140.358,86,o),
(137.358,77,o),
(138.358,77,cs),
(211.658,77,o),
(264.477,-19,o),
(410,-19,cs)
);
},
{
closed = 1;
nodes = (
(219.358,253,o),
(385.358,265,o),
(446.358,265,cs),
(484.358,265,o),
(509.358,262,o),
(522.358,262,cs),
(576.358,262,o),
(621.358,299,o),
(630.358,344,cs),
(639.358,389,o),
(597.358,414,o),
(511.358,414,cs),
(385.358,414,o),
(240.358,409,o),
(139.358,402,cs),
(92.358,398,o),
(65.358,376,o),
(59.358,343,cs),
(46.358,282,o),
(89.358,253,o),
(137.358,253,cs)
);
}
);
vertWidth = 0;
width = 700;
},
{
layerId = "0998268F-450B-429A-9175-FFA5E463F4E3";
shapes = (
{
closed = 1;
nodes = (
(506.581,-14,o),
(585.581,48,o),
(592.581,87,cs),
(597,108,o),
(585,131,o),
(567,131,cs),
(529,131,o),
(511,56,o),
(425.581,56,cs),
(311,56,o),
(248,198,o),
(133,198,cs),
(59,198,o),
(14,160,o),
(4,111,cs),
(-6,58,o),
(37,-6,o),
(107,-6,cs),
(198,-6,o),
(310,98,o),
(332,209,cs),
(368,385,o),
(215.581,481,o),
(232.581,565,cs),
(243.581,621,o),
(310.581,638,o),
(378.581,638,cs),
(440.581,638,o),
(492.581,617,o),
(486.581,587,cs),
(481.581,558,o),
(464.581,549,o),
(460.581,529,cs),
(457.581,513,o),
(465.581,498,o),
(488.581,498,cs),
(516,498,o),
(544,532,o),
(553,577,cs),
(567,645,o),
(519,706,o),
(391.581,706,cs),
(249,706,o),
(177,649,o),
(163,574,cs),
(138,451,o),
(296,381,o),
(264.581,222,cs),
(249.581,144,o),
(172.581,61,o),
(111.581,61,cs),
(86.581,61,o),
(68.581,83,o),
(71.581,101,cs),
(75.581,121,o),
(93.581,134,o),
(128.581,134,cs),
(218.581,134,o),
(271.581,-14,o),
(411.581,-14,cs)
);
},
{
closed = 1;
nodes = (
(189.581,270,o),
(343.581,305,o),
(472.581,305,cs),
(514.581,305,o),
(527.581,303,o),
(546.581,303,cs),
(581.581,303,o),
(608.581,323,o),
(612.581,345,cs),
(616.581,364,o),
(601.581,375,o),
(532.581,375,cs),
(436.581,375,o),
(258.581,358,o),
(168.581,339,cs),
(144.581,334,o),
(131.581,326,o),
(128.581,311,cs),
(123.581,287,o),
(141.581,270,o),
(161.581,270,cs)
);
}
);
vertWidth = 0;
width = 700;
},
{
layerId = "60E1EE18-36F5-475C-BAEC-6556E4A9959C";
shapes = (
{
closed = 1;
nodes = (
(541.441,-19,o),
(620.397,42.194,o),
(633.358,107,cs),
(643.358,156,o),
(623.358,188,o),
(578.358,188,cs),
(530.358,188,o),
(489.358,152,o),
(424.358,152,cs),
(343.358,152,o),
(294.358,207,o),
(143.358,207,cs),
(67.358,207,o),
(15.358,168,o),
(3.358,112,cs),
(-9.642,45,o),
(31.358,-12,o),
(120.358,-12,cs),
(245.301,-12,o),
(375.029,95.062,o),
(399,213,cs),
(439.223,416.176,o),
(299.107,479.748,o),
(307.358,521,cs),
(312.049,542.108,o),
(337.748,554,o),
(387,554,cs),
(437.69,554,o),
(449.491,543.944,o),
(447,529,cs),
(446,524,o),
(441,518,o),
(439,507,cs),
(435,485,o),
(449,462,o),
(491,462,cs),
(564,462,o),
(608,505,o),
(622,573,cs),
(632.021,625.112,o),
(607.32,715,o),
(406,715,cs),
(251.092,715,o),
(152,641,o),
(136,562,cs),
(110,434,o),
(263.739,354.093,o),
(240.358,234,cs),
(229.358,182,o),
(182.358,124,o),
(148.358,124,cs),
(147.358,124,o),
(144.358,107,o),
(142.358,96,cs),
(140.358,86,o),
(137.358,77,o),
(138.358,77,cs),
(211.658,77,o),
(264.477,-19,o),
(410,-19,cs)
);
},
{
closed = 1;
nodes = (
(219.358,253,o),
(385.358,265,o),
(446.358,265,cs),
(484.358,265,o),
(509.358,262,o),
(522.358,262,cs),
(576.358,262,o),
(621.358,299,o),
(630.358,344,cs),
(639.358,389,o),
(597.358,414,o),
(511.358,414,cs),
(385.358,414,o),
(240.358,409,o),
(139.358,402,cs),
(92.358,398,o),
(65.358,376,o),
(59.358,343,cs),
(46.358,282,o),
(89.358,253,o),
(137.358,253,cs)
);
}
);
vertWidth = 0;
width = 700;
},
{
associatedMasterId = "FA16BA0A-39E2-4955-BC33-721AB190E0D3";
layerId = "87234B38-16F4-4CA1-8928-84317B013084";
name = bg;
shapes = (
{
closed = 0;
nodes = (
(470,514,l),
(473,519,o),
(474,524,o),
(474,529,cs),
(474,578,o),
(427,627,o),
(324,627,cs),
(235,627,o),
(166,581,o),
(166,521,cs),
(166,483,o),
(191,456,o),
(228,419,cs),
(296,351,o),
(319,306,o),
(319,248,cs),
(319,167,o),
(243,76,o),
(182,76,cs),
(136,76,o),
(110,112,o),
(110,132,cs),
(110,157,o),
(137,174,o),
(173,174,cs),
(220,174,o),
(264,154,o),
(330,113,cs),
(378,83,o),
(408,69,o),
(445,69,cs),
(511,69,o),
(554,98,o),
(578,126,c)
);
},
{
closed = 0;
nodes = (
(159,331,l),
(240,338,o),
(403,346,o),
(464,346,cs),
(500,346,o),
(523,344,o),
(544,342,c)
);
}
);
vertWidth = 0;
width = 700;
},
{
associatedMasterId = "5DCC2EB0-DF11-4824-93BF-E616AA6EE2C6";
layerId = "E61385E5-7ADA-4F99-8C00-F0CD171F640D";
name = bg;
shapes = (
{
closed = 0;
nodes = (
(470,514,l),
(473,519,o),
(474,524,o),
(474,529,cs),
(474,578,o),
(427,627,o),
(324,627,cs),
(235,627,o),
(166,581,o),
(166,521,cs),
(166,483,o),
(191,456,o),
(228,419,cs),
(296,351,o),
(319,306,o),
(319,248,cs),
(319,167,o),
(243,76,o),
(182,76,cs),
(136,76,o),
(110,112,o),
(110,132,cs),
(110,157,o),
(137,174,o),
(173,174,cs),
(220,174,o),
(264,154,o),
(330,113,cs),
(378,83,o),
(408,69,o),
(445,69,cs),
(511,69,o),
(554,98,o),
(578,126,cs)
);
},
{
closed = 0;
nodes = (
(159,331,l),
(240,338,o),
(403,346,o),
(464,346,cs),
(500,346,o),
(523,344,o),
(544,342,cs)
);
}
);
vertWidth = 0;
width = 700;
}
);
unicode = 163;
userData = {
KernOnSpecialSpacing = {
L = symbols;
R = symbols;
};
};
}
{
color = 4;
glyphname = currency;
layers = (
{
layerId = "DC44E50C-9AA1-421C-802C-D4D023281425";
shapes = (
{
closed = 1;
nodes = (
(455.617,146,o),
(570,223,o),
(570,388,cs),
(570,491,o),
(520.331,554,o),
(406,554,cs),
(292.995,554,o),
(208,485,o),
(208,448,cs),
(208,432,o),
(223,421,o),
(242,421,cs),
(302,421,o),
(289,489,o),
(406,489,cs),
(475,489,o),
(498,445,o),
(498,388,cs),
(497,274,o),
(423,211,o),
(345,211,cs),
(273,211,o),
(242,251,o),
(242,304,cs),
(242,367,o),
(275,414,o),
(328,446,cs),
(344,456,o),
(351,468,o),
(351,479,cs),
(350,500,o),
(340,507,o),
(318,507,cs),
(271.459,507,o),
(170,428,o),
(170,304,cs),
(170,194,o),
(244.353,146,o),
(346,146,cs)
);
},
{
closed = 1;
nodes = (
(176,57,o),
(190,66,o),
(199,86,cs),
(219,126,o),
(242,166,o),
(268,205,c),
(223,250,l),
(174,184,o),
(143,128,o),
(139,98,cs),
(135,67,o),
(148,57,o),
(165,57,cs)
);
},
{
closed = 1;
nodes = (
(591,59,o),
(600,69,o),
(600,85,cs),
(600,103,o),
(591,126,o),
(552,182,cs),
(536,204,o),
(515,231,o),
(491,262,c),
(447,211,l),
(476,173,o),
(504,135,o),
(528,99,cs),
(548,67,o),
(559,59,o),
(575,59,cs)
);
},
{
closed = 1;
nodes = (
(300,488,l),
(274,516,o),
(251,540,o),
(233,557,cs),
(193,594,o),
(179,606,o),
(153,606,cs),
(135,606,o),
(129,595,o),
(129,583,cs),
(129,561,o),
(147,542,o),
(179,515,cs),
(201,496,o),
(225,473,o),
(251,446,c)
);
},
{
closed = 1;
nodes = (
(537,488,o),
(567,508,o),
(597,526,cs),
(621,541,o),
(629,554,o),
(629,570,cs),
(629,587,o),
(620,597,o),
(605,597,cs),
(582,597,o),
(560,588,o),
(488,528,cs),
(481,522,o),
(474,516,o),
(467,510,c),
(509,466,l)
);
}
);
vertWidth = 0;
width = 700;
},
{
layerId = "FA16BA0A-39E2-4955-BC33-721AB190E0D3";
shapes = (
{
closed = 1;
nodes = (
(468,132,o),
(586,233,o),
(580,406,cs),
(576,525,o),
(514,599,o),
(374,599,cs),
(251,599,o),
(200,535,o),
(200,473,cs),
(200,432,o),
(226,412,o),
(265,412,cs),
(295,412,o),
(294,430,o),
(368,430,cs),
(397,430,o),
(408,414,o),
(409,394,cs),
(412,332,o),
(375,295,o),
(332,295,cs),
(304,295,o),
(285,308,o),
(285,338,cs),
(285,369,o),
(298,390,o),
(328,413,cs),
(344,425,o),
(353,446,o),
(353,466,cs),
(353,518,o),
(333,539,o),
(283,539,cs),
(234,539,o),
(117,470,o),
(121,325,cs),
(125,192,o),
(210,132,o),
(331,132,cs)
);
},
{
closed = 1;
nodes = (
(156,33,o),
(186,50,o),
(218,98,cs),
(248,142,o),
(283,182,o),
(322,218,c),
(208,338,l),
(146,279,o),
(102,212,o),
(80,157,cs),
(46,74,o),
(74,33,o),
(119,33,cs)
);
},
{
closed = 1;
nodes = (
(611,47,o),
(640,70,o),
(640,110,cs),
(640,129,o),
(634,156,o),
(593,214,cs),
(568,247,o),
(521,303,o),
(471,352,c),
(351,235,l),
(394,194,o),
(434,148,o),
(461,111,cs),
(500,57,o),
(534,47,o),
(557,47,cs)
);
},
{
closed = 1;
nodes = (
(353,505,l),
(303,554,o),
(253,601,o),
(226,621,cs),
(188,651,o),
(166,660,o),
(139,660,cs),
(94,660,o),
(68,623,o),
(68,576,cs),
(68,533,o),
(90,515,o),
(123,488,cs),
(154,461,o),
(194,425,o),
(233,388,c)
);
},
{
closed = 1;
nodes = (
(525,429,o),
(571,464,o),
(620,494,cs),
(649,512,o),
(658,528,o),
(658,564,cs),
(658,616,o),
(636,648,o),
(590,648,cs),
(566,648,o),
(529,636,o),
(493,613,cs),
(447,583,o),
(404,547,o),
(368,511,c),
(482,391,l)
);
}
);
vertWidth = 0;
width = 700;
},
{
layerId = "365BB766-143C-4A52-A3A9-25E29A0F4411";
shapes = (
{
closed = 1;
nodes = (
(455.617,146,o),
(570,223,o),
(570,388,cs),
(570,491,o),
(520.331,554,o),
(406,554,cs),
(292.995,554,o),
(208,485,o),
(208,448,cs),
(208,432,o),
(223,421,o),
(242,421,cs),
(302,421,o),
(289,489,o),
(406,489,cs),
(475,489,o),
(498,445,o),
(498,388,cs),
(497,274,o),
(423,211,o),
(345,211,cs),
(273,211,o),
(242,251,o),
(242,304,cs),
(242,367,o),
(275,414,o),
(328,446,cs),
(344,456,o),
(351,468,o),
(351,479,cs),
(350,500,o),
(340,507,o),
(318,507,cs),
(271.459,507,o),
(170,428,o),
(170,304,cs),
(170,194,o),
(244.353,146,o),
(346,146,cs)
);
},
{
closed = 1;
nodes = (
(176,57,o),
(190,66,o),
(199,86,cs),
(219,126,o),
(242,166,o),
(268,205,c),
(223,250,l),
(174,184,o),
(143,128,o),
(139,98,cs),
(135,67,o),
(148,57,o),
(165,57,cs)
);
},
{
closed = 1;
nodes = (
(591,59,o),
(600,69,o),
(600,85,cs),
(600,103,o),
(591,126,o),
(552,182,cs),
(536,204,o),
(515,231,o),
(491,262,c),
(447,211,l),
(476,173,o),
(504,135,o),
(528,99,cs),
(548,67,o),
(559,59,o),
(575,59,cs)
);
},
{
closed = 1;
nodes = (
(300,488,l),
(274,516,o),
(251,540,o),
(233,557,cs),
(193,594,o),
(179,606,o),
(153,606,cs),
(135,606,o),
(129,595,o),
(129,583,cs),
(129,561,o),
(147,542,o),
(179,515,cs),
(201,496,o),
(225,473,o),
(251,446,c)
);
},
{
closed = 1;
nodes = (
(537,488,o),
(567,508,o),
(597,526,cs),
(621,541,o),
(629,554,o),
(629,570,cs),
(629,587,o),
(620,597,o),
(605,597,cs),
(582,597,o),
(560,588,o),
(488,528,cs),
(481,522,o),
(474,516,o),
(467,510,c),
(509,466,l)
);
}
);
vertWidth = 0;
width = 700;
},
{
layerId = "5DCC2EB0-DF11-4824-93BF-E616AA6EE2C6";
shapes = (
{
closed = 1;
nodes = (
(468,132,o),
(586,233,o),
(580,406,cs),
(576,525,o),
(514,599,o),
(374,599,cs),
(250.927,599,o),
(200,535,o),
(200,473,cs),
(200,432,o),
(226,412,o),
(265,412,cs),
(295,412,o),
(293.687,430,o),
(368,430,cs),
(397,430,o),
(408,414,o),
(409,394,cs),
(412,332,o),
(375,295,o),
(332,295,cs),
(304,295,o),
(285,308,o),
(285,338,cs),
(285,369,o),
(298,390,o),
(328,413,cs),
(344,425,o),
(353,446,o),
(353,466,cs),
(353,518,o),
(333.351,539,o),
(283,539,cs),
(234,539,o),
(117,470,o),
(121,325,cs),
(125,192,o),
(210,132,o),
(331,132,cs)
);
},
{
closed = 1;
nodes = (
(156,33,o),
(186,50,o),
(218,98,cs),
(247.8,142.275,o),
(283.032,182.42,o),
(322,218,c),
(208,338,l),
(146.254,278.901,o),
(102.387,211.623,o),
(80,157,cs),
(46,74,o),
(74,33,o),
(119,33,cs)
);
},
{
closed = 1;
nodes = (
(611,47,o),
(640,70,o),
(640,110,cs),
(640,129,o),
(634,156,o),
(593,214,cs),
(567.926,247.432,o),
(521,303,o),
(471,352,c),
(351,235,l),
(394,194,o),
(434.266,147.875,o),
(461,111,cs),
(500,57,o),
(534,47,o),
(557,47,cs)
);
},
{
closed = 1;
nodes = (
(353,505,l),
(303,554,o),
(252.856,600.858,o),
(226,621,cs),
(188,651,o),
(166,660,o),
(139,660,cs),
(94,660,o),
(68,623,o),
(68,576,cs),
(68,533,o),
(90,515,o),
(123,488,cs),
(154.477,461.292,o),
(194,425,o),
(233,388,c)
);
},
{
closed = 1;
nodes = (
(524.748,429.295,o),
(570.847,464.157,o),
(620,494,cs),
(649,512,o),
(658,528,o),
(658,564,cs),
(658,616,o),
(636,648,o),
(590,648,cs),
(566,648,o),
(529,636,o),
(493,613,cs),
(446.894,583.423,o),
(404.356,547.356,o),
(368,511,c),
(482,391,l)
);
}
);
vertWidth = 0;
width = 700;
},
{
layerId = master01;
shapes = (
{
closed = 1;
nodes = (
(442,146,o),
(564,213,o),
(597,378,cs),
(617,481,o),
(580,554,o),
(458,554,cs),
(351,554,o),
(256,485,o),
(249.417,448,cs),
(245.417,432,o),
(258.417,421,o),
(277.417,421,cs),
(337.417,421,o),
(338.417,489,o),
(455.417,489,cs),
(524.417,489,o),
(538.417,445,o),
(527.417,388,cs),
(503.417,274,o),
(416.417,211,o),
(338.417,211,cs),
(266.417,211,o),
(243.417,251,o),
(254.417,304,cs),
(266.417,367,o),
(309.417,414,o),
(368.417,446,cs),
(386.417,456,o),
(396.417,468,o),
(398.417,479,cs),
(401.417,500,o),
(392.417,507,o),
(370.417,507,cs),
(324.417,507,o),
(209,438,o),
(184,314,cs),
(162,204,o),
(229,146,o),
(336,146,cs)
);
},
{
closed = 1;
nodes = (
(138.417,57,o),
(154.417,66,o),
(167.417,86,cs),
(195.417,126,o),
(226.417,166,o),
(260.417,205,c),
(224.417,250,l),
(162.417,184,o),
(120.417,128,o),
(110.417,98,cs),
(99.417,67,o),
(110.417,57,o),
(127.417,57,cs)
);
},
{
closed = 1;
nodes = (
(554.417,59,o),
(565.417,69,o),
(568.417,85,cs),
(572.417,103,o),
(567.417,126,o),
(539.417,182,cs),
(528.417,204,o),
(512.417,231,o),
(494.417,262,c),
(440.417,211,l),
(462.417,173,o),
(482.417,135,o),
(499.417,99,cs),
(512.417,67,o),
(522.417,59,o),
(538.417,59,cs)
);
},
{
closed = 1;
nodes = (
(349.417,488,l),
(328.417,516,o),
(310.417,540,o),
(295.417,557,cs),
(263.417,594,o),
(251.417,606,o),
(225.417,606,cs),
(207.417,606,o),
(199.417,595,o),
(197.417,583,cs),
(192.417,561,o),
(206.417,542,o),
(233.417,515,cs),
(251.417,496,o),
(271.417,473,o),
(291.417,446,c)
);
},
{
closed = 1;
nodes = (
(586.417,488,o),
(620.417,508,o),
(653.417,526,cs),
(680.417,541,o),
(691.417,554,o),
(694.417,570,cs),
(697.417,587,o),
(690.417,597,o),
(675.417,597,cs),
(652.417,597,o),
(629.417,588,o),
(545.417,528,cs),
(536.417,522,o),
(528.417,516,o),
(520.417,510,c),
(553.417,466,l)
);
}
);
vertWidth = 0;
width = 700;
},
{
layerId = "FAD04859-55EE-48D6-A0AA-73DE2A79512F";
shapes = (
{
closed = 1;
nodes = (
(467.107,132,o),
(579.169,206.403,o),
(605,366,cs),
(626.862,496.08,o),
(559.65,599,o),
(412,599,cs),
(289,599,o),
(245,535,o),
(233,473,cs),
(224,432,o),
(246,412,o),
(285,412,cs),
(315,412,o),
(318,430,o),
(392,430,cs),
(429.529,430,o),
(440.671,405.142,o),
(436,374,cs),
(427.983,324.295,o),
(387.567,295,o),
(349,295,cs),
(313.632,295,o),
(293.572,310.859,o),
(301,348,cs),
(305.974,374.859,o),
(319.821,393.547,o),
(349,413,cs),
(367,425,o),
(380,446,o),
(384,466,cs),
(394.919,517.617,o),
(379.936,539,o),
(339.301,539,cs),
(290.301,539,o),
(161.75,492.747,o),
(138,355,cs),
(113.913,215.712,o),
(207.529,132,o),
(335,132,cs)
);
},
{
closed = 1;
nodes = (
(111,33,o),
(144.252,49.944,o),
(186.301,98,cs),
(224.301,142,o),
(267.301,182,o),
(314.301,218,c),
(215,347,l),
(141,288,o),
(83,221,o),
(48,171,cs),
(-6,91,o),
(21,33,o),
(74,33,cs)
);
},
{
closed = 1;
nodes = (
(570.794,53,o),
(603.052,73.753,o),
(610.301,110,cs),
(614.301,129,o),
(613.301,156,o),
(584.301,214,cs),
(565.301,247,o),
(530.301,303,o),
(489.301,352,c),
(352,241,l),
(387,200,o),
(418,154,o),
(437,117,cs),
(465,63,o),
(497,53,o),
(520,53,cs)
);
},
{
closed = 1;
nodes = (
(402.301,505,l),
(362.301,554,o),
(321.301,601,o),
(298.301,621,cs),
(266.301,651,o),
(246.301,660,o),
(219.301,660,cs),
(177.215,660,o),
(146.289,625.656,o),
(137,582,cs),
(129,539,o),
(147,521,o),
(175,494,cs),
(200,467,o),
(233,431,o),
(265,394,c)
);
},
{
closed = 1;
nodes = (
(559.301,429,o),
(612.301,464,o),
(667.301,494,cs),
(699.301,512,o),
(712.301,528,o),
(719.301,564,cs),
(730.4,621.715,o),
(713.389,657,o),
(659,657,cs),
(635,657,o),
(595,645,o),
(555,622,cs),
(503,592,o),
(452,556,o),
(409,520,c),
(508.301,391,l)
);
}
);
vertWidth = 0;
width = 700;
},
{
layerId = "0998268F-450B-429A-9175-FFA5E463F4E3";
shapes = (
{
closed = 1;
nodes = (
(442,146,o),
(564,213,o),
(597,378,cs),
(617,481,o),
(580,554,o),
(458,554,cs),
(351,554,o),
(256,485,o),
(249.417,448,cs),
(245.417,432,o),
(258.417,421,o),
(277.417,421,cs),
(337.417,421,o),
(338.417,489,o),
(455.417,489,cs),
(524.417,489,o),
(538.417,445,o),
(527.417,388,cs),
(503.417,274,o),
(416.417,211,o),
(338.417,211,cs),
(266.417,211,o),
(243.417,251,o),
(254.417,304,cs),
(266.417,367,o),
(309.417,414,o),
(368.417,446,cs),
(386.417,456,o),
(396.417,468,o),
(398.417,479,cs),
(401.417,500,o),
(392.417,507,o),
(370.417,507,cs),
(324.417,507,o),
(209,438,o),
(184,314,cs),
(162,204,o),
(229,146,o),
(336,146,cs)
);
},
{
closed = 1;
nodes = (
(138.417,57,o),
(154.417,66,o),
(167.417,86,cs),
(195.417,126,o),
(226.417,166,o),
(260.417,205,c),
(224.417,250,l),
(162.417,184,o),
(120.417,128,o),
(110.417,98,cs),
(99.417,67,o),
(110.417,57,o),
(127.417,57,cs)
);
},
{
closed = 1;
nodes = (
(554.417,59,o),
(565.417,69,o),
(568.417,85,cs),
(572.417,103,o),
(567.417,126,o),
(539.417,182,cs),
(528.417,204,o),
(512.417,231,o),
(494.417,262,c),
(440.417,211,l),
(462.417,173,o),
(482.417,135,o),
(499.417,99,cs),
(512.417,67,o),
(522.417,59,o),
(538.417,59,cs)
);
},
{
closed = 1;
nodes = (
(349.417,488,l),
(328.417,516,o),
(310.417,540,o),
(295.417,557,cs),
(263.417,594,o),
(251.417,606,o),
(225.417,606,cs),
(207.417,606,o),
(199.417,595,o),
(197.417,583,cs),
(192.417,561,o),
(206.417,542,o),
(233.417,515,cs),
(251.417,496,o),
(271.417,473,o),
(291.417,446,c)
);
},
{
closed = 1;
nodes = (
(586.417,488,o),
(620.417,508,o),
(653.417,526,cs),
(680.417,541,o),
(691.417,554,o),
(694.417,570,cs),
(697.417,587,o),
(690.417,597,o),
(675.417,597,cs),
(652.417,597,o),
(629.417,588,o),
(545.417,528,cs),
(536.417,522,o),
(528.417,516,o),
(520.417,510,c),
(553.417,466,l)
);
}
);
vertWidth = 0;
width = 700;
},
{
layerId = "60E1EE18-36F5-475C-BAEC-6556E4A9959C";
shapes = (
{
closed = 1;
nodes = (
(467.107,132,o),
(579.169,206.403,o),
(605,366,cs),
(626.862,496.08,o),
(559.65,599,o),
(412,599,cs),
(289,599,o),
(245,535,o),
(233,473,cs),
(224,432,o),
(246,412,o),
(285,412,cs),
(315,412,o),
(318,430,o),
(392,430,cs),
(429.529,430,o),
(440.671,405.142,o),
(436,374,cs),
(427.983,324.295,o),
(387.567,295,o),
(349,295,cs),
(313.632,295,o),
(293.572,310.859,o),
(301,348,cs),
(305.974,374.859,o),
(319.821,393.547,o),
(349,413,cs),
(367,425,o),
(380,446,o),
(384,466,cs),
(394.919,517.617,o),
(379.936,539,o),
(339.301,539,cs),
(290.301,539,o),
(161.75,492.747,o),
(138,355,cs),
(113.913,215.712,o),
(207.529,132,o),
(335,132,cs)
);
},
{
closed = 1;
nodes = (
(111,33,o),
(144.252,49.944,o),
(186.301,98,cs),
(224.301,142,o),
(267.301,182,o),
(314.301,218,c),
(215,347,l),
(141,288,o),
(83,221,o),
(48,171,cs),
(-6,91,o),
(21,33,o),
(74,33,cs)
);
},
{
closed = 1;
nodes = (
(570.794,53,o),
(603.052,73.753,o),
(610.301,110,cs),
(614.301,129,o),
(613.301,156,o),
(584.301,214,cs),
(565.301,247,o),
(530.301,303,o),
(489.301,352,c),
(352,241,l),
(387,200,o),
(418,154,o),
(437,117,cs),
(465,63,o),
(497,53,o),
(520,53,cs)
);
},
{
closed = 1;
nodes = (
(402.301,505,l),
(362.301,554,o),
(321.301,601,o),
(298.301,621,cs),
(266.301,651,o),
(246.301,660,o),
(219.301,660,cs),
(177.215,660,o),
(146.289,625.656,o),
(137,582,cs),
(129,539,o),
(147,521,o),
(175,494,cs),
(200,467,o),
(233,431,o),
(265,394,c)
);
},
{
closed = 1;
nodes = (
(559.301,429,o),
(612.301,464,o),
(667.301,494,cs),
(699.301,512,o),
(712.301,528,o),
(719.301,564,cs),
(730.4,621.715,o),
(713.389,657,o),
(659,657,cs),
(635,657,o),
(595,645,o),
(555,622,cs),
(503,592,o),
(452,556,o),
(409,520,c),
(508.301,391,l)
);
}
);
vertWidth = 0;
width = 700;
}
);
unicode = 164;
}
